<svg data-v-61f34b8f="" width="20" height="21" viewBox="0 0 20 21" fill="none" xmlns="http://www.w3.org/2000/svg" aria-hidden="true" role="img" class="section__icon icon icon-casino-section-gamepad sm" icon="casino/section/gamepad" data-v-17ecb862=""><path d="M18.212 5.852C15.57 1.495 11.59 4.526 11.59 4.526a2.057 2.057 0 01-1.057.358H9.467c-.324.001-.8-.16-1.057-.356 0 0-3.98-3.032-6.622 1.325-2.641 4.357-1.577 9.1-1.577 9.1.186 1.162.801 1.938 1.961 1.84 1.157-.097 3.667-3.128 3.667-3.128.207-.25.642-.454.964-.454l6.39-.001c.323 0 .758.204.965.454 0 0 2.51 3.031 3.669 3.128 1.158.097 1.774-.679 1.96-1.84 0 0 1.066-4.743-1.576-9.1zM7.599 9.4h-1.37v1.326s-.29.223-.74.217c-.448-.007-.65-.243-.65-.243V9.4H3.543s-.162-.166-.205-.603c-.042-.438.179-.792.179-.792h1.37V6.628s.282-.151.688-.14c.406.013.703.166.703.166l-.006 1.35h1.294s.226.291.245.643c.019.352-.213.752-.213.752zm6.285 1.512c-.6 0-1.084-.487-1.084-1.09a1.084 1.084 0 112.169 0c0 .603-.488 1.09-1.085 1.09zm0-2.996c-.6 0-1.084-.487-1.084-1.09a1.084 1.084 0 112.169 0c0 .603-.488 1.09-1.085 1.09zm2.7 1.608c-.6 0-1.083-.487-1.083-1.09a1.085 1.085 0 112.169 0c0 .603-.488 1.09-1.085 1.09z" fill="url(#gamepad_svg__paint0_linear)"></path><defs><linearGradient id="gamepad_svg__paint0_linear" x1="2.182" y1="23.654" x2="22.527" y2="20.657" gradientUnits="userSpaceOnUse"><stop stop-color="#3D37B7"></stop><stop offset="1" stop-color="#8C72EC"></stop></linearGradient></defs></svg>