<svg viewBox="0 0 27 23" fill="none" color="#61DA84" xmlns="http://www.w3.org/2000/svg" aria-hidden="true" role="img" class="icon icon-android-2 FooterMobileApps_icon_IQ5EC" style="--vicon-with-gradient-problem__size:23px;" icon="android-2" size="23"><path d="M1.883 19.019c-.928 0-1.883.726-1.883 1.997 0 1.162.84 1.982 1.883 1.982.861 0 1.245-.564 1.245-.564v.246c0 .116.113.246.252.246h.623v-3.82h-.875v.485s-.387-.572-1.245-.572zm.156.781c.764 0 1.165.656 1.165 1.215 0 .624-.476 1.215-1.164 1.216-.574 0-1.15-.455-1.15-1.224 0-.694.495-1.207 1.149-1.207zM5.218 22.927c-.135 0-.252-.094-.252-.246v-3.574h.875v.473c.198-.291.585-.561 1.18-.561.971 0 1.488.756 1.488 1.463v2.445h-.607a.265.265 0 01-.267-.26V20.67c0-.392-.246-.868-.815-.868-.614 0-.98.566-.98 1.1v2.025h-.622zM11.062 19.022c-.928 0-1.883.726-1.883 1.996 0 1.162.84 1.983 1.883 1.983.861 0 1.245-.565 1.245-.565v.246c0 .117.113.246.252.246h.623v-5.73h-.875v2.395s-.387-.571-1.245-.571zm.156.78c.764 0 1.165.657 1.165 1.216 0 .623-.476 1.215-1.164 1.215-.574 0-1.15-.454-1.15-1.223 0-.694.495-1.207 1.149-1.207zM14.396 22.924c-.135 0-.252-.094-.252-.246v-3.574h.874v.637c.15-.357.476-.68 1.053-.68.16 0 .311.029.311.029v.882s-.188-.072-.415-.072c-.614 0-.949.566-.949 1.099v1.925h-.622zM21.69 22.928c-.135 0-.253-.094-.253-.246v-3.574h.875v3.82h-.622zM24.88 19.022c-.929 0-1.883.726-1.883 1.996 0 1.162.84 1.983 1.883 1.983.861 0 1.245-.565 1.245-.565v.246c0 .117.113.246.252.246H27v-5.73h-.875v2.395s-.387-.571-1.245-.571zm.156.78c.764 0 1.165.657 1.165 1.216 0 .623-.476 1.215-1.164 1.215-.575 0-1.15-.454-1.15-1.223 0-.694.495-1.207 1.149-1.207zM21.87 18.282c.319 0 .578-.252.578-.564a.572.572 0 00-.579-.565.572.572 0 00-.578.565c0 .312.259.564.578.564zM18.69 19.019c-.971 0-2.04.708-2.04 1.991 0 1.17.91 1.99 2.039 1.99 1.39 0 2.07-1.091 2.07-1.982 0-1.093-.875-1.999-2.068-1.999zm.004.797c.672 0 1.174.53 1.174 1.197 0 .679-.532 1.203-1.172 1.203-.594 0-1.17-.471-1.17-1.192 0-.732.548-1.208 1.168-1.208zM20.086 4.449L22.325.665A.438.438 0 0022.16.06a.455.455 0 00-.617.16l-2.267 3.833c-1.73-.77-3.678-1.2-5.772-1.2-2.094 0-4.042.43-5.772 1.2L5.465.221a.458.458 0 00-.62-.16.436.436 0 00-.164.604L6.919 4.45A13.03 13.03 0 00.013 14.765h26.982A13.026 13.026 0 0020.086 4.45zM7.31 11.068c-.625 0-1.13-.496-1.13-1.104 0-.61.508-1.104 1.13-1.104.626 0 1.131.496 1.131 1.104.003.608-.505 1.104-1.13 1.104zm12.387 0c-.626 0-1.131-.496-1.131-1.104 0-.61.508-1.104 1.13-1.104.626 0 1.132.496 1.132 1.104.002.608-.506 1.104-1.131 1.104z" fill="currentColor"></path></svg>