<svg viewBox="0 0 39 36" fill="none" xmlns="http://www.w3.org/2000/svg" aria-hidden="true" role="img" class="icon icon-bookmaker-rating-en LicenseSection_icon_jA8_x" style="--vicon-with-gradient-problem__size:39px;" icon="bookmaker-rating-en" size="39"><path d="M16.022 12.2h-4.74c-.517 0-.71.179-.808.7l-1.78 10.211c-.096.506.05.685.567.685h4.853c2.28 0 4.092-.995 4.464-3.099.243-1.419-.162-2.48-1.116-2.936l.016-.065c.922-.57 1.375-1.19 1.585-2.284.34-1.94-.792-3.213-3.04-3.213zm-.29 3.539c-.114.636-.502.88-1.15.88H9.827l.313-1.794h4.751c.663 0 .954.278.841.914zm-.421 4.453c-.114.684-.518.962-1.197.962h-1.877l.34-1.909h1.86c.696 0 1.003.294.874.947z" fill="#07E"></path><path fill-rule="evenodd" clip-rule="evenodd" d="M21.894 12.2h4.61c2.443 0 3.785 1.533 3.332 4.06-.262 1.159-1.035 1.799-2.12 2.513l-.063.032c.113.212.21.44.307.701l.841 3.49c.146.441-.032.8-.566.8h-1.747c-.857 0-1.197-.212-1.359-.783l-.517-2.936c-.178-.554-.291-.832-1.003-.832h-.42l-.68 3.866c-.097.506-.291.685-.809.685h-1.828c-.517 0-.663-.18-.566-.685l1.78-10.227c.097-.505.29-.685.808-.685zm4.46 3.547c-.112.636-.5.88-1.144.88h-4.777l.313-1.793h4.77c.662 0 .952.277.839.913z" fill="#07E"></path><path d="M16.863 29.612h-2.175v-.35l1.027-.889a2.13 2.13 0 00.311-.327.456.456 0 00.103-.266.345.345 0 00-.107-.269c-.071-.066-.173-.099-.305-.099a.465.465 0 00-.338.12.417.417 0 00-.122.314h-.632c0-.157.046-.3.137-.43a.918.918 0 01.393-.305c.168-.074.36-.111.573-.111.327 0 .58.064.76.191a.62.62 0 01.273.54.74.74 0 01-.122.389c-.082.132-.221.286-.419.462l-.721.617h1.364v.413zM19.543 28.547c0 .356-.091.628-.273.817-.181.189-.447.283-.797.283-.346 0-.61-.092-.793-.278-.183-.185-.277-.45-.282-.796v-.474c0-.36.092-.633.275-.82.185-.186.45-.279.796-.279.345 0 .61.093.793.278.183.184.276.449.28.794v.475zm-.63-.52c0-.214-.036-.37-.109-.466-.071-.098-.183-.147-.335-.147-.149 0-.258.047-.33.14-.07.092-.106.236-.11.433v.627c0 .21.034.366.104.469.071.101.184.152.34.152.154 0 .265-.05.333-.147.069-.098.104-.248.107-.45v-.612zM22.301 29.612h-2.175v-.35l1.027-.889c.14-.125.244-.234.311-.327a.455.455 0 00.103-.266.345.345 0 00-.107-.269c-.071-.066-.173-.099-.305-.099a.465.465 0 00-.338.12.417.417 0 00-.122.314h-.632c0-.157.046-.3.137-.43a.918.918 0 01.393-.305c.168-.074.36-.111.573-.111.327 0 .58.064.76.191a.62.62 0 01.273.54.74.74 0 01-.122.389c-.082.132-.221.286-.419.462l-.721.617H22.3v.413zM24.375 29.612h-.63V27.64l-.752.189v-.416l1.314-.382h.068v2.58zM9.74 33.35l.411.277.63-.901.518.348-1.723 2.462-.933-.627c-.296-.2-.48-.419-.55-.657-.07-.238-.022-.475.143-.712a.932.932 0 01.407-.346.933.933 0 01.523-.04l.161-1.372.017-.024.555.374-.16 1.218zm.124.688l-.418-.28a.529.529 0 00-.369-.107.434.434 0 00-.295.197.442.442 0 00-.09.342c.02.111.1.214.239.308l.416.28.517-.74zM6.657 31.086l.865.822.568-.574-1.016-.965.351-.355 1.466 1.393-2.12 2.144-1.462-1.39.354-.358 1.012.962.505-.51-.865-.823.342-.346zM4.78 28.284c.28-.17.56-.222.84-.157.28.064.526.238.735.52.23.31.304.63.224.96-.082.328-.308.625-.68.89l-.15.106a1.843 1.843 0 01-.717.323 1.176 1.176 0 01-.674-.054 1.235 1.235 0 01-.539-.428c-.207-.279-.297-.557-.27-.836.026-.28.166-.53.422-.752l.369.497c-.15.126-.233.252-.248.377-.018.126.03.265.143.418.123.166.276.247.46.243.18-.004.4-.096.656-.275l.187-.133c.266-.19.431-.367.496-.533.064-.168.033-.336-.093-.507-.114-.154-.234-.243-.361-.267-.129-.025-.272.01-.43.106l-.37-.498zM2.894 25.633c.27-.127.53-.192.78-.194.249-.002.472.058.668.181.196.122.349.296.46.521.108.224.151.448.127.675a1.174 1.174 0 01-.268.627c-.157.192-.367.35-.63.476l-.136.064a1.86 1.86 0 01-.782.193c-.254 0-.477-.06-.672-.182a1.243 1.243 0 01-.459-.521 1.205 1.205 0 01-.126-.676c.023-.226.115-.436.275-.627.158-.193.371-.353.64-.48l.123-.057zm.15.62c-.288.136-.482.29-.582.461a.539.539 0 00-.012.539.557.557 0 00.433.326c.197.031.438-.02.724-.152l.134-.063c.28-.132.473-.285.578-.459a.538.538 0 00.018-.545.552.552 0 00-.432-.325c-.199-.029-.44.023-.727.156l-.134.063zM.86 24.601l1.945-1.28-2.333-.202-.204-.783 2.95-.741.156.598-.806.203-1.408.29 2.402.228.107.41-1.992 1.33 1.374-.409.806-.202.156.596-2.95.741-.203-.779zM.076 20.474l2.183-.836-2.233-.694L0 18.138l3.044-.095.02.617-.832.026-1.438-.017 2.294.735.014.422-2.24.875 1.432-.107.832-.026.02.615-3.044.095-.026-.803zM2.104 15.612l-.194 1.166.805.129.227-1.369.498.08-.328 1.975-3.006-.48.327-1.971.502.08-.226 1.364.716.115.193-1.166.486.077zM4.352 12.766l-.204.581-2.293.493 1.895.64-.205.582-2.879-.973.205-.582 2.296-.493-1.898-.641.204-.58 2.879.973zM2.194 10.595l2.583 1.582.496-.78c.142-.222.217-.453.225-.69a1.209 1.209 0 00-.173-.68 1.566 1.566 0 00-.548-.541l-.12-.073a1.605 1.605 0 00-.733-.246c-.248-.018-.48.03-.695.143-.215.113-.394.28-.536.5l-.5.785zm2.484.796l-1.725-1.056.161-.252c.13-.204.297-.319.502-.343.205-.025.434.04.689.192l.137.084c.262.16.427.335.494.525.068.19.036.387-.094.592l-.164.258zM6.2 7.538l-.759.917.634.504.89-1.076.392.312L6.07 9.748 3.706 7.867l1.285-1.55.394.314-.889 1.073.564.448.76-.917.38.304zM7.732 7.77L5.73 5.52l.706-.604c.202-.173.422-.282.66-.329.239-.048.476-.028.712.06.235.088.446.236.632.445l.092.104c.186.209.308.432.364.67.058.238.047.47-.033.696-.08.226-.22.426-.42.599l-.71.608zM6.536 5.49l1.337 1.502.229-.195c.185-.159.273-.339.265-.541-.007-.202-.108-.414-.303-.636L7.96 5.5c-.204-.228-.406-.36-.608-.394-.202-.036-.396.026-.582.185l-.233.2zM11.086 5.181L9.75 2.5l.958-.46c.332-.159.615-.217.85-.174.232.042.41.183.53.424a.667.667 0 01.07.398.649.649 0 01-.178.357.65.65 0 01.434.05.687.687 0 01.313.324c.129.258.142.494.04.707-.101.213-.307.395-.616.547l-1.064.51zm-.018-1.438l.36.724.484-.231a.514.514 0 00.264-.241.35.35 0 00-.016-.312c-.123-.246-.315-.308-.576-.188l-.516.248zm-.195-.39l.417-.2c.282-.142.369-.321.26-.539-.06-.121-.14-.19-.24-.209-.098-.02-.224.008-.38.082l-.394.19.337.675zM14.304 2.076L14.523.61l.658-.19-.41 2.102.314 1.039-.612.177-.313-1.039-1.508-1.547.66-.191.992 1.115zM17.575 3.027l-.12-2.984 1.066-.04c.369-.015.652.044.848.176.197.13.3.33.311.597a.67.67 0 01-.1.392.663.663 0 01-.31.256.64.64 0 01.53.639c.012.287-.073.507-.253.662-.181.155-.444.24-.79.256l-1.183.046zm.575-1.323l.032.805.537-.02a.524.524 0 00.34-.116.353.353 0 00.114-.292c-.01-.273-.16-.407-.449-.4l-.575.023zm-.018-.435l.464-.018c.316-.017.47-.147.46-.389-.006-.135-.05-.23-.133-.286-.082-.057-.21-.083-.382-.076l-.44.017.031.752zM23.218 1.88a1.78 1.78 0 01-.27.743 1.188 1.188 0 01-.525.444c-.212.092-.444.12-.697.084a1.28 1.28 0 01-.643-.27 1.185 1.185 0 01-.382-.568 1.725 1.725 0 01-.053-.778l.022-.146c.042-.291.133-.54.271-.745.14-.207.317-.356.528-.446.214-.092.446-.12.697-.084.251.035.466.126.643.272.178.146.305.337.379.574.075.236.091.498.05.788l-.02.132zm-.61-.223c.045-.31.023-.553-.066-.73a.559.559 0 00-.45-.31.565.565 0 00-.517.172c-.136.142-.228.367-.274.674l-.021.144c-.044.302-.022.544.067.727.089.182.24.288.452.318a.56.56 0 00.515-.172c.136-.145.227-.372.273-.679l.021-.144zM26.294 2.812c-.095.279-.23.507-.402.683a1.2 1.2 0 01-.598.344c-.226.053-.46.04-.701-.04a1.268 1.268 0 01-.583-.38 1.175 1.175 0 01-.27-.627c-.032-.244-.001-.502.09-.774l.049-.14a1.79 1.79 0 01.404-.685c.176-.179.377-.294.602-.345.226-.052.46-.039.7.04.241.08.435.207.582.383.15.175.238.385.267.631.03.245-.001.506-.096.784l-.044.126zm-.558-.327c.101-.297.124-.54.069-.73a.553.553 0 00-.385-.384.567.567 0 00-.54.077c-.16.116-.292.32-.394.615l-.047.138c-.1.289-.122.53-.068.726a.551.551 0 00.386.393c.2.066.379.04.538-.078.16-.119.291-.325.393-.619l.048-.138zM27.645 3.716l-.455.148-.418.749-.55-.296 1.463-2.619.55.296-.663 1.187.424-.196 1.162-.496.676.364-1.598.654.163 1.98-.655-.352-.099-1.42zM31.468 3.982l-.836 2.147 2.024-1.155.627.524-1.973 2.274-.48-.4.54-.622.979-1.033-2.097 1.172-.328-.274.845-2.214-.882 1.112-.54.621-.477-.398 1.973-2.275.625.521zM33.139 9.018l-.68-.848-.622.218-.412-.515 3.096-.969.358.449-1.691 2.723-.412-.515.363-.543zm-.175-1.025l.47.587.66-.985-1.13.398zM34.925 10.65l-.462-.124-.77.397-.292-.544 2.695-1.39.292.545-1.222.63.464.066 1.247.217.36.67-1.701-.321-.98 1.738-.348-.649.718-1.236zM36.59 14.338l-.37-1.124-.776.246.435 1.32-.48.152-.628-1.905 2.898-.918.626 1.9-.483.154-.434-1.316-.69.22.37 1.123-.468.149zM36.824 16.357l-.073-.485-1.102.159-.091-.61 3.013-.432.163 1.098c.053.35.014.63-.117.842-.13.212-.34.339-.63.38a.954.954 0 01-.535-.057.909.909 0 01-.386-.35l-1.136.817-.029.004-.097-.653 1.02-.713zm.43-.557l.074.491c.022.153.08.266.17.338a.44.44 0 00.348.079.46.46 0 00.318-.168c.07-.09.092-.217.068-.38l-.073-.49-.905.13zM36.952 20.856l.058-.487-1.107-.127.072-.611 3.025.346-.131 1.102c-.042.35-.154.612-.336.784-.182.172-.418.241-.709.208a.947.947 0 01-.501-.192.897.897 0 01-.281-.435l-1.313.5-.029-.003.078-.656 1.174-.43zm.563-.43l-.06.494a.503.503 0 00.077.37c.07.093.175.148.315.164.143.016.26-.011.35-.082.092-.07.147-.186.167-.35l.058-.491-.907-.104zM35.706 24.298l.322-1.031-.538-.377.195-.625 2.58 1.938-.171.545-3.246.193.196-.625.662-.018zm.758-.726l-.223.713 1.202-.03-.979-.683zM35.95 28.38l.419-.816-2.266-1.119.282-.55 2.266 1.12.414-.807.454.224-1.116 2.173-.454-.224zM33.022 28.216l.349-.51 2.53 1.66-.349.511-2.53-1.66zM31.088 30.544l.413-.463 2.312.396-1.506-1.296.414-.462 2.289 1.97-.414.462-2.316-.397 1.509 1.299-.413.46-2.288-1.97zM29.098 32.645a1.06 1.06 0 01.18-.534 2 2 0 01.469-.502c.206-.16.423-.257.65-.29.228-.032.452.003.673.105.22.104.423.268.608.494l.129.159c.188.234.311.467.369.7.057.233.047.454-.031.661-.079.21-.22.393-.423.55-.283.22-.558.325-.825.316-.266-.008-.516-.127-.75-.357l.48-.372c.13.117.257.178.383.182a.594.594 0 00.383-.146.542.542 0 00.233-.482c-.012-.19-.115-.409-.31-.653l-.121-.15c-.198-.245-.396-.394-.592-.445-.196-.052-.386-.007-.57.136-.185.143-.285.284-.302.422l.326.404.448-.347.286.355-.94.73-.753-.936zM27.392 34.087c.056.102.136.16.24.175.104.016.268.003.492-.04.226-.04.41-.06.554-.061.393-.002.665.134.817.407.078.141.108.289.089.443a.886.886 0 01-.206.448 1.507 1.507 0 01-.462.368c-.191.102-.38.16-.568.17a.927.927 0 01-.506-.1.86.86 0 01-.36-.355l.552-.295c.067.12.157.193.27.218a.547.547 0 00.382-.073.57.57 0 00.267-.252.293.293 0 00-.01-.28c-.048-.085-.13-.133-.25-.145a1.74 1.74 0 00-.477.045c-.365.075-.657.083-.876.022a.793.793 0 01-.5-.396.71.71 0 01-.034-.676c.104-.222.304-.412.6-.57a1.59 1.59 0 01.623-.19c.21-.016.396.016.557.097.16.081.286.207.38.376l-.553.295c-.16-.29-.417-.34-.77-.151a.586.586 0 00-.263.241.288.288 0 00.012.279z" fill="#07E"></path></svg>