<svg data-v-3a7b5934="" xmlns="http://www.w3.org/2000/svg" viewBox="0 0 22 22" aria-hidden="true" role="img" fill='white' icon="navigation/casino" square="">
    <path d="M10.956 0C4.915 0 0 4.915 0 10.956c0 6.041 4.915 10.956 10.956 10.956 6.041 0 10.956-4.915 10.956-10.956C21.912 4.915 16.997 0 10.956 0zm-.881.853h1.7v1.7h-1.7v-1.7zm8.532 10.103c0 4.22-3.432 7.651-7.651 7.651-4.219 0-7.651-3.432-7.651-7.651 0-4.219 3.432-7.651 7.651-7.651 4.219 0 7.651 3.432 7.651 7.651zM4.413 3.211l1.202 1.202-1.202 1.202-1.202-1.202 1.202-1.202zm-1.892 8.595h-1.7v-1.7h1.7v1.7zM4.413 18.7l-1.202-1.202 1.202-1.202L5.615 17.5l-1.202 1.202zm7.361 2.358h-1.7v-1.7h1.7v1.7zm5.725-2.358l-1.202-1.202 1.202-1.202 1.202 1.202-1.202 1.202zm0-13.086l-1.202-1.202L17.5 3.211l1.202 1.202L17.5 5.615zm1.829 6.19v-1.699h1.7v1.7h-1.7z">
    </path>
    <path d="M4.72 10.956a6.242 6.242 0 006.236 6.235 6.242 6.242 0 006.235-6.235 6.242 6.242 0 00-6.235-6.235 6.242 6.242 0 00-6.235 6.235zm9.217-.529a2.5 2.5 0 01.39 1.41c0 1.249-.882 1.92-1.884 1.92-.684 0-1.073-.323-1.286-.591l.363 1.284h-1.14l.355-1.255c-.219.26-.602.588-1.26.588-1.003 0-1.89-.685-1.89-1.934 0-.505.093-.943.387-1.422.459-.746 2.99-2.893 2.99-2.893s2.517 2.147 2.975 2.893z">
    </path>
</svg>