<svg data-v-3a7b5934="" xmlns="http://www.w3.org/2000/svg" viewBox="0 0 18 13" aria-hidden="true" role="img" fill='white' icon="navigation/games" square="">
    <path d="M17.179 5.66C16.318 1.725 15.104.754 14.365.365 13.181-.258 11.81.105 11.354.34c-.517.265-.866.77-1.391.99-.607.253-1.433.321-2.054.016-.495-.243-.932-.763-1.531-.993-.76-.293-2.026-.703-3.28.193C2.802.758.688 2.526.054 8.047c-.392 3.405 1.48 4.5 1.41 4.45.482.345 1.56.927 3.02.015.977-.608 1.769-1.81 1.769-1.81s.353-.67.821-.954c.332-.201.829-.048.829-.048h1.756s.557-.07.949.102c.38.166.595.575.595.575s1.157 1.492 2.267 2.253c.472.323 2.37.695 3.35-.5.64-.781 1.077-3.184.359-6.47zm-9.383-.348c0 .299-.238.54-.532.54h-1.33v1.356c0 .3-.238.542-.532.542h-.4a.537.537 0 01-.531-.542V5.853H3.14a.536.536 0 01-.532-.541v-.406c0-.3.238-.543.532-.543h1.33V3.01c0-.3.239-.542.532-.542h.4c.293 0 .531.242.531.542v1.354h1.33c.295 0 .533.242.533.542v.406zm3.748 1.895c-.551 0-.998-.454-.998-1.016 0-.56.447-1.015.998-1.015.551 0 .998.454.998 1.015 0 .562-.447 1.016-.998 1.016zm1.83-2.256a.996.996 0 01-.987-1.005.995.995 0 01.986-1.003c.545 0 .987.45.987 1.003a.996.996 0 01-.987 1.005z">
    </path>
</svg>