<svg id="Слой_1" data-name="Слой 1" xmlns="http://www.w3.org/2000/svg" viewBox="0 0 35 35"><defs><style>.cls-1{fill:#fff;}</style></defs><title>icons</title><path class="cls-1" d="M29.67,7c-.76-.94-3.51-1.52-6.54-1.37h0a.14.14,0,0,0-.12.2l.46.93s0,.06.06.07h.09c3-.15,4.67.45,5.11.89s.89,2.39.57,4.95a.39.39,0,0,0,0,.17s.08.07.08.07l.8.49a.14.14,0,0,0,.21-.1h0C30.75,10.57,30.45,8,29.67,7Z"/><path class="cls-1" d="M4.36,30.07c-.86-.88-1.1-3.71-.57-6.74h0A.14.14,0,0,1,4,23.24l.88.57s.05,0,.06.07a.57.57,0,0,1,0,.09c-.51,3-.12,4.74.27,5.24s2.29,1.18,4.9,1.18a.39.39,0,0,1,.17,0,.21.21,0,0,1,.06.09l.39.86a.14.14,0,0,1-.13.2h0C7.81,31.59,5.24,31,4.36,30.07Z"/><path class="cls-1" d="M25.13,10.61a18,18,0,0,1-3.37-4.83A20.72,20.72,0,0,0,9.84,11.05a20.36,20.36,0,0,0-5.76,11A19.83,19.83,0,0,1,9,26.16a21.68,21.68,0,0,1,3.41,5.27,20.3,20.3,0,0,0,11.77-5.14,18,18,0,0,0,6.16-11.53A21.4,21.4,0,0,1,25.13,10.61Zm-4.06,5h0l-1.15,1.05,1.7,1.85a.59.59,0,1,1-.87.8l-1.7-1.85-1.47,1.35,1.65,1.8a.59.59,0,0,1-.87.8l-1.65-1.8L15.24,21l1.65,1.8a.59.59,0,1,1-.87.8l-1.65-1.8-1.15,1a.59.59,0,0,1-.8-.87h0l1.14-1-1.67-1.82a.59.59,0,1,1,.87-.8l1.67,1.82,1.47-1.35L14.24,17a.59.59,0,0,1,.87-.8L16.79,18l1.47-1.35-1.62-1.77a.59.59,0,0,1,.87-.8l1.63,1.77,1.15-1.05a.59.59,0,0,1,.8.87Z"/></svg>