<svg id="Слой_1" data-name="Слой 1" xmlns="http://www.w3.org/2000/svg" viewBox="0 0 35 35"><defs><style>.cls-1{fill:#fff;}</style></defs><title>icons</title><path class="cls-1" d="M30.14,6.51c-3.4-3.6-9.45-3.4-13.52.45a10.29,10.29,0,0,0-3.23,9.64s0,0,0,0c.19,1,.8,3.39-2.27,6.6l-.05,0c-1,.85-1.67.62-2,.92L4.59,28.55,3.23,29.89a.27.27,0,0,0,0,.38l1,1,1,1a.27.27,0,0,0,.38,0l1.48-1.43,4.43-4.27c.31-.31.18-.9,1-2a.29.29,0,0,0,0-.08c3.2-2.83,5.19-2.2,6.48-1.94h0A10.4,10.4,0,0,0,28.92,20C33,16.14,33.53,10.11,30.14,6.51Zm-.39,8.83-1.62-1.71,2.31-2.18A8.06,8.06,0,0,1,29.75,15.34Zm-12.69,4.2,1.2-1.14.36.39a.49.49,0,0,0,.71-.67L19,17.73,20.5,16.3,22.09,18l-2.93,2.77A5.93,5.93,0,0,1,17.06,19.55Zm-1.81-3.08.62-.59,1.72,1.82-1.21,1.14A6,6,0,0,1,15.25,16.47ZM17.7,8.77l2,2.12-1.57,1.48L16.65,10.8a.49.49,0,0,0-.38-.15A9.85,9.85,0,0,1,17.7,8.77Zm2.64-2,1.74,1.84-1.66,1.56-2-2.12A9.8,9.8,0,0,1,20.34,6.82Zm8.14.58-1.1,1-.82-.87a.49.49,0,0,0-.71.67l.82.87-1.48,1.39L23.47,8.7l2.71-2.56A6,6,0,0,1,28.48,7.4Zm-4,3.79-1.66,1.56L21.1,10.94l1.66-1.56Zm-4.09.42,1.72,1.82-1.57,1.48-1.72-1.82Zm-.56,4L18.3,17,16.59,15.2l1.52-1.43Zm1.39,0,1.57-1.48,1.59,1.69L22.8,17.31Zm2.28-2.16,1.66-1.56,1.59,1.69-1.66,1.56Zm2.37-2.24,1.48-1.39,1.59,1.69-1.48,1.39Zm4.38-.94-.6.56L28,9.16l1.1-1A5.93,5.93,0,0,1,30.24,10.28ZM25,5.9,22.79,8,21.3,6.4A8.14,8.14,0,0,1,25,5.9Zm-9.11,5.5.06.07,1.49,1.58-2.35,2.22A8.19,8.19,0,0,1,15.88,11.4ZM20.31,21l2.45-2.32,1.67,1.77A8.12,8.12,0,0,1,20.31,21Zm7.2-2.52A9.93,9.93,0,0,1,25.38,20l-1.9-2L25,16.54l1.09,1.15a.49.49,0,0,0,.71-.67l-1.09-1.15,1.66-1.56,1.86,2A9.91,9.91,0,0,1,27.51,18.5Z"/><circle class="cls-1" cx="7.19" cy="8.35" r="2.8" transform="matrix(1, -0.03, 0.03, 1, -0.22, 0.2)"/></svg>