<svg id="Слой_1" data-name="Слой 1" xmlns="http://www.w3.org/2000/svg" viewBox="0 0 35 35"><defs><style>.cls-1{fill:#fff;}</style></defs><title>icons</title><path class="cls-1" d="M17.71,3A14.89,14.89,0,0,0,2.62,17.91,15.14,15.14,0,0,0,17.75,33a15,15,0,1,0,0-30Zm4,19.38,0,.07,0,.05c1,1.09,3.5,4,3.58,4.05l0,.1,4.21-1.28a13.91,13.91,0,0,1-7.2,5.8c2-3.89,2-3.89,1.89-4l-3.49-4,0,0H14.83l-3.22,3.95,1.61,4.1A13.93,13.93,0,0,1,6,25.52l4.6.66h.07l3.24-3.58,0-.05-1.61-5.81,0-.07-.06,0c-1.82-.58-5-1.65-5-1.66l-.06,0-.05,0c-1.08.77-2.49,1.65-3.22,2.1a13.78,13.78,0,0,1,2.64-7.2c1,4.06,1,4.09,1.1,4.11l0,0c.4.15,3.58,1.24,4.8,1.65l.07,0,4.7-3.82,0,0v-.06s0-3.54,0-4.09V7.65L13.28,5A13.66,13.66,0,0,1,22.37,5l-4,2.57,0,4.25v.06l4.75,3.78,5-1.74L29,10a13.74,13.74,0,0,1,2.61,7.79l-3-2.86-.06-.05-5.15,1.79Z"/></svg>