<svg xmlns="http://www.w3.org/2000/svg" fill='white' viewBox="0 0 19 23" aria-hidden="true" role="img" class="icon icon-ios FooterMobileApps_icon_IQ5EC" style="--vicon-with-gradient-problem__size:23px;" icon="ios" size="23"><path d="M15.86 11.93c-.01-1.85.827-3.246 2.52-4.275-.947-1.355-2.379-2.101-4.269-2.247-1.789-.141-3.744 1.043-4.46 1.043-.756 0-2.49-.993-3.85-.993C2.989 5.503 0 7.701 0 12.171c0 1.32.242 2.686.726 4.092.645 1.85 2.973 6.386 5.402 6.31 1.27-.03 2.167-.902 3.82-.902 1.603 0 2.435.902 3.85.902 2.45-.035 4.557-4.158 5.172-6.012-3.286-1.547-3.11-4.536-3.11-4.632zm-2.852-8.276C14.384 2.02 14.258.534 14.218 0c-1.215.07-2.621.827-3.423 1.759-.882.998-1.4 2.233-1.29 3.623 1.315.101 2.515-.574 3.503-1.728z"></path></svg>