<svg data-v-3a7b5934="" xmlns="http://www.w3.org/2000/svg" viewBox="0 0 20 20" aria-hidden="true" role="img" fill='white' icon="navigation/live" square="">
    <path d="M18.97 3.677h-6.387c-.133-.399-.433-.698-.765-.898L14.213.584a.356.356 0 00.033-.466c-.1-.133-.333-.133-.466-.033L11.153 2.48c-.765-.2-1.53-.2-2.296 0L6.23.085c-.134-.133-.333-.1-.466.033s-.1.333.033.466l2.395 2.195a1.76 1.76 0 00-.798.898H1.007a.98.98 0 00-.998.998v11.31a.98.98 0 00.998.998H18.97a.98.98 0 00.998-.998V4.675a.98.98 0 00-.998-.998zm0 11.975c0 .2-.133.333-.333.333H1.34c-.2 0-.333-.133-.333-.333V5.008c0-.2.133-.333.333-.333h17.297c.2 0 .333.133.333.333v10.644zM14.313 18.646h-1.996v-.998H7.66v.998H5.997c-.932 0-1.664.067-1.664.998 0 .2.133.333.333.333h10.977c.2 0 .333-.133.333-.333 0-.931-.732-.998-1.663-.998z">
    </path>
</svg>