<svg data-v-61f34b8f="" width="20" height="20" viewBox="0 0 20 20" fill="none" xmlns="http://www.w3.org/2000/svg" aria-hidden="true" role="img" class="section__icon icon icon-casino-section-crown sm" icon="casino/section/crown" data-v-17ecb862=""><defs><linearGradient id="crown_svg__a" x1="-.673" y1="-3.929" x2="-17.983" y2="12.726" gradientUnits="userSpaceOnUse"><stop offset="0" stop-color="#B620E0"></stop><stop offset=".365" stop-color="#F7B500"></stop></linearGradient><linearGradient id="crown_svg__b" x1="9.338" y1="-3.929" x2="-7.973" y2="12.724" gradientUnits="userSpaceOnUse"><stop offset="0" stop-color="#B620E0"></stop><stop offset=".365" stop-color="#F7B500"></stop></linearGradient><linearGradient id="crown_svg__c" x1="9.338" y1="-3.929" x2="-7.973" y2="12.724" gradientUnits="userSpaceOnUse"><stop offset="0" stop-color="#B620E0"></stop><stop offset=".365" stop-color="#F7B500"></stop></linearGradient><linearGradient id="crown_svg__d" x1="-14.487" y1="-17.726" x2="-49.997" y2="44.355" gradientUnits="userSpaceOnUse"><stop offset="0" stop-color="#B620E0"></stop><stop offset=".365" stop-color="#F7B500"></stop></linearGradient><linearGradient id="crown_svg__e" x1="2.756" y1="-17.726" x2="-38.07" y2="17.96" gradientUnits="userSpaceOnUse"><stop offset="0" stop-color="#B620E0"></stop><stop offset=".365" stop-color="#F7B500"></stop></linearGradient><linearGradient id="crown_svg__f" x1="2.756" y1="-17.726" x2="-38.07" y2="17.96" gradientUnits="userSpaceOnUse"><stop offset="0" stop-color="#B620E0"></stop><stop offset=".365" stop-color="#F7B500"></stop></linearGradient></defs><path d="M2.7 9.215l.866-4.373c.1-.5.74-.648 1.043-.24l2.565 3.455c.408.549-.096.676-1.784 2.779-2.235-1.108-2.834-.89-2.69-1.62z" fill="#94A6CD"></path><path d="M2.7 9.215l.866-4.373c.1-.5.74-.648 1.043-.24l2.565 3.455c.408.549-.096.676-1.784 2.779-2.235-1.108-2.834-.89-2.69-1.62z" fill="#94A6CD"></path><path d="M2.7 9.215l.866-4.373c.1-.5.74-.648 1.043-.24l2.565 3.455c.408.549-.096.676-1.784 2.779-2.235-1.108-2.834-.89-2.69-1.62z" fill="url(#crown_svg__a)"></path><path d="M14.647 10.836c-1.697-2.057-2.24-2.216-1.823-2.779l2.565-3.454a.584.584 0 011.044.239l.866 4.373c.15.761-.574.57-2.652 1.62z" fill="#94A6CD"></path><path d="M14.647 10.836c-1.697-2.057-2.24-2.216-1.823-2.779l2.565-3.454a.584.584 0 011.044.239l.866 4.373c.15.761-.574.57-2.652 1.62z" fill="url(#crown_svg__b)"></path><path d="M14.647 10.836c-1.697-2.057-2.24-2.216-1.823-2.779l2.565-3.454a.584.584 0 011.044.239l.866 4.373c.15.761-.574.57-2.652 1.62z" fill="#94A6CD"></path><path d="M14.647 10.836c-1.697-2.057-2.24-2.216-1.823-2.779l2.565-3.454a.584.584 0 011.044.239l.866 4.373c.15.761-.574.57-2.652 1.62z" fill="url(#crown_svg__c)"></path><path d="M19.063 6.85l-4.195 3.152-4.36-7.704A.578.578 0 0010 2a.58.58 0 00-.509.298l-4.359 7.704L.937 6.85c-.442-.332-1.053.083-.918.621l1.601 6.363 1.06.644-.762.54.484 1.92c.066.263.3.447.568.447h14.06a.587.587 0 00.568-.446l.484-1.921-.466-.592.763-.592 1.602-6.363c.135-.54-.477-.952-.918-.62z" fill="#94A6CD"></path><path d="M19.063 6.85l-4.195 3.152-4.36-7.704A.578.578 0 0010 2a.58.58 0 00-.509.298l-4.359 7.704L.937 6.85c-.442-.332-1.053.083-.918.621l1.601 6.363 1.06.644-.762.54.484 1.92c.066.263.3.447.568.447h14.06a.587.587 0 00.568-.446l.484-1.921-.466-.592.763-.592 1.602-6.363c.135-.54-.477-.952-.918-.62z" fill="url(#crown_svg__d)"></path><path d="M19.98 7.471l-1.601 6.363-.764.592.466.592-.484 1.92a.587.587 0 01-.568.447H10V2c.199 0 .397.1.509.298l4.359 7.704 4.195-3.152c.441-.33 1.053.082.918.621z" fill="#94A6CD"></path><path d="M19.98 7.471l-1.601 6.363-.764.592.466.592-.484 1.92a.587.587 0 01-.568.447H10V2c.199 0 .397.1.509.298l4.359 7.704 4.195-3.152c.441-.33 1.053.082.918.621z" fill="url(#crown_svg__e)"></path><path d="M19.98 7.471l-1.601 6.363-.764.592.466.592-.484 1.92a.587.587 0 01-.568.447H10V2c.199 0 .397.1.509.298l4.359 7.704 4.195-3.152c.441-.33 1.053.082.918.621z" fill="#94A6CD"></path><path d="M19.98 7.471l-1.601 6.363-.764.592.466.592-.484 1.92a.587.587 0 01-.568.447H10V2c.199 0 .397.1.509.298l4.359 7.704 4.195-3.152c.441-.33 1.053.082.918.621z" fill="url(#crown_svg__f)"></path><path opacity=".4" d="M12.26 11.162l-1.758-2.958A.579.579 0 0010 7.916a.58.58 0 00-.503.288L7.74 11.162a.597.597 0 000 .61l1.758 2.958a.581.581 0 001.005 0l1.757-2.959a.597.597 0 000-.609z" fill="#fff"></path><path d="M12.258 11.772l-1.757 2.958a.581.581 0 01-.502.288V7.917c.194 0 .387.095.502.287l1.757 2.959a.597.597 0 010 .609z" fill="#fff"></path></svg>