<svg xmlns="http://www.w3.org/2000/svg" width="100" height="95.0694" viewBox="0 0 26.4583 25.1538"><path d="M21.3899 6.2982c-1.5733-.5644-4.2432-.4307-4.2432-.4307v19.1172h2.3453v-5.7715h.6731s1.0858 3.104 2.5723 4.3412c1.2258 1.0282 3.721 1.5994 3.721 1.5994v-2.3386s-1.8459-.5712-2.9382-1.7387c-.7329-.7826-1.0651-1.3606-1.3963-2.3991 2.316-1.0545 3.6504-3.1337 3.6819-6.0651.0358-3.9333-2.0413-5.4608-4.4159-6.3141zm2.1868 5.8983c.0087 4.4554-4.0858 4.468-4.0847 4.468V8.239s4.0695.2445 4.0814 3.9585zM14.8904 0l-.0022 24.9847h-2.342v-6.9333H4.126c-.2812.7642-1.1358 4.6976-1.5201 6.9333H0s1.1422-9.1668 5.0804-15.2741C8.835 3.8842 14.8904 0 14.8904 0zM4.9197 15.5872h7.6265V4.9627c-1.8719 1.6827-5.646 4.5422-7.6265 10.6245z" fill="#06357a" fill-rule="nonzero" stroke-width=".6082"/></svg>