<?xml version="1.0" encoding="utf-8"?>
<!-- Generator: Adobe Illustrator 15.0.2, SVG Export Plug-In . SVG Version: 6.00 Build 0)  -->
<!DOCTYPE svg PUBLIC "-//W3C//DTD SVG 1.1//EN" "http://www.w3.org/Graphics/SVG/1.1/DTD/svg11.dtd">
<svg version="1.1" id="Layer_1" xmlns="http://www.w3.org/2000/svg" xmlns:xlink="http://www.w3.org/1999/xlink" x="0px" y="0px"
	 width="3456px" height="864px" viewBox="0 0 3456 864" enable-background="new 0 0 3456 864" xml:space="preserve">
<g>
	<defs>
		<circle id="SVGID_1_" cx="352.579" cy="362.126" r="316.579"/>
	</defs>
	<clipPath id="SVGID_2_">
		<use xlink:href="#SVGID_1_"  overflow="visible"/>
	</clipPath>
	
		<radialGradient id="SVGID_3_" cx="1.0703" cy="865.0938" r="0.9992" gradientTransform="matrix(502.5066 0 0 -502.5066 -192.1472 434793.8438)" gradientUnits="userSpaceOnUse">
		<stop  offset="0" style="stop-color:#ED1C24"/>
		<stop  offset="0.3925" style="stop-color:#EB1D25"/>
		<stop  offset="0.55" style="stop-color:#E51E26"/>
		<stop  offset="0.6654" style="stop-color:#DD2027"/>
		<stop  offset="0.7602" style="stop-color:#D1232A"/>
		<stop  offset="0.8423" style="stop-color:#C2272D"/>
		<stop  offset="0.9157" style="stop-color:#B02A30"/>
		<stop  offset="0.9811" style="stop-color:#9A2E33"/>
		<stop  offset="1" style="stop-color:#932F34"/>
	</radialGradient>
	<rect x="36" y="45.547" clip-path="url(#SVGID_2_)" fill="url(#SVGID_3_)" width="633.158" height="633.158"/>
</g>
<g>
	<defs>
		<path id="SVGID_4_" d="M115.577,343.866c0,130.892,106.109,237.001,237.002,237.001s237.002-106.109,237.002-237.001
			c0-130.893-106.109-237.003-237.002-237.003S115.577,212.973,115.577,343.866"/>
	</defs>
	<clipPath id="SVGID_5_">
		<use xlink:href="#SVGID_4_"  overflow="visible"/>
	</clipPath>
	
		<radialGradient id="SVGID_6_" cx="1.0952" cy="865.127" r="1" gradientTransform="matrix(373.4475 0 0 -373.4475 -50.1916 323234.25)" gradientUnits="userSpaceOnUse">
		<stop  offset="0" style="stop-color:#FFFFFF"/>
		<stop  offset="0.4854" style="stop-color:#FCFCFC"/>
		<stop  offset="0.6802" style="stop-color:#F4F5F5"/>
		<stop  offset="0.8228" style="stop-color:#EAEBEC"/>
		<stop  offset="0.9393" style="stop-color:#DCDDDE"/>
		<stop  offset="1" style="stop-color:#D1D3D4"/>
	</radialGradient>
	<rect x="115.577" y="106.863" clip-path="url(#SVGID_5_)" fill="url(#SVGID_6_)" width="474.004" height="474.004"/>
</g>
<g>
	<defs>
		<path id="SVGID_7_" d="M129.797,343.866c0,123.039,99.743,222.781,222.782,222.781s222.782-99.742,222.782-222.781
			s-99.743-222.782-222.782-222.782S129.797,220.827,129.797,343.866"/>
	</defs>
	<clipPath id="SVGID_8_">
		<use xlink:href="#SVGID_7_"  overflow="visible"/>
	</clipPath>
	
		<radialGradient id="SVGID_9_" cx="1.0986" cy="865.1328" r="1" gradientTransform="matrix(353.6219 0 0 -353.6219 -40.993 306074.0313)" gradientUnits="userSpaceOnUse">
		<stop  offset="0" style="stop-color:#ED1C24"/>
		<stop  offset="0.3925" style="stop-color:#EB1D25"/>
		<stop  offset="0.55" style="stop-color:#E51E26"/>
		<stop  offset="0.6654" style="stop-color:#DD2027"/>
		<stop  offset="0.7602" style="stop-color:#D1232A"/>
		<stop  offset="0.8423" style="stop-color:#C2272D"/>
		<stop  offset="0.9157" style="stop-color:#B02A30"/>
		<stop  offset="0.9811" style="stop-color:#9A2E33"/>
		<stop  offset="1" style="stop-color:#932F34"/>
	</radialGradient>
	<rect x="129.797" y="121.084" clip-path="url(#SVGID_8_)" fill="url(#SVGID_9_)" width="445.564" height="445.563"/>
</g>
<g>
	<defs>
		<path id="SVGID_10_" d="M144.102,343.866c0,115.138,93.338,208.477,208.477,208.477c115.139,0,208.477-93.339,208.477-208.477
			c0-115.139-93.338-208.478-208.477-208.478C237.44,135.388,144.102,228.727,144.102,343.866"/>
	</defs>
	<clipPath id="SVGID_11_">
		<use xlink:href="#SVGID_10_"  overflow="visible"/>
	</clipPath>
	
		<radialGradient id="SVGID_12_" cx="1.1069" cy="865.1436" r="1" gradientTransform="matrix(328.5012 0 0 -328.5012 -5.5578 284378)" gradientUnits="userSpaceOnUse">
		<stop  offset="0" style="stop-color:#FFFFFF"/>
		<stop  offset="0.4854" style="stop-color:#FCFCFC"/>
		<stop  offset="0.6802" style="stop-color:#F4F5F5"/>
		<stop  offset="0.8228" style="stop-color:#EAEBEC"/>
		<stop  offset="0.9393" style="stop-color:#DCDDDE"/>
		<stop  offset="1" style="stop-color:#D1D3D4"/>
	</radialGradient>
	<rect x="144.102" y="135.388" clip-path="url(#SVGID_11_)" fill="url(#SVGID_12_)" width="416.954" height="416.955"/>
</g>
<g>
	<defs>
		<rect id="SVGID_13_" x="36" y="45.547" width="3384" height="772.453"/>
	</defs>
	<clipPath id="SVGID_14_">
		<use xlink:href="#SVGID_13_"  overflow="visible"/>
	</clipPath>
	<path clip-path="url(#SVGID_14_)" d="M347.797,490.36c25.504,0,44.379-1.069,56.632-3.211c12.251-2.139,22.691-5.75,31.317-10.835
		c12.751-7.355,22.658-17.724,29.722-31.101c7.061-13.375,10.595-28.357,10.595-44.945c0-16.986-4.251-31.201-12.751-42.638
		c-8.503-11.437-20.754-19.363-36.755-23.777c14-5.618,24.407-13.61,31.223-23.977c6.812-10.365,10.22-23.508,10.22-39.428
		c0-25.683-7.66-44.71-22.972-57.085c-15.315-12.371-39.037-18.56-71.165-18.56H239.784V490.36H347.797z M307.48,366.358h60.57
		c12.751,0,22.344,2.709,28.785,8.127c6.437,5.417,9.657,13.478,9.657,24.178c0,11.907-3.375,20.366-10.126,25.382
		c-6.751,5.017-18.565,7.524-35.442,7.524H307.48V366.358z M307.48,254.396h59.82c10.75,0,18.875,2.307,24.378,6.922
		c5.499,4.615,8.251,11.406,8.251,20.366c0,9.631-2.939,16.824-8.814,21.57c-5.877,4.75-14.814,7.123-26.816,7.123H307.48V254.396z"
		/>
</g>
<g>
	<defs>
		<path id="SVGID_15_" d="M723.711,501.421C723.711,676.263,865.448,818,1040.289,818c174.842,0,316.58-141.737,316.58-316.579
			s-141.738-316.579-316.58-316.579C865.448,184.842,723.711,326.579,723.711,501.421"/>
	</defs>
	<clipPath id="SVGID_16_">
		<use xlink:href="#SVGID_15_"  overflow="visible"/>
	</clipPath>
	
		<radialGradient id="SVGID_17_" cx="1.0703" cy="865.0938" r="0.9992" gradientTransform="matrix(502.5066 0 0 -502.5066 495.3528 434933.3438)" gradientUnits="userSpaceOnUse">
		<stop  offset="0" style="stop-color:#00AEEF"/>
		<stop  offset="0.3474" style="stop-color:#00ACED"/>
		<stop  offset="0.4868" style="stop-color:#00A8E9"/>
		<stop  offset="0.589" style="stop-color:#00A2E3"/>
		<stop  offset="0.6729" style="stop-color:#009ADA"/>
		<stop  offset="0.7457" style="stop-color:#0090D0"/>
		<stop  offset="0.8108" style="stop-color:#0083C3"/>
		<stop  offset="0.8701" style="stop-color:#0074B5"/>
		<stop  offset="0.9249" style="stop-color:#0062A6"/>
		<stop  offset="0.974" style="stop-color:#0D4E97"/>
		<stop  offset="1" style="stop-color:#25408F"/>
	</radialGradient>
	<rect x="723.711" y="184.842" clip-path="url(#SVGID_16_)" fill="url(#SVGID_17_)" width="633.158" height="633.158"/>
</g>
<g>
	<defs>
		<path id="SVGID_18_" d="M803.288,483.16c0,130.893,106.109,237.002,237.001,237.002c130.893,0,237.003-106.109,237.003-237.002
			c0-130.892-106.11-237.001-237.003-237.001C909.397,246.159,803.288,352.268,803.288,483.16"/>
	</defs>
	<clipPath id="SVGID_19_">
		<use xlink:href="#SVGID_18_"  overflow="visible"/>
	</clipPath>
	
		<radialGradient id="SVGID_20_" cx="1.0947" cy="865.1279" r="1.0008" gradientTransform="matrix(373.4475 0 0 -373.4475 637.3083 323373.75)" gradientUnits="userSpaceOnUse">
		<stop  offset="0" style="stop-color:#FFFFFF"/>
		<stop  offset="0.4854" style="stop-color:#FCFCFC"/>
		<stop  offset="0.6802" style="stop-color:#F4F5F5"/>
		<stop  offset="0.8228" style="stop-color:#EAEBEC"/>
		<stop  offset="0.9393" style="stop-color:#DCDDDE"/>
		<stop  offset="1" style="stop-color:#D1D3D4"/>
	</radialGradient>
	<rect x="803.288" y="246.159" clip-path="url(#SVGID_19_)" fill="url(#SVGID_20_)" width="474.004" height="474.003"/>
</g>
<g>
	<defs>
		<path id="SVGID_21_" d="M817.508,483.16c0,123.039,99.742,222.782,222.781,222.782s222.783-99.743,222.783-222.782
			s-99.744-222.781-222.783-222.781S817.508,360.121,817.508,483.16"/>
	</defs>
	<clipPath id="SVGID_22_">
		<use xlink:href="#SVGID_21_"  overflow="visible"/>
	</clipPath>
	
		<radialGradient id="SVGID_23_" cx="1.0986" cy="865.1328" r="1.0007" gradientTransform="matrix(353.6219 0 0 -353.6219 646.507 306213.5313)" gradientUnits="userSpaceOnUse">
		<stop  offset="0" style="stop-color:#00AEEF"/>
		<stop  offset="0.3474" style="stop-color:#00ACED"/>
		<stop  offset="0.4868" style="stop-color:#00A8E9"/>
		<stop  offset="0.589" style="stop-color:#00A2E3"/>
		<stop  offset="0.6729" style="stop-color:#009ADA"/>
		<stop  offset="0.7457" style="stop-color:#0090D0"/>
		<stop  offset="0.8108" style="stop-color:#0083C3"/>
		<stop  offset="0.8701" style="stop-color:#0074B5"/>
		<stop  offset="0.9249" style="stop-color:#0062A6"/>
		<stop  offset="0.974" style="stop-color:#0D4E97"/>
		<stop  offset="1" style="stop-color:#25408F"/>
	</radialGradient>
	<rect x="817.508" y="260.379" clip-path="url(#SVGID_22_)" fill="url(#SVGID_23_)" width="445.564" height="445.563"/>
</g>
<g>
	<defs>
		<path id="SVGID_24_" d="M831.812,483.16c0,115.139,93.339,208.478,208.477,208.478c115.139,0,208.478-93.339,208.478-208.478
			c0-115.138-93.339-208.477-208.478-208.477C925.151,274.683,831.812,368.022,831.812,483.16"/>
	</defs>
	<clipPath id="SVGID_25_">
		<use xlink:href="#SVGID_24_"  overflow="visible"/>
	</clipPath>
	
		<radialGradient id="SVGID_26_" cx="1.1069" cy="865.1436" r="0.9992" gradientTransform="matrix(328.5012 0 0 -328.5012 682.1921 284517.5)" gradientUnits="userSpaceOnUse">
		<stop  offset="0" style="stop-color:#FFFFFF"/>
		<stop  offset="0.4854" style="stop-color:#FCFCFC"/>
		<stop  offset="0.6802" style="stop-color:#F4F5F5"/>
		<stop  offset="0.8228" style="stop-color:#EAEBEC"/>
		<stop  offset="0.9393" style="stop-color:#DCDDDE"/>
		<stop  offset="1" style="stop-color:#D1D3D4"/>
	</radialGradient>
	<rect x="831.812" y="274.683" clip-path="url(#SVGID_25_)" fill="url(#SVGID_26_)" width="416.955" height="416.955"/>
</g>
<rect x="1005.035" y="336.02" width="70.509" height="295.557"/>
<g>
	<defs>
		<circle id="SVGID_27_" cx="1728" cy="362.126" r="316.579"/>
	</defs>
	<clipPath id="SVGID_28_">
		<use xlink:href="#SVGID_27_"  overflow="visible"/>
	</clipPath>
	
		<radialGradient id="SVGID_29_" cx="1.0698" cy="865.0938" r="0.9992" gradientTransform="matrix(502.5066 0 0 -502.5066 1183.3528 434793.8438)" gradientUnits="userSpaceOnUse">
		<stop  offset="0" style="stop-color:#FFF200"/>
		<stop  offset="0.4014" style="stop-color:#FFEF00"/>
		<stop  offset="0.5625" style="stop-color:#FFE900"/>
		<stop  offset="0.6805" style="stop-color:#FFE000"/>
		<stop  offset="0.7775" style="stop-color:#FFD400"/>
		<stop  offset="0.8615" style="stop-color:#FFC40C"/>
		<stop  offset="0.9353" style="stop-color:#FCB017"/>
		<stop  offset="1" style="stop-color:#F8991D"/>
	</radialGradient>
	<rect x="1411.421" y="45.547" clip-path="url(#SVGID_28_)" fill="url(#SVGID_29_)" width="633.158" height="633.158"/>
</g>
<g>
	<defs>
		<path id="SVGID_30_" d="M1490.999,343.866c0,130.892,106.109,237.001,237.001,237.001c130.892,0,237.001-106.109,237.001-237.001
			c0-130.893-106.109-237.003-237.001-237.003C1597.108,106.863,1490.999,212.973,1490.999,343.866"/>
	</defs>
	<clipPath id="SVGID_31_">
		<use xlink:href="#SVGID_30_"  overflow="visible"/>
	</clipPath>
	
		<radialGradient id="SVGID_32_" cx="1.0942" cy="865.127" r="1" gradientTransform="matrix(373.4475 0 0 -373.4475 1325.3083 323234.25)" gradientUnits="userSpaceOnUse">
		<stop  offset="0" style="stop-color:#FFFFFF"/>
		<stop  offset="0.4854" style="stop-color:#FCFCFC"/>
		<stop  offset="0.6802" style="stop-color:#F4F5F5"/>
		<stop  offset="0.8228" style="stop-color:#EAEBEC"/>
		<stop  offset="0.9393" style="stop-color:#DCDDDE"/>
		<stop  offset="1" style="stop-color:#D1D3D4"/>
	</radialGradient>
	<rect x="1490.999" y="106.863" clip-path="url(#SVGID_31_)" fill="url(#SVGID_32_)" width="474.002" height="474.004"/>
</g>
<g>
	<defs>
		<path id="SVGID_33_" d="M1505.219,343.866c0,123.039,99.742,222.781,222.781,222.781s222.781-99.742,222.781-222.781
			S1851.039,121.084,1728,121.084S1505.219,220.827,1505.219,343.866"/>
	</defs>
	<clipPath id="SVGID_34_">
		<use xlink:href="#SVGID_33_"  overflow="visible"/>
	</clipPath>
	
		<radialGradient id="SVGID_35_" cx="1.0981" cy="865.1328" r="1" gradientTransform="matrix(353.6219 0 0 -353.6219 1334.5071 306074.0313)" gradientUnits="userSpaceOnUse">
		<stop  offset="0" style="stop-color:#FFF200"/>
		<stop  offset="0.4014" style="stop-color:#FFEF00"/>
		<stop  offset="0.5625" style="stop-color:#FFE900"/>
		<stop  offset="0.6805" style="stop-color:#FFE000"/>
		<stop  offset="0.7775" style="stop-color:#FFD400"/>
		<stop  offset="0.8615" style="stop-color:#FFC40C"/>
		<stop  offset="0.9353" style="stop-color:#FCB017"/>
		<stop  offset="1" style="stop-color:#F8991D"/>
	</radialGradient>
	<rect x="1505.219" y="121.084" clip-path="url(#SVGID_34_)" fill="url(#SVGID_35_)" width="445.563" height="445.563"/>
</g>
<g>
	<defs>
		<path id="SVGID_36_" d="M1519.522,343.866c0,115.138,93.339,208.477,208.478,208.477c115.139,0,208.479-93.339,208.479-208.477
			c0-115.139-93.34-208.478-208.479-208.478C1612.861,135.388,1519.522,228.727,1519.522,343.866"/>
	</defs>
	<clipPath id="SVGID_37_">
		<use xlink:href="#SVGID_36_"  overflow="visible"/>
	</clipPath>
	
		<radialGradient id="SVGID_38_" cx="1.1069" cy="865.1436" r="1" gradientTransform="matrix(328.5012 0 0 -328.5012 1369.9421 284378)" gradientUnits="userSpaceOnUse">
		<stop  offset="0" style="stop-color:#FFFFFF"/>
		<stop  offset="0.4854" style="stop-color:#FCFCFC"/>
		<stop  offset="0.6802" style="stop-color:#F4F5F5"/>
		<stop  offset="0.8228" style="stop-color:#EAEBEC"/>
		<stop  offset="0.9393" style="stop-color:#DCDDDE"/>
		<stop  offset="1" style="stop-color:#D1D3D4"/>
	</radialGradient>
	<rect x="1519.522" y="135.388" clip-path="url(#SVGID_37_)" fill="url(#SVGID_38_)" width="416.956" height="416.955"/>
</g>
<g>
	<defs>
		<rect id="SVGID_39_" x="36" y="45.547" width="3384" height="772.453"/>
	</defs>
	<clipPath id="SVGID_40_">
		<use xlink:href="#SVGID_39_"  overflow="visible"/>
	</clipPath>
	<path clip-path="url(#SVGID_40_)" d="M1676.619,492.282v-89.088c0-12.842-0.313-27.555-0.938-44.143
		c-0.627-16.585-1.626-34.512-3-53.774c8.374,16.989,16.314,32.806,23.815,47.453c7.501,14.648,14.44,27.859,20.816,39.629
		l54.194,99.923h76.32V196.725h-68.258v75.645c0,14.848,0.249,32.038,0.75,51.567c0.498,19.532,1.248,40.465,2.25,62.803
		c-6.75-15.114-13.94-30.429-21.564-45.948c-7.627-15.516-15.69-31.167-24.19-46.952l-52.132-97.115h-76.509v295.557H1676.619z"/>
</g>
<g>
	<defs>
		<path id="SVGID_41_" d="M2099.131,501.421c0,174.842,141.738,316.579,316.58,316.579c174.841,0,316.578-141.737,316.578-316.579
			s-141.737-316.579-316.578-316.579C2240.869,184.842,2099.131,326.579,2099.131,501.421"/>
	</defs>
	<clipPath id="SVGID_42_">
		<use xlink:href="#SVGID_41_"  overflow="visible"/>
	</clipPath>
	
		<radialGradient id="SVGID_43_" cx="1.0703" cy="865.0938" r="1" gradientTransform="matrix(502.5066 0 0 -502.5066 1870.8528 434933.3438)" gradientUnits="userSpaceOnUse">
		<stop  offset="0" style="stop-color:#41AD49"/>
		<stop  offset="0.4184" style="stop-color:#3FAC49"/>
		<stop  offset="0.5864" style="stop-color:#3AA849"/>
		<stop  offset="0.7094" style="stop-color:#30A049"/>
		<stop  offset="0.8104" style="stop-color:#209649"/>
		<stop  offset="0.8979" style="stop-color:#008949"/>
		<stop  offset="0.9749" style="stop-color:#007B48"/>
		<stop  offset="1" style="stop-color:#007547"/>
	</radialGradient>
	<rect x="2099.131" y="184.842" clip-path="url(#SVGID_42_)" fill="url(#SVGID_43_)" width="633.158" height="633.158"/>
</g>
<g>
	<defs>
		<path id="SVGID_44_" d="M2178.708,483.16c0,130.893,106.108,237.002,237.003,237.002c130.893,0,237.001-106.109,237.001-237.002
			c0-130.892-106.108-237.001-237.001-237.001C2284.816,246.159,2178.708,352.268,2178.708,483.16"/>
	</defs>
	<clipPath id="SVGID_45_">
		<use xlink:href="#SVGID_44_"  overflow="visible"/>
	</clipPath>
	
		<radialGradient id="SVGID_46_" cx="1.0947" cy="865.1279" r="1" gradientTransform="matrix(373.4475 0 0 -373.4475 2012.8083 323373.75)" gradientUnits="userSpaceOnUse">
		<stop  offset="0" style="stop-color:#FFFFFF"/>
		<stop  offset="0.4854" style="stop-color:#FCFCFC"/>
		<stop  offset="0.6802" style="stop-color:#F4F5F5"/>
		<stop  offset="0.8228" style="stop-color:#EAEBEC"/>
		<stop  offset="0.9393" style="stop-color:#DCDDDE"/>
		<stop  offset="1" style="stop-color:#D1D3D4"/>
	</radialGradient>
	<rect x="2178.708" y="246.159" clip-path="url(#SVGID_45_)" fill="url(#SVGID_46_)" width="474.004" height="474.003"/>
</g>
<g>
	<defs>
		<path id="SVGID_47_" d="M2192.928,483.16c0,123.039,99.744,222.782,222.783,222.782s222.781-99.743,222.781-222.782
			s-99.742-222.781-222.781-222.781S2192.928,360.121,2192.928,483.16"/>
	</defs>
	<clipPath id="SVGID_48_">
		<use xlink:href="#SVGID_47_"  overflow="visible"/>
	</clipPath>
	
		<radialGradient id="SVGID_49_" cx="1.0986" cy="865.1328" r="1" gradientTransform="matrix(353.6219 0 0 -353.6219 2022.0071 306213.5313)" gradientUnits="userSpaceOnUse">
		<stop  offset="0" style="stop-color:#41AD49"/>
		<stop  offset="0.4184" style="stop-color:#3FAC49"/>
		<stop  offset="0.5864" style="stop-color:#3AA849"/>
		<stop  offset="0.7094" style="stop-color:#30A049"/>
		<stop  offset="0.8104" style="stop-color:#209649"/>
		<stop  offset="0.8979" style="stop-color:#008949"/>
		<stop  offset="0.9749" style="stop-color:#007B48"/>
		<stop  offset="1" style="stop-color:#007547"/>
	</radialGradient>
	<rect x="2192.928" y="260.379" clip-path="url(#SVGID_48_)" fill="url(#SVGID_49_)" width="445.564" height="445.563"/>
</g>
<g>
	<defs>
		<path id="SVGID_50_" d="M2207.232,483.16c0,115.139,93.34,208.478,208.479,208.478s208.477-93.339,208.477-208.478
			c0-115.138-93.338-208.477-208.477-208.477S2207.232,368.022,2207.232,483.16"/>
	</defs>
	<clipPath id="SVGID_51_">
		<use xlink:href="#SVGID_50_"  overflow="visible"/>
	</clipPath>
	
		<radialGradient id="SVGID_52_" cx="1.1064" cy="865.1436" r="1" gradientTransform="matrix(328.5012 0 0 -328.5012 2057.4421 284517.5)" gradientUnits="userSpaceOnUse">
		<stop  offset="0" style="stop-color:#FFFFFF"/>
		<stop  offset="0.4854" style="stop-color:#FCFCFC"/>
		<stop  offset="0.6802" style="stop-color:#F4F5F5"/>
		<stop  offset="0.8228" style="stop-color:#EAEBEC"/>
		<stop  offset="0.9393" style="stop-color:#DCDDDE"/>
		<stop  offset="1" style="stop-color:#D1D3D4"/>
	</radialGradient>
	<rect x="2207.232" y="274.683" clip-path="url(#SVGID_51_)" fill="url(#SVGID_52_)" width="416.955" height="416.955"/>
</g>
<g>
	<defs>
		<rect id="SVGID_53_" x="36" y="45.547" width="3384" height="772.453"/>
	</defs>
	<clipPath id="SVGID_54_">
		<use xlink:href="#SVGID_53_"  overflow="visible"/>
	</clipPath>
	<path clip-path="url(#SVGID_54_)" d="M2532.842,623.889V462.767h-124.516v56.784h61.507c-2.625,16.052-9.346,28.561-20.157,37.521
		c-10.815,8.963-24.473,13.443-40.975,13.443c-20.628,0-37.1-8.458-49.412-25.382c-12.314-16.92-18.471-39.694-18.471-68.321
		c0-29.025,6.249-52.37,18.752-70.027c12.5-17.656,28.878-26.485,49.131-26.485c13.376,0,24.689,3.244,33.942,9.731
		c9.25,6.49,16.126,16.086,20.627,28.793h67.696c-5.627-31.301-18.973-55.646-40.037-73.036
		c-21.066-17.388-47.789-26.085-80.166-26.085c-42.881,0-77.229,14.582-103.043,43.742c-25.817,29.163-38.725,67.888-38.725,116.176
		c0,22.342,3.124,42.939,9.376,61.801c6.25,18.86,15.439,35.248,27.566,49.158c11.627,13.514,25.034,23.746,40.224,30.7
		c15.189,6.953,31.721,10.434,49.6,10.434c19.127,0,35.847-3.781,50.162-11.337c14.313-7.556,26.658-19.093,37.036-34.611
		l5.626,38.123H2532.842z"/>
</g>
<g>
	<defs>
		<circle id="SVGID_55_" cx="3103.42" cy="362.126" r="316.579"/>
	</defs>
	<clipPath id="SVGID_56_">
		<use xlink:href="#SVGID_55_"  overflow="visible"/>
	</clipPath>
	
		<radialGradient id="SVGID_57_" cx="1.0698" cy="865.0938" r="1.0007" gradientTransform="matrix(502.5066 0 0 -502.5066 2558.3528 434793.8438)" gradientUnits="userSpaceOnUse">
		<stop  offset="0" style="stop-color:#92278F"/>
		<stop  offset="0.4342" style="stop-color:#90278F"/>
		<stop  offset="0.6085" style="stop-color:#8C288F"/>
		<stop  offset="0.7361" style="stop-color:#842990"/>
		<stop  offset="0.841" style="stop-color:#782B90"/>
		<stop  offset="0.9308" style="stop-color:#682C91"/>
		<stop  offset="1" style="stop-color:#562E91"/>
	</radialGradient>
	<rect x="2786.842" y="45.547" clip-path="url(#SVGID_56_)" fill="url(#SVGID_57_)" width="633.158" height="633.158"/>
</g>
<g>
	<defs>
		<path id="SVGID_58_" d="M2866.419,343.866c0,130.892,106.109,237.001,237.001,237.001c130.893,0,237.003-106.109,237.003-237.001
			c0-130.893-106.11-237.003-237.003-237.003C2972.528,106.863,2866.419,212.973,2866.419,343.866"/>
	</defs>
	<clipPath id="SVGID_59_">
		<use xlink:href="#SVGID_58_"  overflow="visible"/>
	</clipPath>
	
		<radialGradient id="SVGID_60_" cx="1.0957" cy="865.127" r="1" gradientTransform="matrix(373.4475 0 0 -373.4475 2700.3083 323234.25)" gradientUnits="userSpaceOnUse">
		<stop  offset="0" style="stop-color:#FFFFFF"/>
		<stop  offset="0.4854" style="stop-color:#FCFCFC"/>
		<stop  offset="0.6802" style="stop-color:#F4F5F5"/>
		<stop  offset="0.8228" style="stop-color:#EAEBEC"/>
		<stop  offset="0.9393" style="stop-color:#DCDDDE"/>
		<stop  offset="1" style="stop-color:#D1D3D4"/>
	</radialGradient>
	<rect x="2866.419" y="106.863" clip-path="url(#SVGID_59_)" fill="url(#SVGID_60_)" width="474.004" height="474.004"/>
</g>
<g>
	<defs>
		<path id="SVGID_61_" d="M2880.639,343.866c0,123.039,99.742,222.781,222.781,222.781s222.783-99.742,222.783-222.781
			s-99.744-222.782-222.783-222.782S2880.639,220.827,2880.639,343.866"/>
	</defs>
	<clipPath id="SVGID_62_">
		<use xlink:href="#SVGID_61_"  overflow="visible"/>
	</clipPath>
	
		<radialGradient id="SVGID_63_" cx="1.0986" cy="865.1328" r="1" gradientTransform="matrix(353.6219 0 0 -353.6219 2710.0071 306074.0313)" gradientUnits="userSpaceOnUse">
		<stop  offset="0" style="stop-color:#92278F"/>
		<stop  offset="0.4342" style="stop-color:#90278F"/>
		<stop  offset="0.6085" style="stop-color:#8C288F"/>
		<stop  offset="0.7361" style="stop-color:#842990"/>
		<stop  offset="0.841" style="stop-color:#782B90"/>
		<stop  offset="0.9308" style="stop-color:#682C91"/>
		<stop  offset="1" style="stop-color:#562E91"/>
	</radialGradient>
	<rect x="2880.639" y="121.084" clip-path="url(#SVGID_62_)" fill="url(#SVGID_63_)" width="445.564" height="445.563"/>
</g>
<g>
	<defs>
		<path id="SVGID_64_" d="M2894.944,343.866c0,115.138,93.338,208.477,208.476,208.477c115.139,0,208.479-93.339,208.479-208.477
			c0-115.139-93.34-208.478-208.479-208.478C2988.282,135.388,2894.944,228.727,2894.944,343.866"/>
	</defs>
	<clipPath id="SVGID_65_">
		<use xlink:href="#SVGID_64_"  overflow="visible"/>
	</clipPath>
	
		<radialGradient id="SVGID_66_" cx="1.1064" cy="865.1436" r="1" gradientTransform="matrix(328.5012 0 0 -328.5012 2745.1921 284378)" gradientUnits="userSpaceOnUse">
		<stop  offset="0" style="stop-color:#FFFFFF"/>
		<stop  offset="0.4854" style="stop-color:#FCFCFC"/>
		<stop  offset="0.6802" style="stop-color:#F4F5F5"/>
		<stop  offset="0.8228" style="stop-color:#EAEBEC"/>
		<stop  offset="0.9393" style="stop-color:#DCDDDE"/>
		<stop  offset="1" style="stop-color:#D1D3D4"/>
	</radialGradient>
	<rect x="2894.944" y="135.388" clip-path="url(#SVGID_65_)" fill="url(#SVGID_66_)" width="416.953" height="416.955"/>
</g>
<g>
	<defs>
		<rect id="SVGID_67_" x="36" y="45.547" width="3384" height="772.453"/>
	</defs>
	<clipPath id="SVGID_68_">
		<use xlink:href="#SVGID_67_"  overflow="visible"/>
	</clipPath>
	<path clip-path="url(#SVGID_68_)" d="M3001.971,457.734c24.814,27.89,58.476,41.835,100.981,41.835
		c42.629,0,76.478-13.976,101.544-41.936c25.063-27.956,37.598-65.879,37.598-113.769c0-47.886-12.535-85.809-37.598-113.768
		c-25.066-27.956-58.915-41.936-101.544-41.936c-42.506,0-76.167,13.945-100.981,41.835
		c-24.817,27.891-37.223,65.848-37.223,113.869C2964.748,391.89,2977.153,429.844,3001.971,457.734 M3053.728,274.642
		c11.438-16.052,27.847-24.078,49.225-24.078c21.501,0,38.035,8.06,49.601,24.178c11.561,16.121,17.345,39.161,17.345,69.124
		c0,30.097-5.784,53.172-17.345,69.225c-11.565,16.052-28.1,24.077-49.601,24.077c-21.378,0-37.786-8.025-49.225-24.077
		c-11.439-16.053-17.158-39.127-17.158-69.225C3036.569,313.769,3042.288,290.693,3053.728,274.642"/>
</g>
</svg>
