<?xml version="1.0" encoding="utf-8"?>
<!-- Created by UniConvertor 2.0rc5 (https://sk1project.net/) -->
<svg xmlns="http://www.w3.org/2000/svg" height="300.0px" width="665.2px" version="1.1" xmlns:xlink="http://www.w3.org/1999/xlink" id="a1eb2d54-e4af-11ec-a0fe-0242ac120002">

<g>
	<g>
		<path style="fill:#0f6bb5;" d="M 493.5,94.1 C 497.2,92.8 501.9,93.0 504.7,96.1 519.7,110.6 534.7,125.1 549.8,139.5 549.9,124.6 549.7,109.6 549.9,94.7 554.3,94.9 558.8,94.6 563.2,94.9 563.1,114.5 563.3,134.1 563.1,153.7 563.1,157.4 558.9,159.0 555.8,158.7 552.6,158.7 549.7,157.1 547.5,154.8 535.7,143.6 506.4,115.7 503.3,113.4 503.3,128.0 503.3,142.6 503.3,157.2 499.0,157.2 494.7,157.2 490.4,157.2 490.2,138.1 490.4,118.9 490.3,99.7 489.9,97.3 491.2,94.8 493.5,94.1 L 493.5,94.1 Z" />
		<path style="fill:#0f6bb5;" d="M 382.1,97.8 C 386.2,94.8 391.5,94.6 396.3,94.6 411.4,94.6 426.5,94.7 441.7,94.5 441.9,98.5 441.8,102.6 441.7,106.6 426.2,106.5 410.6,106.6 395.1,106.6 393.0,106.5 390.8,107.6 390.2,109.7 389.7,111.9 389.8,114.2 390.0,116.4 390.3,118.8 392.8,120.0 395.0,119.9 405.6,120.0 416.1,119.9 426.7,119.9 431.8,120.1 437.8,120.8 441.3,125.1 444.8,129.6 444.1,135.6 444.2,141.0 444.2,145.6 443.3,150.8 439.4,153.7 435.2,156.8 429.8,157.0 424.8,157.0 408.9,157.0 393.0,157.0 377.1,157.0 377.1,153.0 377.0,149.1 377.2,145.1 393.1,145.2 408.9,145.1 424.8,145.1 427.1,145.1 430.3,144.8 431.1,142.1 431.6,139.6 431.6,136.9 431.1,134.4 430.4,131.7 427.2,131.2 424.9,131.2 413.9,131.1 402.9,131.2 391.9,131.1 387.4,130.8 382.2,129.8 379.6,125.8 376.7,121.4 377.5,115.8 377.3,110.8 377.1,106.2 378.1,100.8 382.1,97.8 L 382.1,97.8 Z" />
		<path style="fill:#0f6bb5;" d="M 208.3,98.5 C 213.2,95.1 219.5,94.9 225.2,94.7 239.9,94.8 254.5,94.6 269.2,94.8 269.1,98.8 269.1,102.8 269.2,106.8 254.3,106.9 239.4,106.8 224.5,106.9 221.9,107.0 218.8,107.7 217.3,110.1 215.8,112.9 216.1,116.2 216.0,119.3 216.0,124.6 216.0,129.9 216.0,135.2 216.2,137.7 216.1,140.5 217.8,142.5 219.4,144.5 222.2,144.8 224.5,145.0 239.4,145.1 254.3,144.9 269.2,145.1 269.1,149.1 269.2,153.0 269.2,157.0 253.7,157.1 238.1,157.0 222.6,157.0 217.1,156.7 211.1,156.0 206.9,152.1 203.3,148.6 202.4,143.2 202.2,138.4 202.2,130.0 202.2,121.7 202.2,113.3 202.3,108.0 203.6,101.9 208.3,98.5 L 208.3,98.5 Z" />
		<path style="fill:#0f6bb5;" d="M 459.0,157.0 C 459.2,136.2 458.9,115.4 459.2,94.7 463.8,94.8 468.4,94.7 473.1,94.8 473.1,115.6 473.1,136.4 473.1,157.2 468.4,157.0 463.7,157.2 459.0,157.0 L 459.0,157.0 Z" />
		<path style="fill:#0f6bb5;" d="M 645.4,103.3 C 643.9,100.1 641.0,97.7 637.6,96.5 632.9,94.8 627.8,94.7 622.8,94.6 614.7,94.6 606.5,94.6 598.4,94.6 593.0,94.8 587.2,95.2 582.6,98.3 579.4,100.4 577.6,104.1 576.9,107.8 575.7,113.8 576.4,119.9 576.2,125.9 576.4,132.0 575.7,138.2 577.0,144.3 577.8,148.2 580.0,152.0 583.5,154.0 588.0,156.5 593.4,157.0 598.4,157.0 608.0,157.0 617.7,157.0 627.3,157.0 633.1,156.7 639.8,155.8 643.8,150.9 647.2,146.7 647.2,141.1 647.8,136.0 L 647.8,116.0 C 647.2,111.8 647.4,107.3 645.4,103.3 Z M 631.9,142.5 C 630.2,144.6 627.3,145.0 624.8,145.1 616.2,145.1 607.7,145.1 599.1,145.1 596.6,145.0 593.9,144.8 592.0,143.0 590.3,141.1 590.2,138.3 590.2,135.9 590.3,128.7 590.1,121.4 590.3,114.2 590.2,111.1 592.2,107.8 595.5,107.4 597.8,106.9 600.1,107.0 602.4,107.0 609.6,107.0 616.9,107.0 624.1,107.0 626.6,107.0 629.4,107.3 631.4,109.1 633.0,110.8 633.5,113.3 633.5,115.6 633.5,121.5 633.5,127.4 633.5,133.3 633.5,136.3 633.8,139.8 631.9,142.5 Z" />
		<path style="fill:#0f6bb5;" d="M 333.0,98.5 C 328.9,91.5 317.1,91.6 313.1,98.7 300.9,118.2 288.6,137.6 276.4,157.1 281.7,157.3 287.1,157.0 292.4,157.2 295.6,152.5 298.4,147.6 301.4,142.8 315.7,142.8 330.0,142.8 344.3,142.8 347.3,147.6 350.3,152.4 353.4,157.1 358.8,157.0 364.2,157.1 369.6,157.0 357.5,137.5 345.3,118.0 333.0,98.5 Z M 308.1,131.9 C 313.1,123.9 317.8,115.7 323.1,107.8 327.9,115.9 332.9,123.9 337.8,131.9 327.9,131.9 318.0,131.9 308.1,131.9 Z" />
		<path style="fill:#0f6bb5;" d="M 206.9,181.5 C 209.1,180.3 211.6,180.8 214.0,180.7 219.7,180.8 225.3,180.5 231.0,180.9 230.8,182.1 230.8,183.6 229.5,184.1 227.0,185.3 224.2,184.4 221.6,184.8 221.7,188.8 221.8,192.7 221.6,196.7 221.1,199.5 217.6,199.1 215.4,199.2 215.4,194.3 215.4,189.5 215.4,184.7 212.3,184.8 209.1,184.7 206.0,184.7 206.1,183.6 206.0,182.3 206.9,181.5 L 206.9,181.5 Z" />
		<path style="fill:#0f6bb5;" d="M 253.0,184.5 C 253.0,181.9 255.9,180.8 258.0,180.7 262.8,180.7 267.7,180.7 272.5,180.7 274.8,180.7 277.5,182.0 277.5,184.6 271.4,184.6 265.3,184.7 259.2,184.6 259.1,185.7 259.1,186.8 259.1,187.9 262.9,187.9 266.7,187.9 270.5,187.9 270.6,189.2 270.6,190.6 270.6,191.9 266.8,191.9 263.0,192.0 259.2,191.9 259.1,193.0 259.1,194.1 259.1,195.2 265.2,195.3 271.3,195.1 277.5,195.3 277.2,197.5 275.3,199.0 273.1,199.0 268.3,199.3 263.4,199.1 258.6,199.1 256.4,199.2 253.8,198.3 253.0,196.1 252.9,192.3 253.0,188.4 253.0,184.5 L 253.0,184.5 Z" />
		<path style="fill:#0f6bb5;" d="M 300.7,182.3 C 302.4,180.8 304.7,180.6 306.8,180.7 311.3,180.8 315.8,180.5 320.3,180.8 322.7,180.9 325.1,183.2 324.2,185.7 322.8,187.5 320.3,188.2 318.1,188.1 318.1,186.9 318.1,185.7 318.0,184.6 314.0,184.6 310.0,184.7 306.0,184.6 305.7,188.1 305.9,191.7 305.9,195.2 309.9,195.2 314.0,195.2 318.1,195.2 318.1,193.9 318.1,192.7 318.1,191.4 320.1,191.4 322.1,191.4 324.2,191.4 324.2,193.0 324.3,194.7 324.1,196.3 323.3,198.2 321.2,199.0 319.3,199.1 314.7,199.2 310.2,199.1 305.6,199.2 303.4,199.2 300.3,198.4 299.8,195.9 299.5,193.0 299.7,190.1 299.6,187.2 299.6,185.5 299.3,183.6 300.7,182.3 L 300.7,182.3 Z" />
		<path style="fill:#0f6bb5;" d="M 346.4,184.5 C 346.7,181.6 350.1,180.8 352.5,180.6 352.8,183.1 352.5,185.6 352.7,188.0 356.7,187.9 360.7,188.0 364.8,188.0 364.8,185.6 364.8,183.2 364.8,180.7 366.9,180.7 369.0,180.7 371.1,180.8 370.9,186.9 371.1,193.0 371.0,199.1 368.9,199.1 366.8,199.1 364.7,199.1 364.7,196.7 364.7,194.3 364.6,191.8 360.5,192.0 356.5,191.7 352.4,192.0 352.5,194.4 352.5,196.8 352.4,199.1 350.3,199.1 348.3,199.1 346.2,199.1 346.4,194.3 346.2,189.4 346.4,184.5 L 346.4,184.5 Z" />
		<path style="fill:#0f6bb5;" d="M 393.1,180.7 C 395.4,180.8 397.9,180.9 399.8,182.4 403.0,185.0 405.6,188.2 409.0,190.7 409.1,188.3 408.9,185.8 409.1,183.4 409.9,181.0 412.9,180.9 415.0,180.7 415.2,186.8 415.0,193.0 415.1,199.1 412.8,199.2 410.3,199.0 408.5,197.5 405.3,194.8 402.5,191.7 399.3,189.1 399.3,192.4 399.3,195.7 399.3,199.0 397.2,199.0 395.1,199.0 393.0,199.0 393.1,192.9 393.0,186.8 393.1,180.7 L 393.1,180.7 Z" />
		<path style="fill:#0f6bb5;" d="M 484.0,180.7 C 486.2,180.8 489.1,181.0 490.1,183.4 490.5,187.4 490.0,191.4 490.3,195.3 494.5,195.3 498.8,195.2 503.0,195.3 502.7,197.9 500.1,199.2 497.7,199.2 494.4,199.2 491.1,199.4 487.8,199.0 485.9,198.8 483.9,197.3 483.9,195.2 483.9,190.3 483.9,185.5 484.0,180.7 L 484.0,180.7 Z" />
		<path style="fill:#0f6bb5;" d="M 571.7,184.1 C 572.3,181.7 575.1,180.8 577.3,180.8 582.1,180.8 586.9,180.7 591.7,180.9 593.9,181.0 596.4,182.2 596.2,184.8 590.1,184.8 584.0,184.8 577.9,184.8 577.8,188.3 577.9,191.8 577.9,195.3 581.9,195.3 586.0,195.3 590.0,195.3 590.0,194.2 590.0,193.2 590.0,192.1 587.3,192.3 583.2,191.5 583.2,188.1 587.5,188.2 591.9,187.9 596.2,188.3 595.9,191.0 596.4,193.8 595.9,196.5 595.3,198.5 593.0,199.2 591.1,199.3 586.7,199.4 582.4,199.3 578.0,199.4 575.9,199.4 573.4,199.1 572.1,197.1 571.3,195.5 571.6,193.7 571.6,192.0 571.7,189.2 571.4,186.6 571.7,184.1 L 571.7,184.1 Z" />
		<path style="fill:#0f6bb5;" d="M 618.4,180.7 C 620.5,180.9 623.1,180.9 624.4,182.8 624.9,184.5 624.6,186.2 624.7,187.9 628.7,187.9 632.7,187.9 636.7,187.9 636.7,185.5 636.7,183.1 636.7,180.6 638.7,180.6 640.8,180.6 642.8,180.6 643.0,185.4 642.8,190.2 642.9,195.0 643.2,197.4 640.7,198.9 638.6,199.0 633.7,199.3 628.8,199.1 623.9,199.1 623.5,196.9 625.5,195.4 627.5,195.2 630.5,194.9 633.6,195.2 636.6,195.1 636.6,194.0 636.6,192.9 636.5,191.8 631.5,191.9 626.5,191.8 621.5,191.8 620.2,191.8 618.4,191.1 618.3,189.6 618.3,186.8 618.4,183.7 618.4,180.7 L 618.4,180.7 Z" />
		<path style="fill:#0f6bb5;" d="M 461.8,183.9 C 461.4,181.4 458.4,180.7 456.3,180.7 451.5,180.7 446.7,180.6 441.9,180.8 439.8,180.9 437.4,182.2 437.4,184.5 437.3,188.0 437.4,191.6 437.4,195.1 437.4,197.7 440.2,199.2 442.5,199.1 447.3,199.2 452.1,199.2 456.9,199.1 459.0,199.1 461.7,198.0 461.8,195.6 461.9,191.7 461.9,187.8 461.8,183.9 Z M 455.6,195.2 C 451.6,195.2 447.6,195.2 443.6,195.2 443.6,191.7 443.5,188.2 443.6,184.7 447.6,184.7 451.5,184.7 455.5,184.7 455.6,188.2 455.6,191.7 455.6,195.2 Z" />
		<path style="fill:#0f6bb5;" d="M 549.6,193.8 C 549.5,190.6 549.7,187.3 549.5,184.1 549.3,181.7 546.6,180.9 544.5,180.8 539.5,180.8 534.5,180.7 529.5,180.8 527.5,181.0 525.3,182.1 525.0,184.3 L 524.9,193.1 C 524.9,194.8 524.8,196.9 526.5,197.9 529.1,199.7 532.3,199.0 535.3,199.1 539.2,198.9 543.1,199.5 546.9,198.7 549.0,198.2 549.8,195.8 549.6,193.8 Z M 543.3,195.2 C 539.3,195.2 535.3,195.2 531.3,195.2 531.3,191.7 531.3,188.2 531.3,184.6 535.3,184.7 539.2,184.6 543.2,184.6 543.4,188.2 543.3,191.7 543.3,195.2 Z" />
	</g>
	<g>
		<path style="fill:#0f6bb5;" d="M 86.4,76.6 L 89.9,76.6 C 92.0,77.2 93.9,78.4 95.4,80.0 105.5,90.3 115.9,100.3 125.9,110.7 118.9,110.7 111.8,110.6 104.8,110.7 98.1,111.1 90.8,112.0 85.7,116.8 81.0,121.3 79.8,128.2 79.6,134.5 79.6,144.8 79.6,155.2 79.6,165.5 79.8,171.5 80.9,178.0 85.1,182.5 89.0,186.6 94.7,188.1 100.1,188.8 108.7,189.8 117.4,189.0 126.0,189.4 115.7,199.7 105.4,210.0 95.1,220.3 93.6,221.9 91.6,222.9 89.5,223.4 L 86.5,223.4 C 84.5,223.0 82.6,222.1 81.1,220.6 59.8,199.3 38.6,178.1 17.3,156.8 15.8,155.4 14.9,153.5 14.5,151.5 L 14.5,148.5 C 14.8,146.7 15.6,144.9 16.9,143.6 22.4,138.1 34.4,125.9 35.1,125.8 46.3,125.3 58.0,127.1 68.7,123.1 74.1,121.2 77.9,116.3 79.3,110.8 69.5,110.8 59.6,110.8 49.8,110.8 60.0,100.3 70.4,90.1 80.7,79.8 82.3,78.0 84.3,77.0 86.4,76.6 L 86.4,76.6 Z" />
		<path style="fill:#0f6bb5;" d="M 99.3,128.5 C 101.8,126.1 105.4,125.7 108.7,125.7 119.5,125.7 130.3,125.7 141.1,125.7 146.8,131.4 152.5,137.2 158.3,142.9 162.3,146.4 162.5,153.2 158.7,156.8 152.8,162.7 146.9,168.7 140.9,174.6 130.6,174.6 120.3,174.6 110.0,174.6 106.5,174.4 102.5,174.5 99.6,172.0 97.4,169.9 96.9,166.6 96.8,163.6 96.8,154.6 96.8,145.6 96.8,136.5 96.9,133.7 97.4,130.6 99.3,128.5 L 99.3,128.5 Z" />
		<path style="fill:#0f6bb5;" d="M 147.7,211.6 C 146.9,209.1 144.7,207.4 143.0,205.6 141.3,204.0 139.5,201.9 137.0,201.5 134.3,201.4 132.6,203.8 130.8,205.4 129.2,207.2 127.1,208.6 126.1,210.9 125.3,213.4 127.0,215.6 128.6,217.2 130.9,219.4 132.9,222.0 135.9,223.3 L 138.0,223.3 C 140.8,222.0 142.7,219.5 144.9,217.4 146.5,216.0 148.4,214.0 147.7,211.6 Z M 143.5,216.0 C 141.7,217.7 140.1,219.7 138.0,221.0 136.4,221.8 134.9,220.3 133.8,219.3 131.9,217.4 129.8,215.7 128.5,213.4 127.5,211.6 129.3,210.0 130.5,208.8 132.4,207.2 133.8,205.0 136.1,203.8 138.1,203.3 139.6,205.1 140.9,206.4 142.4,208.1 144.4,209.5 145.5,211.6 146.2,213.4 144.5,214.8 143.5,216.0 Z" />
		<path style="fill:#0f6bb5;" d="M 137.1,213.9 C 138.7,213.7 141.4,214.4 141.9,212.2 142.2,210.8 142.1,208.6 140.3,208.3 137.5,207.9 134.6,208.2 131.7,208.1 131.7,211.0 131.7,213.9 131.7,216.8 132.2,216.8 133.2,216.8 133.7,216.8 133.7,215.8 133.7,214.9 133.7,213.9 136.3,215.3 138.8,217.6 142.0,216.8 140.4,215.7 138.7,214.8 137.1,213.9 Z M 133.7,212.4 C 133.7,211.8 133.7,210.6 133.7,210.0 135.7,210.0 137.8,209.9 139.8,210.1 139.8,210.7 139.8,211.8 139.8,212.3 137.8,212.4 135.7,212.4 133.7,212.4 Z" />
	</g>
</g>
</svg>