<?xml version="1.0" encoding="UTF-8" standalone="no"?>
<svg
   id="圖層_1"
   data-name="圖層 1"
   viewBox="0 0 503.19668 243.76"
   version="1.1"
   sodipodi:docname="342def1ced3cf3fb6abb7304fad47983.svg"
   width="503.19669"
   height="243.75999"
   xmlns:inkscape="http://www.inkscape.org/namespaces/inkscape"
   xmlns:sodipodi="http://sodipodi.sourceforge.net/DTD/sodipodi-0.dtd"
   xmlns="http://www.w3.org/2000/svg"
   xmlns:svg="http://www.w3.org/2000/svg">
  <sodipodi:namedview
     id="namedview22"
     pagecolor="#ffffff"
     bordercolor="#666666"
     borderopacity="1.0"
     inkscape:pageshadow="2"
     inkscape:pageopacity="0.0"
     inkscape:pagecheckerboard="0" />
  <defs
     id="defs15">
    <style
       id="style2">.cls-1{fill:url(#新增漸層色票_2);}.cls-2{fill:#fff;}</style>
    <linearGradient
       id="新增漸層色票_2"
       x1="446"
       y1="12.62"
       x2="446"
       y2="189.16"
       gradientUnits="userSpaceOnUse"
       gradientTransform="translate(-194.3833,-12.62)">
      <stop
         offset="0"
         stop-color="#fdd000"
         id="stop4" />
      <stop
         offset="0.26"
         stop-color="#f7b000"
         id="stop6" />
      <stop
         offset="0.56"
         stop-color="#f29100"
         id="stop8" />
      <stop
         offset="0.82"
         stop-color="#ef7f00"
         id="stop10" />
      <stop
         offset="1"
         stop-color="#ee7800"
         id="stop12" />
    </linearGradient>
  </defs>
  <path
     class="cls-1"
     d="m 414.9667,0 c -41.57,0 -75.26,30.59 -75.26,68.34 0,37.75 33.69,68.32 75.26,68.32 26.89,0 50.47,-12.81 63.78,-32.07 a 65.77,65.77 0 0 1 -63.78,49.52 c -37.85,-0.08 -62.25,-13.19 -87,-27.64 l -4.7,-2.75 a 88.26,88.26 0 1 0 -160.65,2.22 l -1.28,0.85 c -22.25,14.61 -42.15,27.38 -73.000004,27.33 A 65.86,65.86 0 1 1 144.0667,53.38 103.6,103.6 0 0 1 155.2967,30.87 88.26,88.26 0 1 0 88.296696,176.54 c 37.540004,0 63.340004,-16.49 85.340004,-31 l 1,-0.69 a 88.22,88.22 0 0 0 137,-1.9 l 4.93,2.9 c 25,14.68 55.12,30.72 98.36,30.72 a 88.27,88.27 0 0 0 0,-176.54 z m 0,114.25 c -29.18,0 -52.85,-20.56 -52.85,-45.91 0,-25.35 23.67,-45.96 52.85,-45.96 29.18,0 52.84,20.6 52.84,46 0,25.4 -23.66,45.87 -52.84,45.87 z m -172.57,39.87 a 66,66 0 1 1 61.22,-41.58 c -17.5,-9.27 -36.73,-16.76 -60.7,-16.78 a 109.47,109.47 0 0 0 -46.81,10.53 49.72,49.72 0 0 0 12.95,18.78 86,86 0 0 1 33.86,-6.89 c 18.44,0 33.55,5.51 48.94,13.53 a 65.82,65.82 0 0 1 -49.46,22.41 z"
     id="path17"
     style="fill:url(#%E6%96%B0%E5%A2%9E%E6%BC%B8%E5%B1%A4%E8%89%B2%E7%A5%A8_2)" />
  <path
     class="cls-2"
     d="m 271.8267,243.76 h 6.79 v -40.79 h -6.77 z m -95.57,-35.54 a 26.64,26.64 0 0 0 -7.52,-4.53 24.46,24.46 0 0 0 -8.8,-1.55 23.28,23.28 0 0 0 -5.83,0.71 21.73,21.73 0 0 0 -5.21,2 21.17,21.17 0 0 0 -4.42,3.19 19.71,19.71 0 0 0 -3.4,4.17 21.09,21.09 0 0 0 -2.2,5 20.52,20.52 0 0 0 -0.78,5.63 23.05,23.05 0 0 0 0.84,6.4 19,19 0 0 0 2.38,5.25 17.66,17.66 0 0 0 3.68,4.07 21,21 0 0 0 4.78,2.88 25.72,25.72 0 0 0 5.62,1.72 32.83,32.83 0 0 0 6.19,0.57 h 14.65 V 221.2 h -6.74 v 19.07 h -5.45 a 23.18,23.18 0 0 1 -7.85,-1.24 16.32,16.32 0 0 1 -5.88,-3.5 15.49,15.49 0 0 1 -3.7,-5.48 19,19 0 0 1 -1.29,-7.18 20.53,20.53 0 0 1 1.1,-6.84 15.84,15.84 0 0 1 3.16,-5.4 14.24,14.24 0 0 1 5,-3.58 16.37,16.37 0 0 1 6.63,-1.31 17.55,17.55 0 0 1 3.53,0.36 20.67,20.67 0 0 1 3.41,1 20.38,20.38 0 0 1 3.1,1.55 25.86,25.86 0 0 1 3,2.22 z m 188.88,0 a 26.83,26.83 0 0 0 -7.53,-4.53 24.46,24.46 0 0 0 -8.8,-1.55 23.28,23.28 0 0 0 -5.83,0.71 21.73,21.73 0 0 0 -5.21,2 21.17,21.17 0 0 0 -4.42,3.19 20,20 0 0 0 -3.4,4.17 20.67,20.67 0 0 0 -2.19,5 20.15,20.15 0 0 0 -0.78,5.63 23.06,23.06 0 0 0 0.83,6.4 19,19 0 0 0 2.38,5.25 17.89,17.89 0 0 0 3.68,4.07 21.25,21.25 0 0 0 4.78,2.88 25.72,25.72 0 0 0 5.62,1.72 32.91,32.91 0 0 0 6.19,0.57 h 14.65 V 221.2 h -6.74 v 19.07 h -5.45 a 23.12,23.12 0 0 1 -7.84,-1.24 16.36,16.36 0 0 1 -5.89,-3.5 15.33,15.33 0 0 1 -3.69,-5.48 19,19 0 0 1 -1.3,-7.18 20.53,20.53 0 0 1 1.1,-6.84 15.84,15.84 0 0 1 3.16,-5.4 14.33,14.33 0 0 1 5,-3.58 16.37,16.37 0 0 1 6.63,-1.31 17.55,17.55 0 0 1 3.53,0.36 20.38,20.38 0 0 1 3.41,1 19.93,19.93 0 0 1 3.1,1.55 25.86,25.86 0 0 1 3,2.22 z m -166.52,-5.25 -2.34,5.56 -14.82,35.23 h 4.16 l 2.92,-7 h 19.73 l 3,7 h 7.14 l -17.24,-40.79 z m -8.6,30.33 8.33,-19.92 8.46,19.88 z m 126.11,1 -22.34,-31.36 h -4.27 v 40.79 h 3.6 v -30.08 l 21.5,30.11 h 5.16 v -40.79 h -3.62 z m -73.65,-15.53 -13.44,-15.83 h -5.36 v 40.79 h 3.6 v -33.45 l 13.58,15.82 13.67,-15.78 v 33.44 h 6.75 v -40.79 h -5.06 z"
     id="path19" />
</svg>
