<svg id="圖層_1" data-name="圖層 1" xmlns="http://www.w3.org/2000/svg" xmlns:xlink="http://www.w3.org/1999/xlink" viewBox="0 0 503.22 243.76"><defs><style>.cls-1{fill:url(#新增漸層色票_2);}.cls-2{fill:#fff;}</style><linearGradient id="新增漸層色票_2" x1="446" y1="12.62" x2="446" y2="189.16" gradientUnits="userSpaceOnUse"><stop offset="0" stop-color="#fdd000"/><stop offset="0.26" stop-color="#f7b000"/><stop offset="0.56" stop-color="#f29100"/><stop offset="0.82" stop-color="#ef7f00"/><stop offset="1" stop-color="#ee7800"/></linearGradient></defs><path class="cls-1" d="M609.35,12.62c-41.57,0-75.26,30.59-75.26,68.34s33.69,68.32,75.26,68.32c26.89,0,50.47-12.81,63.78-32.07a65.77,65.77,0,0,1-63.78,49.52c-37.85-.08-62.25-13.19-87-27.64l-4.7-2.75A88.26,88.26,0,1,0,357,138.56l-1.28.85c-22.25,14.61-42.15,27.38-73,27.33A65.86,65.86,0,1,1,338.45,66a103.6,103.6,0,0,1,11.23-22.51,88.26,88.26,0,1,0-67,145.67c37.54,0,63.34-16.49,85.34-31l1-.69a88.22,88.22,0,0,0,137-1.9l4.93,2.9c25,14.68,55.12,30.72,98.36,30.72a88.27,88.27,0,0,0,0-176.54Zm0,114.25c-29.18,0-52.85-20.56-52.85-45.91S580.17,35,609.35,35,662.19,55.6,662.19,81,638.53,126.87,609.35,126.87ZM436.78,166.74A66,66,0,1,1,498,125.16c-17.5-9.27-36.73-16.76-60.7-16.78a109.47,109.47,0,0,0-46.81,10.53,49.72,49.72,0,0,0,12.95,18.78,86,86,0,0,1,33.86-6.89c18.44,0,33.55,5.51,48.94,13.53A65.82,65.82,0,0,1,436.78,166.74Z" transform="translate(-194.39 -12.62)"/><path class="cls-2" d="M466.21,256.38H473V215.59h-6.77Zm-95.57-35.54a26.64,26.64,0,0,0-7.52-4.53,24.46,24.46,0,0,0-8.8-1.55,23.28,23.28,0,0,0-5.83.71,21.73,21.73,0,0,0-5.21,2,21.17,21.17,0,0,0-4.42,3.19,19.71,19.71,0,0,0-3.4,4.17,21.09,21.09,0,0,0-2.2,5,20.52,20.52,0,0,0-.78,5.63,23.05,23.05,0,0,0,.84,6.4,19,19,0,0,0,2.38,5.25,17.66,17.66,0,0,0,3.68,4.07,21,21,0,0,0,4.78,2.88,25.72,25.72,0,0,0,5.62,1.72,32.83,32.83,0,0,0,6.19.57h14.65V233.82h-6.74v19.07h-5.45a23.18,23.18,0,0,1-7.85-1.24,16.32,16.32,0,0,1-5.88-3.5,15.49,15.49,0,0,1-3.7-5.48,19,19,0,0,1-1.29-7.18,20.53,20.53,0,0,1,1.1-6.84,15.84,15.84,0,0,1,3.16-5.4,14.24,14.24,0,0,1,5-3.58,16.37,16.37,0,0,1,6.63-1.31,17.55,17.55,0,0,1,3.53.36,20.67,20.67,0,0,1,3.41,1,20.38,20.38,0,0,1,3.1,1.55,25.86,25.86,0,0,1,3,2.22Zm188.88,0a26.83,26.83,0,0,0-7.53-4.53,24.46,24.46,0,0,0-8.8-1.55,23.28,23.28,0,0,0-5.83.71,21.73,21.73,0,0,0-5.21,2,21.17,21.17,0,0,0-4.42,3.19,20,20,0,0,0-3.4,4.17,20.67,20.67,0,0,0-2.19,5,20.15,20.15,0,0,0-.78,5.63,23.06,23.06,0,0,0,.83,6.4,19,19,0,0,0,2.38,5.25,17.89,17.89,0,0,0,3.68,4.07,21.25,21.25,0,0,0,4.78,2.88,25.72,25.72,0,0,0,5.62,1.72,32.91,32.91,0,0,0,6.19.57h14.65V233.82h-6.74v19.07H547.3a23.12,23.12,0,0,1-7.84-1.24,16.36,16.36,0,0,1-5.89-3.5,15.33,15.33,0,0,1-3.69-5.48,19,19,0,0,1-1.3-7.18,20.53,20.53,0,0,1,1.1-6.84,15.84,15.84,0,0,1,3.16-5.4,14.33,14.33,0,0,1,5-3.58,16.37,16.37,0,0,1,6.63-1.31,17.55,17.55,0,0,1,3.53.36,20.38,20.38,0,0,1,3.41,1,19.93,19.93,0,0,1,3.1,1.55,25.86,25.86,0,0,1,3,2.22ZM393,215.59l-2.34,5.56-14.82,35.23H380l2.92-7h19.73l3,7h7.14l-17.24-40.79Zm-8.6,30.33L392.73,226l8.46,19.88Zm126.11,1-22.34-31.36h-4.27v40.79h3.6V226.27L509,256.38h5.16V215.59h-3.62Zm-73.65-15.53-13.44-15.83h-5.36v40.79h3.6V222.9l13.58,15.82,13.67-15.78v33.44h6.75V215.59H450.6Z" transform="translate(-194.39 -12.62)"/></svg>