<svg xmlns="http://www.w3.org/2000/svg" width="100" height="100" viewBox="0 0 26.4583 26.4583"><g fill="#334c90" fill-rule="evenodd" stroke-width=".5834"><path d="M4.0044.4609h11.168c-1.3592.4041-2.8654.5878-3.0859 2.0573-1.2858 5.2901-2.5348 10.5803-3.4533 15.9439.6246.1837 2.5349.7719 2.5349.7719L0 19.2703s2.2042-.6245 2.939-.845C4.4085 13.025 5.2167 9.4249 6.2453 3.9143c.0368-.147.4041-1.6165.2204-2.2042-.0734-.2205-.2204-.5144-.4408-.6613C5.3269.6078 4.886.571 4.0044.4609M17.9357 6.9309C13.821 8.988 12.094 15.013 14.5922 18.8337c.4045.7347 1.9104 1.249 2.939 1.0286 1.2123-.404 1.6532-.8082 2.3144-1.5797-.2204 1.2858-.4775 1.9839-1.065 3.8207-.882 1.9838-1.6531 3.6737-3.6737 3.2696.8813-1.1388 2.057-2.241 1.3222-3.784-.6977-1.5061-2.9754-1.102-3.086.6981-.073 1.69.7667 3.4189 2.3149 3.6002.771.0904 1.102.1102 1.8368.1102 2.4243-.0367 4.6285-1.8735 5.253-4.2615 1.5063-4.886 2.4618-9.9557 3.7105-14.9153-1.7634-.0367-3.1226-.2204-4.4084.698-1.2487-1.102-2.7182-1.396-4.1142-.5877zm-.4045 12.0865l-.0364-.7715c.22-3.7104 1.6896-10.2497 2.2777-10.6538.6242-.6245 1.4324-.2204 1.8369.4041-.1473 2.6818-1.8369 8.3761-1.8369 8.3761-.6245 1.2123-1.2127 2.645-2.2413 2.645z"/></g></svg>