<?xml version="1.0" encoding="utf-8"?>
<!-- Created by UniConvertor 2.0rc5 (https://sk1project.net/) -->
<svg xmlns="http://www.w3.org/2000/svg" height="474.675817323pt" viewBox="0 0 239.999992441 474.675817323" width="239.999992441pt" version="1.1" xmlns:xlink="http://www.w3.org/1999/xlink" id="639f2980-e480-11ec-9cfa-0242ac130004">
<defs id="defs1">
	<linearGradient y2="230.631985861" spreadMethod="reflect" gradientUnits="userSpaceOnUse" x2="119.474181184" y1="13.0828017758" x1="119.474181184" id="grad1">
		<stop style="stop-color:#ccff00;stop-opacity:1.0;" offset="0.0" />
		<stop style="stop-color:#4e6200;stop-opacity:1.0;" offset="1.0" />
	</linearGradient>
	<linearGradient y2="431.076879882" spreadMethod="reflect" gradientUnits="userSpaceOnUse" x2="115.056465661" y1="243.902500764" x1="113.562373484" id="grad2">
		<stop style="stop-color:#ccff00;stop-opacity:1.0;" offset="0.0" />
		<stop style="stop-color:#4e6200;stop-opacity:1.0;" offset="1.0" />
	</linearGradient>
	<linearGradient y2="302.874722424" spreadMethod="reflect" gradientUnits="userSpaceOnUse" x2="119.474181184" y1="-67.3693499923" x1="124.399829427" id="grad3">
		<stop style="stop-color:#ffffff;stop-opacity:1.0;" offset="0.0" />
		<stop style="stop-color:#ffffff;stop-opacity:0.0;" offset="1.0" />
	</linearGradient>
</defs>
<g>
	<g>
		<path style="fill:#002b00;" d="M 84.9009,0.0006 C 83.9523,0.0075 83.0055,0.0697 82.068,0.1836 71.8047,1.4304 65.281,9.6534 62.0629,17.0084 58.8449,24.3635 57.4889,32.2862 56.6833,39.9103 55.0721,55.1584 56.1457,69.5138 56.1457,69.5138 56.5981,75.6178 61.6634,80.4006 67.8436,80.4006 69.0307,80.4006 70.1766,80.2241 71.2566,79.896 71.1998,80.1131 71.2251,80.3102 71.2509,80.5057 66.4386,82.236 61.759,84.2265 57.3018,86.5289 29.7499,100.7615 8.3721,128.4997 1.7319,158.8193 -3.4559,182.5073 3.4037,207.9316 17.0645,226.9141 33.5049,249.759 59.2698,258.6303 80.6756,268.3744 80.4758,276.8971 80.1851,285.414 79.8107,293.9231 79.7915,293.9051 79.7743,293.8858 79.755,293.8678 79.7409,293.8555 79.7197,293.836 79.6983,293.8165 64.9888,280.3168 41.8268,277.8097 24.4001,290.0173 15.595,296.1854 10.9736,305.5349 9.3456,315.2612 7.7176,324.9874 9.5799,337.2483 19.8181,344.1251 19.9055,344.1838 19.9093,344.1833 19.9852,344.2342 19.8074,344.5825 19.5761,344.9971 19.2488,345.4866 16.508,349.5854 9.5714,354.9254 5.1114,364.524 3.9387,367.0477 3.0018,369.3589 2.6413,372.5411 2.2808,375.7233 3.0232,381.0576 6.7885,384.6316 10.5538,388.2056 14.7178,388.5157 17.2703,388.4582 19.8228,388.4007 21.6465,387.9429 23.374,387.4711 26.8288,386.5274 29.8465,385.301 32.3767,384.4049 34.8197,383.5397 37.05,383.2204 36.1324,383.2217 44.5662,383.1707 53.6591,384.503 63.272,386.5025 61.3885,387.7015 59.8993,389.369 58.9474,391.344 53.1563,403.6096 52.3685,420.1131 54.9776,437.1717 56.2821,445.7011 58.6175,454.1209 63.5911,461.4405 68.5648,468.7601 77.6788,474.896 88.0471,474.6697 94.8485,474.5213 101.1423,471.4023 105.3969,467.309 109.6515,463.2157 112.3179,458.3765 114.2843,453.4779 118.2172,443.6808 119.4396,433.2789 119.5351,424.8704 119.5671,422.0509 119.5893,420.0185 119.619,417.3797 119.6485,419.9935 119.671,422.0508 119.703,424.8704 119.7984,433.2788 121.021,443.6808 124.9537,453.4779 126.9201,458.3765 129.5862,463.2157 133.8408,467.309 138.0953,471.4023 144.3892,474.5213 151.1905,474.6697 161.5588,474.896 170.6729,468.7601 175.6465,461.4405 180.6202,454.1209 182.9556,445.7011 184.2601,437.1717 186.7492,420.8975 186.1357,405.1381 181.0733,393.1326 224.5408,370.906 243.9435,329.2536 239.3372,290.5015 234.7111,251.5829 205.9686,215.5261 158.8684,204.1047 158.7919,204.0849 158.7141,204.0668 158.6375,204.0471 158.682,202.3216 158.7195,200.5915 158.7706,198.8713 161.6317,200.6045 164.8826,201.8575 168.2908,202.6426 177.1025,204.6724 186.8184,205.0852 196.2496,202.0469 205.6808,199.0087 214.8884,191.4129 218.5508,180.1535 223.3978,165.2519 220.3297,151.4073 217.6967,139.8613 215.2897,129.3059 213.3511,120.4543 214.3204,112.8288 216.257,109.854 217.6653,106.4826 217.3826,101.8345 217.0148,95.7832 211.0489,89.8436 206.3597,88.6254 198.0439,86.465 191.9878,89.1095 186.8033,94.131 183.7301,95.2538 180.7402,95.1198 176.5567,93.9887 173.6053,93.1908 170.2667,91.7559 166.7568,90.0573 167.4306,84.5206 168.1291,79.0521 168.8729,73.7171 L 183.092,69.5138 C 183.092,69.5138 184.1654,55.1584 182.5543,39.9103 181.7488,32.2862 180.3932,24.3635 177.1751,17.0084 173.9571,9.6534 167.4333,1.4304 157.17,0.1836 149.6356,-0.7317 142.2488,2.3058 137.3753,6.6125 132.5019,10.9192 129.3755,16.2016 126.9504,21.6891 122.1002,32.664 120.076,44.7692 119.9555,54.701 119.8679,61.9275 119.7988,67.7456 119.7254,73.8873 119.6542,73.8811 119.583,73.8762 119.5119,73.8702 119.4389,67.7545 119.3697,61.9213 119.2821,54.701 119.1654,45.0796 117.2413,33.4215 112.7329,22.7214 110.4787,17.3714 107.5872,12.2164 103.1864,7.8522 98.7855,3.488 92.2202,-0.0523 84.9009,0.0006 L 84.9009,0.0006 Z" />
		<path style="fill:url(#grad1);" d="M 84.9856,11.7273 C 84.4928,11.7308 83.9918,11.7632 83.4821,11.8251 63.9693,14.1956 67.8431,68.6823 67.8431,68.6823 67.8431,68.6823 78.2373,54.891 81.8533,71.1558 82.66,76.8974 83.4263,82.757 84.152,88.7195 76.6098,90.7112 69.3607,93.4988 62.684,96.9478 38.634,109.3714 18.9783,134.8857 13.1872,161.3282 8.891,180.9448 14.8528,203.765 26.5827,220.0645 41.738,241.1236 68.8434,249.2286 92.5962,261.0371 92.0915,289.815 90.6266,318.7255 88.0807,346.9767 82.7352,344.0709 77.795,340.5949 73.5418,336.6867 78.4806,326.3383 81.9864,311.9758 71.7606,302.4479 61.4751,293.0088 43.4496,290.9911 31.1284,299.6223 20.5356,307.0427 16.0669,327.4788 26.3568,334.3903 42.5779,345.2856 20.7132,358.7762 15.7462,369.4658 8.7842,384.4491 28.1085,371.6554 35.845,371.4911 51.5902,371.3578 67.9278,375.2822 84.6293,379.4548 83.8161,386.06 82.9405,392.6112 81.9968,399.0948 78.3858,412.6175 70.7969,406.2246 69.5203,396.4221 62.5827,411.1102 62.499,463.4977 87.791,462.9457 102.8913,462.6161 107.6456,439.1146 107.8089,424.7375 107.9784,409.81 108.112,397.7426 108.2533,385.0769 115.7985,386.6642 123.3954,387.9469 131.024,388.5983 131.155,400.3069 131.2745,411.1354 131.429,424.7375 131.5922,439.1146 136.3462,462.6161 151.4465,462.9457 176.7384,463.4977 176.6548,411.1102 169.7172,396.4221 168.4406,406.2246 160.8521,412.6175 157.2411,399.0948 156.7101,395.4467 156.2015,391.7758 155.7121,388.0878 162.2113,387.1583 168.7185,385.5188 175.2213,382.9635 255.0831,342.6382 241.6583,236.237 156.0927,215.4983 153.0234,214.7045 149.8698,213.9302 146.673,213.142 147.1422,188.0333 148.3121,163.3782 150.0985,139.721 155.5264,144.0055 159.6179,149.7117 160.8944,156.9129 163.1725,169.7643 151.3214,186.7 170.9233,191.2152 185.2477,194.5148 202.3882,191.9312 207.399,176.5262 214.8137,153.7305 198.3692,131.2423 203.1577,108.303 210.7172,98.4545 199.4567,97.3933 193.6073,103.9578 180.3003,110.5793 166.441,103.3304 154.1374,96.7889 155.1338,88.0255 156.2165,79.4667 157.3842,71.1558 161.0002,54.891 171.3944,68.6823 171.3944,68.6823 171.3944,68.6823 175.2686,14.1956 155.7558,11.8251 139.4436,9.8434 131.8809,38.4125 131.6816,54.8435 131.5321,67.1652 131.4191,76.7406 131.289,87.5614 123.679,85.7584 115.7959,85.0361 107.9207,85.2554 107.7984,75.105 107.6948,66.2967 107.5559,54.8435 107.3628,38.926 100.2595,11.6169 84.9856,11.7273 Z M 121.112,129.8321 C 122.5793,129.8341 124.0265,129.9111 125.4418,130.0689 127.1868,130.2634 128.9754,130.5595 130.7765,130.9523 130.4235,161.9383 130.1763,186.7748 130.0443,208.7959 122.7931,206.7 115.6731,204.2483 109.1425,201.065 109.0046,181.1925 108.7768,158.7263 108.4684,131.606 112.6594,130.4413 116.9655,129.8293 121.112,129.8321 Z M 89.3223,142.1454 C 90.4457,157.4258 91.3101,173.1146 91.8968,189.0627 90.138,187.2695 88.511,185.337 87.0418,183.243 80.4404,173.8345 78.1626,158.8334 83.9474,148.902 85.3808,146.441 87.2051,144.1812 89.3223,142.1454 Z M 109.2698,270.3039 C 115.6986,273.6896 122.9597,276.4009 130.0075,279.2954 130.1175,301.1848 130.3405,325.5581 130.6643,355.9848 123.5705,356.9189 116.0254,356.4072 108.5867,354.7277 108.9475,320.709 109.18,294.3374 109.2698,270.3039 Z M 147.3967,287.9558 C 153.1433,291.7726 157.7922,296.4975 160.3463,302.9484 165.83,316.7987 162.4495,337.5856 151.2071,347.5445 149.4274,327.9144 148.1718,307.9624 147.3967,287.9558 Z" />
		<path style="fill:url(#grad2);" d="M 154.2164,15.7753 C 151.8321,15.7324 149.891,16.6133 147.8258,18.4384 145.4655,20.5242 143.2077,23.9446 141.3852,28.0685 137.7403,36.3162 135.8286,47.2705 135.7361,54.8925 135.5866,67.2135 135.4736,76.7886 135.3435,87.61 135.3157,89.8281 133.5105,91.6161 131.2885,91.6161 130.9571,91.6161 130.6349,91.5763 130.3266,91.5013 123.119,89.7928 115.586,89.0982 108.0337,89.3085 108.0002,89.3095 107.9608,89.31 107.9213,89.31 105.6993,89.31 103.8941,87.522 103.8664,85.3066 103.7441,75.153 103.6405,66.3449 103.5016,54.8925 103.412,47.5087 101.6222,36.9967 98.1893,28.8495 96.4729,24.7758 94.3429,21.3083 92.0737,19.0581 89.8045,16.8078 87.623,15.7631 85.015,15.7819 84.68,15.7843 84.333,15.8064 83.9711,15.8504 80.9549,16.2168 78.6127,18.5547 76.5214,23.3345 74.43,28.1143 73.0886,34.8394 72.3776,41.5685 71.6543,48.414 71.5428,55.1869 71.6052,60.2384 71.6682,60.2081 71.7225,60.1705 71.7862,60.1409 74.0534,59.0895 77.5589,58.6367 80.3971,60.5397 83.2353,62.4427 84.7918,65.6893 85.8115,70.2758 85.8303,70.3541 85.8504,70.4612 85.8661,70.5696 86.679,76.3589 87.4485,82.2432 88.1771,88.2293 88.196,88.3764 88.2068,88.5466 88.2068,88.7192 88.2068,90.5902 86.939,92.1657 85.2158,92.6334 77.9283,94.557 70.9499,97.2417 64.545,100.5503 41.7058,112.3484 22.6456,137.0937 17.1481,162.1957 13.1602,180.4044 18.8117,202.3242 29.8741,217.696 43.9785,237.2949 70.2099,245.3795 94.4014,257.406 95.7455,258.0854 96.6513,259.4557 96.6513,261.0373 96.6513,261.0622 96.6511,261.087 96.6506,261.1118 96.1444,289.976 94.675,318.9815 92.1193,347.3405 91.9262,349.4174 90.1914,351.0311 88.0805,351.0311 87.3708,351.0311 86.7037,350.8487 86.1234,350.5283 80.5275,347.4858 75.3214,343.8284 70.7983,339.6723 69.9912,338.9285 69.4872,337.8662 69.4872,336.6865 69.4872,336.0518 69.633,335.4512 69.893,334.9163 72.1984,330.0875 74.0999,324.3505 74.2857,319.1156 74.4713,313.8856 73.1984,309.3369 69.0075,305.4257 60.2461,297.3963 44.0066,295.5518 33.455,302.9432 29.3719,305.8035 25.9026,311.9428 24.9111,317.8662 23.9196,323.7897 25.2339,328.7514 28.6178,331.0243 33.3446,334.1991 36.0648,338.4044 36.2903,342.7539 36.5158,347.1033 34.6254,350.8829 32.3678,354.2592 27.8524,361.0118 21.2237,367.3002 19.4236,371.1742 19.2134,371.6266 19.1159,371.933 18.9722,372.3028 19.0606,372.2802 19.1238,372.2721 19.2151,372.2471 21.3364,371.6677 24.2272,370.5491 27.1081,369.5287 29.989,368.5084 32.7437,367.501 35.7588,367.4369 35.7665,367.4369 35.7756,367.4369 35.7847,367.4369 35.7938,367.4369 35.8029,367.4369 35.812,367.4369 52.2533,367.2978 68.8875,371.3429 85.6123,375.5214 87.3905,375.9769 88.6844,377.5655 88.6844,379.4557 88.6844,379.6302 88.6734,379.8022 88.6519,379.971 87.8374,386.5838 86.9578,393.1645 86.0095,399.6795 85.9828,399.8611 85.9496,400.0174 85.9077,400.1701 84.8997,403.9414 83.6187,406.7334 81.4608,408.7345 79.3028,410.7355 75.7108,411.3293 73.2139,410.2012 72.2244,409.7541 71.3842,409.1637 70.6185,408.5043 69.5409,416.0687 69.2288,425.9657 70.5779,434.7864 71.6565,441.8389 73.7341,448.2883 76.6444,452.5713 79.5547,456.8543 82.7783,458.9998 87.7025,458.8923 90.4312,458.8327 92.4653,457.8512 94.4552,455.9368 96.4451,454.0224 98.2346,451.096 99.6383,447.5994 102.4456,440.6061 103.6774,431.4589 103.7542,424.6921 103.9237,409.7652 104.0573,397.6981 104.1986,385.0323 104.2244,382.8127 106.0304,381.0227 108.2536,381.0227 108.5491,381.0227 108.8372,381.0543 109.1147,381.1143 116.5274,382.6744 123.9627,383.9264 131.3691,384.5589 133.4392,384.7411 135.0545,386.4554 135.0789,388.5513 135.2099,400.2627 135.3294,411.0907 135.4839,424.6921 135.5607,431.4589 136.7921,440.6061 139.5994,447.5994 141.003,451.096 142.793,454.0224 144.7828,455.9368 146.7727,457.8512 148.8065,458.8327 151.5352,458.8923 156.4594,458.9998 159.683,456.8543 162.5933,452.5713 165.5036,448.2883 167.5812,441.8389 168.6598,434.7864 170.0089,425.9659 169.6967,416.069 168.6192,408.5047 167.8536,409.1639 167.0135,409.7542 166.0242,410.2012 163.5272,411.3294 159.9352,410.7355 157.7773,408.7345 155.6194,406.7334 154.3383,403.9414 153.3237,400.1418 153.2885,400.0174 153.2553,399.8611 153.2313,399.7018 152.6949,396.013 152.184,392.3252 151.6926,388.6218 151.6702,388.4616 151.6574,388.2766 151.6574,388.0886 151.6574,386.052 153.1596,384.3655 155.1162,384.0769 161.2972,383.1934 167.4351,381.6464 173.5764,379.2482 212.0089,359.7554 227.536,324.9246 223.6658,292.3651 219.7893,259.7532 196.4249,229.4465 155.1378,219.4396 155.0897,219.4287 155.0695,219.4235 155.0493,219.4182 152.0411,218.6393 148.9016,217.8683 145.7023,217.0794 143.9182,216.6282 142.6184,215.0367 142.6184,213.1422 142.6184,213.1157 142.6187,213.0893 142.6192,213.0629 143.0897,187.8818 144.2631,163.152 146.0554,139.4165 146.2195,137.3128 147.9675,135.6672 150.0991,135.6672 151.0513,135.6672 151.927,135.9956 152.619,136.5452 158.6352,141.294 163.4148,147.9007 164.887,156.2058 166.2904,164.1228 163.6606,171.8268 163.4647,177.3349 163.3668,180.089 163.7502,182.0222 164.7389,183.4475 165.7275,184.8727 167.5604,186.2801 171.8335,187.2644 178.4254,188.7828 185.6521,188.8812 191.4104,187.0261 197.1688,185.1711 201.4377,181.7451 203.5431,175.2725 206.8564,165.0861 204.8793,154.638 202.31,143.3707 199.7406,132.1034 196.5504,120.1132 199.1885,107.4752 199.3225,106.8474 199.5849,106.2955 199.9483,105.8256 200.4473,105.1755 200.7636,104.6416 201.0111,104.1739 199.7442,104.5136 197.9128,105.2218 196.6349,106.656 196.2954,107.0353 195.8906,107.348 195.4368,107.5778 187.7292,111.4123 179.7168,111.1925 172.438,109.2247 165.1593,107.2568 158.3949,103.6453 152.2341,100.3697 150.9445,99.6735 150.0828,98.3318 150.0828,96.7892 150.0828,96.628 150.0922,96.469 150.1105,96.3126 151.1088,87.5351 152.196,78.9409 153.369,70.5922 153.3873,70.462 153.4073,70.3549 153.4315,70.2494 154.4459,65.6901 156.0024,62.4435 158.8406,60.5405 161.6788,58.6375 165.1843,59.0903 167.4515,60.1417 167.5161,60.1717 167.5689,60.2093 167.6325,60.24 167.6949,55.1884 167.5834,48.4152 166.8601,41.5693 166.1491,34.8403 164.808,28.1147 162.7167,23.3349 160.6254,18.5551 158.2831,16.2176 155.267,15.8512 154.9066,15.8074 154.557,15.7823 154.2164,15.7761 L 154.2164,15.7753 Z M 121.1148,125.7772 C 121.1152,125.7772 121.1157,125.7772 121.1161,125.7772 121.1166,125.7772 121.1171,125.7772 121.1176,125.7772 122.7232,125.7794 124.3177,125.8633 125.891,126.0387 127.7832,126.2496 129.7081,126.5691 131.6407,126.9906 133.4783,127.4019 134.8317,129.0196 134.8317,130.9527 134.8317,130.9687 134.8316,130.9847 134.8314,131.0006 134.4785,161.9811 134.2311,186.8111 134.0992,208.8201 134.0851,211.0487 132.2745,212.8505 130.044,212.8505 129.6431,212.8505 129.2557,212.7923 128.8899,212.6839 121.5372,210.5577 114.2031,208.0423 107.3661,204.7097 106.0149,204.0398 105.0995,202.6745 105.0879,201.0946 104.95,181.2304 104.7221,158.7694 104.4137,131.6519 104.4136,131.6383 104.4135,131.6224 104.4135,131.6064 104.4135,129.7536 105.6567,128.1905 107.3543,127.7062 111.9111,126.4408 116.5674,125.7741 121.1148,125.7772 L 121.1148,125.7772 Z M 89.4617,138.0932 C 91.536,138.1669 93.2099,139.7887 93.3655,141.8342 94.4934,157.1789 95.3604,172.917 95.949,188.9136 95.9507,188.9578 95.9517,189.0095 95.9517,189.0615 95.9517,191.3008 94.1357,193.1168 91.8964,193.1168 90.7634,193.1168 89.7388,192.6519 89.0029,191.9025 87.0988,189.9615 85.3263,187.8576 83.7224,185.5717 76.2089,174.8634 73.5319,158.7271 80.4435,146.8611 82.0866,144.04 84.153,141.4905 86.5119,139.2223 87.2398,138.5222 88.2307,138.0908 89.322,138.0908 89.3711,138.0908 89.42,138.0917 89.4687,138.0934 Z M 109.4045,266.2513 C 110.0496,266.2734 110.6505,266.4429 111.181,266.7269 117.264,269.9313 124.4181,272.6162 131.5482,275.5445 133.0296,276.165 134.0535,277.5994 134.0624,279.2736 134.1723,301.1518 134.3954,325.5178 134.7192,355.9413 134.7193,355.9542 134.7194,355.9693 134.7194,355.9845 134.7194,358.037 133.1937,359.7339 131.2148,360.0027 123.5411,361.0127 115.5344,360.4532 107.6937,358.683 105.8705,358.2605 104.5318,356.6499 104.5318,354.7273 104.5318,354.7123 104.5319,354.6973 104.5321,354.6824 104.8928,320.6697 105.1253,294.3072 105.2151,270.2887 105.224,268.0562 107.0366,266.2491 109.2704,266.2491 109.3175,266.2491 109.3645,266.2499 109.4113,266.2515 Z M 147.3593,283.9012 C 147.3706,283.9011 147.384,283.9011 147.3974,283.9011 148.2329,283.9011 149.0094,284.1538 149.6547,284.5871 155.832,288.6902 161.1919,294.0689 164.1165,301.4556 167.2189,309.2915 167.7276,318.6108 166.0315,327.4681 164.3355,336.3253 160.4142,344.8054 153.8958,350.5796 153.1837,351.212 152.2407,351.5985 151.2076,351.5985 149.0976,351.5985 147.3633,349.9861 147.1702,347.9264 145.3826,328.2049 144.1227,308.1844 143.3451,288.1127 143.3432,288.066 143.3421,288.0113 143.3421,287.9563 143.3421,285.7304 145.1365,283.9228 147.3573,283.9012 Z" />
		<path style="fill:url(#grad3);" d="M 84.9856,11.7271 C 84.4929,11.7307 83.9919,11.763 83.4822,11.825 63.9694,14.1954 67.8432,68.6821 67.8432,68.6821 67.8432,68.6821 78.2373,54.8909 81.8534,71.1557 82.66,76.8973 83.4264,82.7569 84.1521,88.7194 76.6099,90.7111 69.3608,93.4987 62.6841,96.9477 38.6341,109.3713 18.9784,134.8855 13.1873,161.3281 8.8911,180.9446 14.8528,203.7648 26.5828,220.0643 32.1287,227.7706 39.2757,233.7413 47.2722,238.7946 L 200.5833,238.7946 C 189.1293,228.1433 174.2332,219.8949 156.0928,215.4982 153.0235,214.7044 149.8699,213.93 146.6731,213.1418 147.1423,188.0332 148.3122,163.378 150.0986,139.7208 155.5264,144.0053 159.618,149.7115 160.8945,156.9128 163.1726,169.7642 151.3215,186.6998 170.9233,191.2151 185.2478,194.5147 202.3883,191.9311 207.399,176.5261 214.8138,153.7304 198.3693,131.2422 203.1578,108.3029 210.7173,98.4544 199.4568,97.3932 193.6074,103.9576 180.3004,110.5792 166.4411,103.3303 154.1375,96.7887 155.1339,88.0254 156.2166,79.4666 157.3843,71.1557 161.0003,54.8909 171.3945,68.6821 171.3945,68.6821 171.3945,68.6821 175.2687,14.1954 155.7559,11.825 139.4437,9.8433 131.881,38.4124 131.6817,54.8433 131.5322,67.165 131.4192,76.7404 131.2891,87.5613 123.6791,85.7583 115.796,85.0359 107.9208,85.2552 107.7985,75.1049 107.6949,66.2966 107.556,54.8433 107.3629,38.9259 100.2596,11.6167 84.9856,11.7271 Z M 121.1121,129.832 C 122.5794,129.834 124.0266,129.911 125.4419,130.0687 127.1869,130.2632 128.9755,130.5594 130.7766,130.9522 130.4236,161.9382 130.1764,186.7746 130.0444,208.7958 122.7932,206.6998 115.6732,204.2482 109.1426,201.0649 109.0047,181.1924 108.7769,158.7262 108.4685,131.6058 112.6595,130.4412 116.9656,129.8291 121.1121,129.832 Z M 89.3224,142.1453 C 90.4458,157.4257 91.3102,173.1145 91.8969,189.0626 90.1381,187.2693 88.5111,185.3368 87.0419,183.2428 80.4404,173.8344 78.1627,158.8333 83.9475,148.9019 85.3809,146.4408 87.2052,144.1811 89.3224,142.1453 Z" />
	</g>
</g>
</svg>