<svg xmlns="http://www.w3.org/2000/svg" width="196" height="49" viewBox="0 0 196 49">
    <defs>
        <linearGradient id="dbvgbi9voa" x1="-7.767%" x2="395.78%" y1="63.68%" y2="-31.227%">
            <stop offset="0%" stop-color="#21E418"/>
            <stop offset="30%" stop-color="#31B6E9"/>
            <stop offset="97.57%" stop-color="#21E418"/>
        </linearGradient>
        <linearGradient id="d7cotcbu8b" x1="-297.257%" x2="749.419%" y1="137.578%" y2="-126.761%">
            <stop offset="0%" stop-color="#21E418"/>
            <stop offset="30%" stop-color="#31B6E9"/>
            <stop offset="97.57%" stop-color="#21E418"/>
        </linearGradient>
        <linearGradient id="s6hjgov64c" x1="-5.718%" x2="136.177%" y1="154.043%" y2="-110.957%">
            <stop offset="0%" stop-color="#21E418"/>
            <stop offset="30%" stop-color="#31B6E9"/>
            <stop offset="97.57%" stop-color="#21E418"/>
        </linearGradient>
        <linearGradient id="2oo37j3wgd" x1="-458.219%" x2="710.855%" y1="194.521%" y2="-136.729%">
            <stop offset="0%" stop-color="#21E418"/>
            <stop offset="30%" stop-color="#31B6E9"/>
            <stop offset="97.57%" stop-color="#21E418"/>
        </linearGradient>
        <linearGradient id="paeoun07ce" x1="-332.39%" x2="443.632%" y1="212.318%" y2="-125.261%">
            <stop offset="0%" stop-color="#21E418"/>
            <stop offset="30%" stop-color="#31B6E9"/>
            <stop offset="97.57%" stop-color="#21E418"/>
        </linearGradient>
        <linearGradient id="ah52gl4z8f" x1="-603.858%" x2="600.249%" y1="229.833%" y2="-101.418%">
            <stop offset="0%" stop-color="#21E418"/>
            <stop offset="30%" stop-color="#31B6E9"/>
            <stop offset="97.57%" stop-color="#21E418"/>
        </linearGradient>
        <linearGradient id="snug48izlg" x1="-343.723%" x2="305.007%" y1="201.26%" y2="-48.152%">
            <stop offset="0%" stop-color="#21E418"/>
            <stop offset="30%" stop-color="#31B6E9"/>
            <stop offset="97.57%" stop-color="#21E418"/>
        </linearGradient>
        <linearGradient id="00cptfrj9h" x1="-734.644%" x2="424.298%" y1="276.945%" y2="-54.258%">
            <stop offset="0%" stop-color="#21E418"/>
            <stop offset="30%" stop-color="#31B6E9"/>
            <stop offset="97.57%" stop-color="#21E418"/>
        </linearGradient>
        <linearGradient id="fj1e3bdgti" x1="-736.15%" x2="291.888%" y1="193.405%" y2="6.415%">
            <stop offset="0%" stop-color="#21E418"/>
            <stop offset="30%" stop-color="#31B6E9"/>
            <stop offset="97.57%" stop-color="#21E418"/>
        </linearGradient>
        <linearGradient id="8qjx95t0tj" x1="-68.08%" x2="73.816%" y1="270.531%" y2="5.532%">
            <stop offset="0%" stop-color="#21E418"/>
            <stop offset="30%" stop-color="#31B6E9"/>
            <stop offset="97.57%" stop-color="#21E418"/>
        </linearGradient>
        <linearGradient id="5euyxazqyk" x1="-961.987%" x2="192.279%" y1="345.609%" y2="9.228%">
            <stop offset="0%" stop-color="#21E418"/>
            <stop offset="30%" stop-color="#31B6E9"/>
            <stop offset="97.57%" stop-color="#21E418"/>
        </linearGradient>
        <linearGradient id="rntzlykpbl" x1="-560.279%" x2="88.451%" y1="284.484%" y2="35.072%">
            <stop offset="0%" stop-color="#21E418"/>
            <stop offset="30%" stop-color="#31B6E9"/>
            <stop offset="97.57%" stop-color="#21E418"/>
        </linearGradient>
    </defs>
    <g fill="none" fill-rule="evenodd">
        <g fill-rule="nonzero">
            <g>
                <path fill="url(#dbvgbi9voa)" d="M24.135 0C10.87 0 0 10.56 0 23.84c0 2.4.32 4.64 1.119 6.88.48-.64.959-1.28 1.279-1.92 1.758-2.4 3.356-4.96 4.954-7.36l1.12-1.92c.319-.64.798-1.28 1.118-1.92.8-1.28 1.599-2.56 2.238-3.84.32-.64.64-1.28 1.119-1.92.48-.64.64-1.28 1.119-1.92.48-.64.639-1.28.959-1.92l.959-1.76.16-.16c.479-1.12 1.758-1.44 2.876-.96.8.48 1.28 1.28 1.28 2.24 0 1.12-.16 2.4-.32 3.52s-.16 2.4-.16 3.52c-.16 2.4-.16 4.64-.16 6.88s.16 4.64.32 6.72l.479 3.36c.16.96.48 1.92.959 2.88.16.32.32.48.48.8.16.16 0 0 .16 0h.479l.16-.16.959-.96c.64-.8 1.438-1.6 1.918-2.56.64-.96 1.119-1.92 1.758-2.88 1.119-2.08 2.238-4.16 3.197-6.24.48-1.12.959-2.08 1.438-3.2.48-1.12.96-2.24 1.439-3.2.48-1.12 1.758-1.6 2.877-1.12.64.32 1.119.96 1.278 1.6 0 .32 0 .64.16.96l.16.96c.16.64.16 1.28.32 1.92.16 1.28.48 2.72.799 4 .32 1.28.8 2.56 1.279 3.84.48 1.28 1.119 2.4 2.078 3.52.16.32.16.64-.16.8-.16.16-.48.16-.64 0-1.118-.96-2.077-2.08-2.877-3.2-.799-1.12-1.598-2.4-2.237-3.68-.48-.96-.8-1.76-1.12-2.72-.319.48-.479 1.12-.798 1.6-1.12 2.24-2.078 4.32-3.357 6.4-.64 1.12-1.279 2.24-1.918 3.2-.64 1.12-1.439 2.24-2.398 3.2-.479.64-1.118 1.12-1.598 1.6-.16.16-.32.32-.64.32l-.319.16-.16.16h-.48c-.16 0-.16.16-.319.16-.32 0-.48.16-.8.16-.638 0-1.118 0-1.757-.16-.64-.16-.96-.48-1.439-.8-.64-.64-1.279-1.28-1.598-2.08-.64-1.28-1.119-2.56-1.279-4-.32-1.28-.48-2.56-.64-3.68-.319-2.4-.319-4.96-.319-7.2v-3.52c-.48.8-.959 1.6-1.279 2.4-.32.64-.639 1.28-1.118 1.92l-1.12 1.92c-1.438 2.72-3.036 5.28-4.635 7.68-.959 1.6-2.077 3.36-3.196 4.96C11.508 48 26.373 51.2 37.56 43.84c11.189-7.04 14.226-21.92 6.873-32.8C39.8 4.16 32.287 0 24.135 0z" transform="translate(-948.000000, -336.000000) translate(948.048246, 336.823885)"/>
                <path fill="url(#d7cotcbu8b)" d="M69.049 32.32L69.049 16.48 68.73 16.48 63.615 32.32 62.336 32.32 57.221 16.48 56.742 16.48 56.742 32.32 54.664 32.32 54.664 15.04 58.5 15.04 62.975 28.96 67.451 15.04 71.287 15.04 71.287 32.64 69.049 32.32z" transform="translate(-948.000000, -336.000000) translate(948.048246, 336.823885)"/>
                <path fill="url(#s6hjgov64c)" d="M74.324 17.28v-2.24h2.237v2.24h-2.237zm0 15.04V18.88h2.237v13.44h-2.237z" transform="translate(-948.000000, -336.000000) translate(948.048246, 336.823885)"/>
                <path fill="url(#2oo37j3wgd)" d="M90.307 28c0 2.72-.959 4.64-5.434 4.64-5.594 0-5.914-3.2-5.914-6.88 0-3.68.32-6.88 5.914-6.88 4.475 0 5.434 2.08 5.434 4.64H88.23c0-2.24-.8-3.2-3.357-3.2-3.516 0-3.676 1.92-3.676 5.6 0 3.68.16 5.6 3.676 5.6 2.557 0 3.357-1.12 3.357-3.2h2.077V28z" transform="translate(-948.000000, -336.000000) translate(948.048246, 336.823885)"/>
                <path fill="url(#paeoun07ce)" d="M94.623 20.32c1.119-.64 2.397-1.6 3.676-1.6h1.918l-.16 1.6H98.3c-1.119 0-2.397.96-3.356 1.44v10.56h-2.238V18.88h1.758l.16 1.44z" transform="translate(-948.000000, -336.000000) translate(948.048246, 336.823885)"/>
                <path fill="url(#ah52gl4z8f)" d="M112.684 25.6c0 3.84-.32 6.88-5.914 6.88-5.594 0-5.913-3.2-5.913-6.88 0-3.68.32-6.88 5.913-6.88 5.595 0 5.914 3.04 5.914 6.88zm-9.75 0c0 3.68.16 5.6 3.677 5.6 3.516 0 3.676-1.76 3.676-5.6s-.16-5.6-3.676-5.6c-3.357.16-3.677 1.92-3.677 5.6z" transform="translate(-948.000000, -336.000000) translate(948.048246, 336.823885)"/>
                <path fill="url(#snug48izlg)" d="M116.84 35.52c.8.16 1.918.16 3.197.16 3.516 0 3.836-.96 3.996-4.48-.96.64-2.398 1.28-3.836 1.28-4.955.16-5.275-2.56-5.275-6.72s.32-6.88 5.115-6.88c1.598 0 3.197.8 4.315 1.44l.16-1.28h1.758v12c0 4.96-1.118 6.24-5.594 6.24-1.278 0-2.717-.16-3.996-.32l.16-1.44zm7.033-14.24c-.96-.64-2.238-1.28-3.357-1.28-3.356 0-3.516 1.92-3.516 5.6 0 3.68.16 5.28 3.516 5.28 1.12 0 2.398-.64 3.357-1.12v-8.48z" transform="translate(-948.000000, -336.000000) translate(948.048246, 336.823885)"/>
                <path fill="url(#00cptfrj9h)" d="M138.418 32.32l-.16-1.28c-1.119.64-2.557 1.44-4.156 1.44-4.954.16-5.274-2.72-5.274-6.88s.32-6.88 5.274-6.88c1.599 0 3.037.8 4.156 1.44l.16-1.12h1.758v13.44h-1.758v-.16zm-.48-11.04c-.958-.48-2.237-1.12-3.356-1.12-3.357 0-3.516 1.92-3.516 5.6 0 3.68.16 5.6 3.516 5.6 1.119 0 2.398-.64 3.357-1.28v-8.8z" transform="translate(-948.000000, -336.000000) translate(948.048246, 336.823885)"/>
                <path fill="url(#fj1e3bdgti)" d="M144.811 20c.96-.64 2.398-1.44 3.837-1.44 2.237-.16 3.516.48 3.995 1.44 1.12-.64 2.398-1.44 3.996-1.44 4.636-.16 4.955 2.24 4.955 5.6v8.16h-2.237v-8c0-2.88-.16-4.16-3.197-4.16-1.119 0-2.238.64-3.197 1.28.16.96.32 1.92.32 3.04v8h-1.918v-8c0-2.88-.16-4.16-3.197-4.16-1.119 0-2.238.64-3.037 1.12v11.04h-2.238V19.04h1.759l.16.96z" transform="translate(-948.000000, -336.000000) translate(948.048246, 336.823885)"/>
                <path fill="url(#8qjx95t0tj)" d="M164.631 17.28v-2.24h2.238v2.24h-2.238zm0 15.04V18.88h2.238v13.44h-2.238z" transform="translate(-948.000000, -336.000000) translate(948.048246, 336.823885)"/>
                <path fill="url(#5euyxazqyk)" d="M171.664 20c1.119-.64 2.557-1.44 4.156-1.44 4.955-.16 5.274 2.24 5.274 5.6v8.16h-2.237v-8c0-2.88-.16-4.16-3.517-4.16-1.119 0-2.397.64-3.356 1.12v11.04h-2.238V18.88h1.758l.16 1.12z" transform="translate(-948.000000, -336.000000) translate(948.048246, 336.823885)"/>
                <path fill="url(#rntzlykpbl)" d="M185.57 35.52c.799.16 1.918.16 3.196.16 3.517 0 3.836-.96 3.996-4.48-.959.64-2.397 1.28-3.836 1.28-4.955.16-5.274-2.56-5.274-6.72s.32-6.88 5.114-6.88c1.599 0 3.197.8 4.316 1.44l.16-1.28H195v12c0 4.96-1.119 6.24-5.594 6.24-1.279 0-2.717-.16-3.996-.32l.16-1.44zm7.032-14.24c-.959-.64-2.237-1.28-3.356-1.28-3.357 0-3.516 1.92-3.516 5.6 0 3.68.16 5.28 3.516 5.28 1.119 0 2.397-.64 3.356-1.12v-8.48z" transform="translate(-948.000000, -336.000000) translate(948.048246, 336.823885)"/>
            </g>
        </g>
    </g>
</svg>
