<?xml version="1.0" encoding="utf-8"?>
<!-- Created by UniConvertor 2.0rc5 (https://sk1project.net/) -->
<svg xmlns="http://www.w3.org/2000/svg" height="64.0px" width="64.0px" version="1.1" xmlns:xlink="http://www.w3.org/1999/xlink" id="9343cbe0-e4ae-11ec-a557-0242ac130003">
<defs id="defs1">
	<clipPath clipPathUnits="userSpaceOnUse" id="clipPath1">
		<path style="fill:none;" d="M 2.55,0.0 L 2.55,64.0 61.47,64.0 61.47,0.0 2.55,0.0 Z" /></clipPath>
</defs>
<g>
	<g clip-path="url(#clipPath1)">
		<path style="fill:#008000;" d="M 59.28,7.52 C 57.44,4.69 53.77,2.71 48.0,1.46 43.4597,0.5283 38.244,-0.0052 32.904,-0.0052 32.5862,-0.0052 32.2688,-0.0033 31.9519,0.0005 31.7323,-0.0033 31.4162,-0.0052 31.0997,-0.0052 25.7584,-0.0052 20.5414,0.5283 15.4991,1.5449 10.24,2.71 6.57,4.69 4.74,7.52 1.74,12.17 2.43,19.0 3.24,26.8 3.39,28.24 3.54,29.72 3.67,31.17 4.1226,36.59 4.7884,41.4175 5.6904,46.1615 7.08,53.28 8.75,56.1 9.87,57.52 14.63,63.53 28.0,64.0 32.0,64.0 36.0,64.0 49.38,63.53 54.14,57.52 55.26,56.1 56.93,53.29 58.46,45.28 59.52,39.76 60.1,34.07 60.35,31.17 60.47,29.72 60.62,28.24 60.77,26.8 61.58,18.95 62.27,12.17 59.28,7.52 M 58.57,26.57 C 58.43,28.02 58.27,29.52 58.15,30.98 57.9,33.84 57.34,39.45 56.3,44.86 54.86,52.4 53.39,54.86 52.41,56.15 48.16,61.52 34.67,61.79 32.0,61.79 29.33,61.79 15.85,61.52 11.6,56.15 10.6,54.91 9.16,52.4 7.71,44.86 6.71,39.45 6.11,33.86 5.86,30.98 5.74,29.52 5.58,27.98 5.44,26.57 4.67,19.14 4.0,12.71 6.59,8.72 8.09,6.4 11.31,4.72 16.44,3.62 20.8343,2.7196 25.8824,2.2041 31.0506,2.2041 31.3844,2.2041 31.7176,2.2062 32.0504,2.2105 32.2841,2.2062 32.6194,2.204 32.9551,2.204 38.1249,2.204 43.1744,2.7196 48.0552,3.7021 52.7,4.74 55.92,6.4 57.42,8.72 60.0,12.71 59.34,19.14 58.57,26.57 Z M 32.0,5.36 C 43.43,5.36 52.72,7.25 54.77,10.43 57.19,14.17 55.71,22.52 55.01,30.72 54.31,38.92 52.59,50.84 49.93,54.2 47.62,57.12 39.34,58.64 32.0,58.64 24.66,58.64 16.39,57.12 14.08,54.2 11.42,50.84 9.71,38.9 9.0,30.72 8.29,22.54 6.81,14.17 9.23,10.43 11.3,7.25 20.58,5.36 32.0,5.36 M 15.14,16.76 C 14.83,16.93 14.7,17.48 14.7,17.48 L 14.37,18.93 C 14.349,19.0112 14.3369,19.1044 14.3369,19.2004 14.3369,19.3943 14.3862,19.5767 14.4729,19.7358 14.7,20.18 16.16,20.44 16.16,20.44 16.16,20.44 18.69,20.84 19.7,22.08 20.1382,22.685 20.401,23.4418 20.401,24.2599 20.401,24.5506 20.3678,24.8335 20.3051,25.1051 L 17.54,38.55 C 17.3876,39.3287 17.0345,40.0079 16.537,40.5531 16.0459,40.9267 15.4288,41.1657 14.7577,41.1997 14.3578,41.2072 13.9841,41.2762 13.6349,41.3977 13.3,41.54 13.19,42.14 13.19,42.14 L 13.0,43.0 C 12.9855,43.0616 12.9772,43.1322 12.9772,43.2048 12.9772,43.3884 13.0304,43.5595 13.1223,43.7037 13.323,43.9198 13.6018,44.0669 13.9146,44.0995 L 27.86,44.2 C 28.1076,44.1808 28.3309,44.0898 28.5126,43.9479 28.6575,43.755 28.7577,43.5165 28.7893,43.2569 L 29.06,42.0 C 29.0768,41.9387 29.0865,41.8684 29.0865,41.7957 29.0865,41.6421 29.0432,41.4985 28.968,41.3766 28.74,41.1 28.55,41.12 27.9,40.97 27.2387,40.7915 26.6711,40.4539 26.2203,40.0001 25.8663,39.6221 25.6489,39.1126 25.6489,38.5525 25.6489,38.3886 25.6675,38.229 25.7028,38.0758 L 26.93,31.32 C 26.93,31.32 27.08,30.83 27.4,30.85 27.6884,30.8646 27.9303,31.0493 28.0284,31.3052 L 34.68,43.21 C 34.8347,43.4727 35.0281,43.6947 35.2553,43.8762 35.5916,44.0525 35.9833,44.1555 36.3986,44.16 L 47.64,44.06 C 47.6563,44.0606 47.6754,44.061 47.6946,44.061 47.9976,44.061 48.2797,43.9711 48.5156,43.8165 48.7305,43.6136 48.8895,43.344 48.9581,43.0402 L 49.18,42.03 C 49.2151,41.919 49.2354,41.7913 49.2354,41.659 49.2354,41.4672 49.1929,41.2853 49.1167,41.1222 48.88,40.61 47.9,40.5 46.82,40.13 45.9314,39.8819 45.1749,39.4038 44.5936,38.7637 44.34,38.37 44.59,37.59 44.59,37.59 L 48.34,22.19 C 48.495,21.7203 48.7531,21.3203 49.0889,21.0013 49.7054,20.5601 50.4348,20.2357 51.224,20.0761 51.5158,20.0211 51.7397,19.9082 51.9215,19.7486 52.0427,19.6004 52.1306,19.4178 52.1688,19.2175 L 52.59,17.56 C 52.6085,17.4935 52.6191,17.4171 52.6191,17.3383 52.6191,17.1515 52.5595,16.9785 52.4582,16.8375 52.24,16.58 51.65,16.58 51.65,16.58 L 38.83,16.58 C 38.5125,16.585 38.223,16.7014 37.9981,16.8916 37.7969,17.0447 37.6482,17.2616 37.5818,17.512 L 37.27,18.9 C 37.2403,18.9927 37.2232,19.0994 37.2232,19.21 37.2232,19.3206 37.2403,19.4273 37.272,19.5274 37.3643,19.7181 37.5536,19.8575 37.7774,19.8798 L 38.32,19.97 C 38.9018,20.0902 39.4116,20.3425 39.8355,20.6947 40.35,21.2 40.1,22.56 40.1,22.56 L 38.23,31.56 31.46,18.57 C 31.2414,18.0431 30.9259,17.5961 30.5324,17.2324 30.0583,16.8129 29.4345,16.5581 28.7514,16.5581 28.7157,16.5581 28.6803,16.5588 28.6449,16.5602 L 16.0,16.56 C 15.6865,16.5691 15.3922,16.6419 15.1264,16.7658 Z" />
	</g>
</g>
</svg>