<?xml version="1.0" encoding="utf-8"?>
<!-- Created by UniConvertor 2.0rc5 (https://sk1project.net/) -->
<svg xmlns="http://www.w3.org/2000/svg" height="595.28px" width="841.89px" version="1.1" xmlns:xlink="http://www.w3.org/1999/xlink" id="9671115c-e480-11ec-b0a5-0242ac120003">

<g>
	<g>
		<g>
			<path style="stroke-linejoin:round;stroke:#000000;stroke-linecap:round;stroke-miterlimit:10.0;stroke-width:2.0;fill:#521512;" d="M 632.86,178.1 C 670.697,259.657 595.438,367.74 545.307,413.69 530.119,427.613 510.493,442.808 487.661,456.39 487.849,457.863 487.417,459.027 486.034,459.625 484.375,460.344 482.849,460.458 481.492,459.973 473.961,464.244 466.125,468.331 457.989,472.117 364.108,515.796 275.029,496.992 232.309,459.69 219.033,448.097 208.142,434.498 200.541,418.795 228.34,484.495 363.571,582.985 530.791,460.236 601.701,408.206 686.861,289.326 632.861,178.116 L 632.86,178.1 Z" />
			<path style="stroke-linejoin:round;stroke:#000000;stroke-linecap:round;stroke-miterlimit:10.0;stroke-width:2.0;fill:#7b2b18;" d="M 632.86,178.1 C 625.411,162.043 613.579,147.014 596.307,133.69 491.307,52.69 326.307,103.69 237.307,230.69 184.001,312.129 178.867,374.02 200.539,418.79 208.14,434.492 219.03,448.092 232.307,459.685 275.027,496.987 364.107,515.79 457.987,472.112 466.123,468.327 473.959,464.24 481.49,459.968 478.773,458.997 476.742,455.583 475.747,449.501 474.694,443.063 474.753,438.055 479.231,443.031 482.465,446.625 487.169,452.554 487.659,456.385 510.49,442.803 530.116,427.608 545.305,413.685 595.435,367.745 670.685,259.665 632.855,178.105 L 632.86,178.1 Z M 338.93,147.32 C 339.233,151.027 339.535,156.397 338.93,157.002 338.325,157.607 335.148,153.628 333.332,150.285 328.982,142.265 338.472,141.695 338.932,147.325 L 338.93,147.32 Z M 238.61,450.08 C 236.981,456.408 229.885,452.773 233.625,447.735 237.365,442.697 240.432,440.396 241.103,440.78 242.163,441.38 239.653,446.02 238.613,450.08 L 238.61,450.08 Z M 608.76,259.95 C 599.335,325.942 550.556,386.14 489.89,425.42 427.061,466.105 292.63,505.136 232.88,415.51 210.203,376.769 212.617,335.315 226.137,297.68 245.157,244.744 286.154,199.373 310.199,179.76 387.741,116.502 457.609,111.961 507.829,124.533 595.869,146.583 616.689,204.433 608.759,259.953 L 608.76,259.95 Z M 601.85,164.0 C 593.062,167.516 592.67,165.172 598.725,159.606 604.78,154.04 608.61,152.672 610.308,155.211 611.818,158.711 610.648,160.471 601.858,163.991 L 601.85,164.0 Z" />
			<path style="stroke-linejoin:round;stroke:#000000;stroke-linecap:round;stroke-miterlimit:10.0;stroke-width:2.0;fill:#cc9438;" d="M 434.87,253.65 C 439.655,259.061 432.533,273.175 418.964,285.177 405.394,297.179 390.514,302.523 385.73,297.113 382.226,293.152 385.111,284.525 392.23,275.477 391.158,274.103 390.012,272.642 388.833,271.15 387.989,270.71 387.213,270.151 386.548,269.441 385.569,268.396 384.911,267.144 384.537,265.775 383.345,264.303 382.168,262.867 381.046,261.523 377.308,257.046 373.129,253.099 368.938,250.723 345.209,275.713 336.842,308.933 349.896,328.066 365.73,351.273 407.064,344.954 443.451,320.125 479.839,295.294 496.501,256.356 480.667,233.151 466.46,212.329 430.915,211.262 397.477,229.198 399.839,237.02 405.983,247.065 413.792,256.757 423.172,251.357 431.522,249.847 434.882,253.647 L 434.87,253.65 Z" />
			<path style="stroke-linejoin:round;stroke:#000000;stroke-linecap:round;stroke-miterlimit:10.0;stroke-width:2.0;fill:#cd912b;" d="M 413.1,198.87 C 413.1,198.871 413.099,198.872 413.099,198.872 415.501,194.767 415.243,190.194 414.658,190.655 L 414.658,190.655 C 413.278,191.742 411.82,192.895 410.303,194.098 410.303,194.108 414.803,196.588 413.103,198.878 L 413.1,198.87 Z" />
			<path style="stroke-linejoin:round;stroke:#000000;stroke-linecap:round;stroke-miterlimit:10.0;stroke-width:2.0;fill:#cd912b;" d="M 429.34,179.4 C 428.804,177.751 427.724,175.934 426.297,174.283 423.897,171.506 421.046,169.781 418.858,169.781 417.94,169.781 417.119,170.07 416.485,170.618 415.363,171.587 415.085,172.995 415.353,174.55 416.011,174.062 416.665,173.587 417.322,173.104 417.389,172.704 417.529,172.36 417.793,172.132 418.119,171.85 418.57,171.747 419.103,171.796 420.637,171.937 422.857,173.362 424.785,175.592 426.304,177.349 427.282,179.203 427.598,180.667 427.822,181.707 427.721,182.557 427.196,183.011 426.621,183.509 425.657,183.451 424.535,182.967 423.984,183.387 423.402,183.833 422.778,184.314 423.964,184.986 425.119,185.361 426.131,185.361 427.05,185.361 427.87,185.071 428.504,184.524 428.786,184.28 429.117,183.902 429.365,183.362 429.765,182.512 429.945,181.242 429.345,179.402 L 429.34,179.4 Z" />
			<path style="stroke-linejoin:round;stroke:#000000;stroke-linecap:round;stroke-miterlimit:10.0;stroke-width:2.0;fill:#cd912b;" d="M 427.2,183.01 C 427.725,182.556 427.826,181.706 427.602,180.666 426.774,181.272 425.747,182.043 424.539,182.966 425.659,183.446 426.619,183.506 427.199,183.006 L 427.2,183.01 Z" />
			<path style="stroke-linejoin:round;stroke:#000000;stroke-linecap:round;stroke-miterlimit:10.0;stroke-width:2.0;fill:#cd912b;" d="M 417.8,172.13 C 417.535,172.359 417.396,172.702 417.329,173.102 417.923,172.664 418.517,172.227 419.11,171.794 418.57,171.754 418.12,171.854 417.8,172.134 L 417.8,172.13 Z" />
			<path style="stroke-linejoin:round;stroke:#000000;stroke-linecap:round;stroke-miterlimit:10.0;stroke-width:2.0;fill:#cd912b;" d="M 431.86,169.13 C 427.824,164.715 420.761,167.364 416.493,170.62 417.127,170.072 417.947,169.783 418.866,169.783 421.054,169.783 423.905,171.508 426.305,174.285 427.732,175.936 428.812,177.753 429.348,179.402 429.944,181.236 429.765,182.507 429.371,183.364 429.371,183.364 429.373,183.364 429.375,183.363 433.075,179.053 435.905,173.543 431.875,169.133 L 431.86,169.13 Z" />
			<path style="stroke-linejoin:round;stroke:#000000;stroke-linecap:round;stroke-miterlimit:10.0;stroke-width:2.0;fill:#e6c33a;" d="M 384.54,260.02 C 380.255,253.337 370.919,238.649 365.927,229.807 355.062,238.641 344.302,247.451 334.993,255.144 333.642,256.552 335.045,258.609 338.313,260.243 344.384,256.507 348.353,254.171 356.058,249.735 360.024,247.451 364.486,248.203 368.933,250.723 373.124,253.099 377.303,257.046 381.041,261.523 382.163,262.867 383.34,264.303 384.532,265.775 384.042,263.995 384.062,262.015 384.532,260.015 L 384.54,260.02 Z" />
			<path style="stroke-linejoin:round;stroke:#000000;stroke-linecap:round;stroke-miterlimit:10.0;stroke-width:2.0;fill:#cd912b;" d="M 335.0,255.14 C 330.706,258.695 332.25,263.975 338.32,260.239 335.05,258.599 333.65,256.549 335.0,255.139 L 335.0,255.14 Z" />
			<path style="stroke-linejoin:round;stroke:#000000;stroke-linecap:round;stroke-miterlimit:10.0;stroke-width:2.0;fill:#f8be35;" d="M 378.69,219.46 L 373.356,213.44 C 372.521,215.072 371.213,216.781 369.509,218.325 366.943,220.649 364.092,222.054 361.811,222.319 362.663,223.847 363.611,225.552 364.702,227.579 365.073,228.267 365.486,229.014 365.933,229.806 370.926,238.649 380.261,253.336 384.546,260.019 385.259,257.035 386.995,253.995 389.675,251.486 393.749,247.671 398.904,246.093 403.063,246.964 L 378.693,219.464 378.69,219.46 Z" />
			<path style="stroke-linejoin:round;stroke:#000000;stroke-linecap:round;stroke-miterlimit:10.0;stroke-width:2.0;fill:#cd912b;" d="M 324.03,267.7 C 324.16,268.025 324.163,268.275 323.989,268.429 323.527,268.836 321.968,268.488 320.207,267.461 319.073,266.8 317.856,265.86 316.791,264.65 314.726,262.302 313.837,259.636 313.862,258.196 313.87,257.742 313.967,257.407 314.149,257.247 314.329,257.089 314.575,257.117 314.879,257.284 315.308,256.9 315.82,256.442 316.414,255.913 315.75,255.408 315.13,255.14 314.436,255.14 313.842,255.14 313.271,255.355 312.827,255.745 311.976,256.494 311.635,257.493 311.656,258.626 311.747,263.383 318.307,270.518 321.173,271.528 322.071,271.844 322.901,271.968 323.554,271.876 324.974,271.656 325.534,270.396 324.024,267.686 L 324.03,267.7 Z" />
			<path style="fill:#f8be35;" d="M 424.79,175.59 C 422.862,173.36 420.643,171.935 419.108,171.794 418.515,172.228 417.921,172.665 417.327,173.102 416.67,173.585 416.016,174.06 415.358,174.548 401.208,185.03 386.792,196.41 373.415,207.321 373.484,207.383 373.558,207.438 373.621,207.507 374.782,208.788 374.588,211.027 373.356,213.435 L 378.69,219.455 C 390.302,210.063 401.408,201.151 410.302,194.1 411.82,192.897 413.278,191.744 414.657,190.657 417.768,188.205 420.508,186.064 422.78,184.313 423.404,183.832 423.986,183.386 424.537,182.966 425.745,182.044 426.772,181.273 427.6,180.666 427.28,179.196 426.31,177.346 424.79,175.586 L 424.79,175.59 Z" />
			<path style="stroke-linejoin:round;stroke:#000000;stroke-linecap:round;stroke-miterlimit:10.0;stroke-width:2.0;fill:#cd912b;" d="M 310.56,271.18 C 313.465,274.73 317.176,274.579 323.55,271.911 323.553,271.897 323.554,271.888 323.557,271.875 322.903,271.968 322.074,271.844 321.176,271.527 318.311,270.517 311.75,263.382 311.659,258.625 308.519,262.845 307.819,267.835 310.559,271.185 L 310.56,271.18 Z" />
			<path style="stroke-linejoin:round;stroke:#000000;stroke-linecap:round;stroke-miterlimit:10.0;stroke-width:2.0;fill:#f8be35;" d="M 364.7,227.58 C 363.609,225.553 362.661,223.848 361.809,222.32 360.34,222.491 359.105,222.194 358.342,221.351 358.064,221.044 357.872,220.678 357.744,220.273 338.266,236.567 322.752,250.265 316.411,255.917 315.817,256.446 315.305,256.904 314.876,257.288 314.456,257.664 314.112,257.973 313.858,258.2 313.833,259.639 314.721,262.306 316.787,264.654 317.851,265.863 319.069,266.803 320.203,267.465 320.941,266.844 321.703,266.205 322.488,265.546 326.202,262.434 330.418,258.929 334.997,255.145 344.306,247.452 355.066,238.643 365.931,229.808 365.471,229.028 365.061,228.278 364.691,227.598 L 364.7,227.58 Z" />
			<path style="stroke-linejoin:round;stroke:#000000;stroke-linecap:round;stroke-miterlimit:10.0;stroke-width:2.0;fill:#cd912b;" d="M 314.15,257.25 C 313.968,257.41 313.871,257.745 313.863,258.199 314.116,257.972 314.46,257.663 314.881,257.287 314.571,257.117 314.331,257.087 314.151,257.247 L 314.15,257.25 Z" />
			<path style="stroke-linejoin:round;stroke:#000000;stroke-linecap:round;stroke-miterlimit:10.0;stroke-width:2.0;fill:#7b2b18;" d="M 507.84,124.54 C 457.619,111.967 387.75,116.508 310.21,179.767 286.165,199.382 245.168,244.753 226.148,297.687 212.627,335.318 210.213,376.772 232.891,415.517 292.64,505.143 427.071,466.112 489.901,425.427 550.566,386.144 599.341,325.945 608.771,259.957 616.691,204.427 595.871,146.577 507.841,124.537 L 507.84,124.54 Z M 443.45,320.12 C 407.063,344.949 365.729,351.268 349.895,328.061 336.84,308.928 345.207,275.708 368.937,250.718 364.49,248.197 360.028,247.446 356.062,249.73 348.357,254.166 344.388,256.502 338.317,260.238 332.246,263.974 330.702,258.694 334.997,255.139 330.418,258.923 326.202,262.428 322.488,265.54 322.843,265.954 323.155,266.336 323.409,266.679 L 323.409,266.679 C 323.648,267.042 323.846,267.377 324.025,267.698 325.535,270.411 324.974,271.673 323.551,271.875 323.548,271.888 323.547,271.897 323.544,271.911 317.17,274.579 313.459,274.73 310.554,271.18 307.816,267.833 308.522,262.838 311.654,258.626 311.633,257.493 311.974,256.493 312.825,255.745 313.269,255.354 313.84,255.14 314.434,255.14 315.128,255.14 315.748,255.408 316.412,255.913 322.753,250.262 338.266,236.563 357.745,220.269 357.396,219.163 357.591,217.731 358.247,216.188 358.284,216.102 358.317,216.017 358.357,215.93 357.358,213.942 356.434,211.879 355.428,209.253 354.407,209.114 353.454,208.723 352.662,208.048 349.992,205.769 350.151,201.196 353.019,197.836 355.887,194.475 360.377,193.597 363.048,195.876 365.027,197.565 365.448,200.514 364.368,203.296 L 367.786,207.153 C 367.945,207.092 368.103,207.032 368.26,206.979 370.412,206.254 372.304,206.324 373.414,207.324 386.791,196.412 401.206,185.032 415.357,174.551 415.089,172.996 415.368,171.588 416.489,170.619 420.757,167.363 427.82,164.714 431.856,169.129 435.892,173.544 433.065,179.055 429.371,183.362 L 429.368,183.362 C 429.119,183.902 428.788,184.28 428.506,184.524 427.872,185.072 427.052,185.361 426.133,185.361 425.121,185.361 423.966,184.986 422.78,184.314 420.508,186.065 417.768,188.206 414.657,190.658 415.241,190.198 415.5,194.77 413.098,198.875 412.634,199.668 412.081,200.446 411.4,201.165 407.197,205.602 401.826,210.505 397.39,218.677 396.017,221.206 396.168,224.86 397.477,229.194 430.915,211.257 466.46,212.324 480.667,233.147 496.497,256.337 479.837,295.277 443.447,320.107 L 443.45,320.12 Z" />
			<path style="stroke-linejoin:round;stroke:#000000;stroke-linecap:round;stroke-miterlimit:10.0;stroke-width:2.0;fill:#cd912b;" d="M 324.03,267.7 C 323.851,267.379 323.653,267.044 323.414,266.681 L 323.414,266.68 C 323.16,266.338 322.848,265.955 322.493,265.541 321.707,266.2 320.946,266.839 320.208,267.46 321.969,268.486 323.528,268.835 323.99,268.428 324.17,268.268 324.17,268.018 324.04,267.698 L 324.03,267.7 Z" />
			<path style="stroke-linejoin:round;stroke:#000000;stroke-linecap:round;stroke-miterlimit:10.0;stroke-width:2.0;fill:#cd912b;" d="M 363.05,195.88 C 360.379,193.601 355.888,194.479 353.021,197.84 350.153,201.201 349.994,205.773 352.664,208.052 353.456,208.727 354.408,209.118 355.43,209.257 355.13,208.474 354.822,207.635 354.503,206.738 354.335,206.634 354.195,206.499 354.002,206.334 353.068,205.537 352.802,204.146 353.123,202.678 353.346,201.657 353.845,200.599 354.636,199.672 355.871,198.223 357.531,197.355 359.086,197.334 359.105,197.334 359.124,197.33 359.143,197.33 359.933,197.33 360.596,197.554 361.115,197.997 361.854,198.628 362.169,199.635 362.116,200.752 L 364.372,203.298 C 365.452,200.498 365.032,197.548 363.052,195.868 L 363.05,195.88 Z" />
			<path style="stroke-linejoin:round;stroke:#000000;stroke-linecap:round;stroke-miterlimit:10.0;stroke-width:2.0;fill:#cd912b;" d="M 361.11,197.99 C 360.591,197.547 359.928,197.323 359.138,197.323 359.119,197.323 359.1,197.326 359.081,197.327 L 362.11,200.745 C 362.16,199.635 361.85,198.625 361.11,197.995 L 361.11,197.99 Z" />
			<path style="stroke-linejoin:round;stroke:#000000;stroke-linecap:round;stroke-miterlimit:10.0;stroke-width:2.0;fill:#f8be35;" d="M 364.37,203.3 L 362.114,200.754 359.085,197.336 C 357.53,197.357 355.87,198.225 354.635,199.674 353.844,200.601 353.345,201.658 353.122,202.68 353.611,204.176 354.067,205.514 354.502,206.74 354.821,207.637 355.129,208.476 355.429,209.259 356.435,211.885 357.36,213.948 358.358,215.936 359.168,214.154 360.573,212.247 362.456,210.541 364.191,208.97 366.055,207.824 367.788,207.159 L 364.368,203.299 364.37,203.3 Z" />
			<path style="stroke-linejoin:round;stroke:#000000;stroke-linecap:round;stroke-miterlimit:10.0;stroke-width:2.0;fill:#cd912b;" d="M 354.0,206.33 C 354.194,206.495 354.333,206.63 354.501,206.734 354.065,205.509 353.609,204.17 353.121,202.674 352.801,204.144 353.061,205.534 354.001,206.334 L 354.0,206.33 Z" />
			<path style="stroke-linejoin:round;stroke:#000000;stroke-linecap:round;stroke-miterlimit:10.0;stroke-width:2.0;fill:#cd912b;" d="M 371.33,208.02 C 370.64,207.258 369.534,206.904 368.255,206.978 368.098,207.031 367.94,207.091 367.781,207.152 366.049,207.817 364.184,208.963 362.449,210.534 360.566,212.24 359.161,214.147 358.351,215.929 358.311,216.016 358.278,216.101 358.241,216.187 358.151,217.322 358.453,218.463 359.06,219.132 360.768,221.018 364.899,220.059 368.287,216.99 371.667,213.93 373.027,209.92 371.317,208.03 L 371.33,208.02 Z" />
			<path style="stroke-linejoin:round;stroke:#000000;stroke-linecap:round;stroke-miterlimit:10.0;stroke-width:2.0;fill:#cd912b;" d="M 373.62,207.51 C 373.557,207.441 373.483,207.385 373.414,207.324 372.304,206.324 370.412,206.254 368.26,206.979 369.538,206.905 370.644,207.259 371.335,208.021 373.043,209.906 371.681,213.922 368.293,216.992 364.905,220.061 360.773,221.02 359.066,219.134 358.46,218.465 358.157,217.323 358.247,216.189 357.591,217.732 357.396,219.164 357.745,220.27 357.873,220.675 358.065,221.041 358.343,221.348 359.106,222.19 360.341,222.488 361.81,222.317 364.091,222.052 366.942,220.647 369.508,218.323 371.212,216.779 372.52,215.071 373.355,213.438 374.575,211.028 374.765,208.788 373.605,207.508 L 373.62,207.51 Z" />
			<path style="stroke-linejoin:round;stroke:#000000;stroke-linecap:round;stroke-miterlimit:10.0;stroke-width:2.0;fill:#cd912b;" d="M 407.79,249.55 C 406.525,248.199 404.887,247.347 403.059,246.965 398.901,246.094 393.746,247.672 389.671,251.487 386.991,253.996 385.255,257.036 384.542,260.02 384.063,262.024 384.049,263.999 384.535,265.775 384.909,267.143 385.567,268.395 386.546,269.441 387.211,270.151 387.987,270.71 388.831,271.15 390.623,272.085 392.754,272.43 394.991,272.185 395.365,272.144 395.742,272.085 396.121,272.012 395.8,272.019 395.483,272.012 395.168,271.989 393.043,271.834 391.074,271.002 389.622,269.451 386.113,265.702 386.927,259.239 391.44,255.015 395.951,250.789 402.455,250.403 405.963,254.15 407.543,255.837 408.239,258.075 408.124,260.41 408.045,262.005 407.587,263.644 406.763,265.187 408.192,263.328 409.191,261.309 409.721,259.303 410.701,255.643 410.121,252.023 407.801,249.553 L 407.79,249.55 Z" />
			<path style="stroke-linejoin:round;stroke:#000000;stroke-linecap:round;stroke-miterlimit:10.0;stroke-width:2.0;fill:#e6c33a;" d="M 434.87,253.65 C 431.509,249.849 423.162,251.362 413.79,256.757 405.981,247.065 399.837,237.02 397.475,229.198 396.166,224.864 396.015,221.211 397.388,218.681 401.824,210.509 407.195,205.605 411.398,201.169 412.079,200.451 412.631,199.673 413.096,198.879 413.096,198.879 413.097,198.878 413.097,198.877 414.796,196.585 410.3,194.106 410.299,194.106 401.404,201.157 390.299,210.069 378.687,219.461 L 403.059,246.965 C 404.888,247.348 406.526,248.199 407.79,249.55 410.11,252.028 410.689,255.639 409.721,259.302 409.191,261.307 408.192,263.327 406.763,265.186 406.143,265.993 405.447,266.771 404.666,267.502 402.077,269.926 399.05,271.446 396.121,272.011 395.743,272.084 395.365,272.143 394.991,272.184 392.754,272.429 390.623,272.083 388.831,271.149 390.01,272.641 391.157,274.102 392.228,275.476 385.109,284.524 382.224,293.151 385.728,297.112 390.512,302.522 405.392,297.178 418.962,285.176 432.542,273.176 439.662,259.066 434.872,253.656 L 434.87,253.65 Z" />
			<path style="stroke-linejoin:round;stroke:#000000;stroke-linecap:round;stroke-miterlimit:10.0;stroke-width:2.0;fill:#cd912b;" d="M 405.97,254.15 C 402.462,250.402 395.958,250.789 391.447,255.015 386.933,259.239 386.12,265.703 389.629,269.451 391.082,271.002 393.05,271.834 395.175,271.989 395.49,272.012 395.807,272.02 396.128,272.012 399.057,271.447 402.084,269.927 404.673,267.503 405.454,266.772 406.15,265.993 406.77,265.187 407.595,263.644 408.053,262.005 408.131,260.41 408.231,258.07 407.541,255.83 405.961,254.15 L 405.97,254.15 Z" />
			<path style="stroke-linejoin:round;stroke:#000000;stroke-linecap:round;stroke-miterlimit:10.0;stroke-width:2.0;fill:#f2a43e;" d="M 233.62,447.73 C 229.881,452.768 236.976,456.403 238.605,450.075 239.649,446.019 242.157,441.381 241.098,440.775 240.438,440.395 237.368,442.695 233.628,447.725 L 233.62,447.73 Z" />
			<path style="stroke-linejoin:round;stroke:#000000;stroke-linecap:round;stroke-miterlimit:10.0;stroke-width:2.0;fill:#f2a43e;" d="M 487.66,456.4 C 487.17,452.57 482.467,446.64 479.232,443.046 474.753,438.069 474.695,443.078 475.748,449.516 476.743,455.598 478.774,459.012 481.491,459.983 482.848,460.468 484.374,460.354 486.033,459.635 487.423,459.025 487.853,457.865 487.663,456.395 L 487.66,456.4 Z" />
			<path style="stroke-linejoin:round;stroke:#000000;stroke-linecap:round;stroke-miterlimit:10.0;stroke-width:2.0;fill:#f2a43e;" d="M 338.93,157.0 C 339.535,156.395 339.233,151.024 338.93,147.318 338.471,141.695 328.978,142.264 333.332,150.283 335.152,153.623 338.322,157.603 338.932,157.003 L 338.93,157.0 Z" />
			<path style="stroke-linejoin:round;stroke:#000000;stroke-linecap:round;stroke-miterlimit:10.0;stroke-width:2.0;fill:#f2a43e;" d="M 601.85,164.0 C 610.638,160.484 611.811,158.727 610.308,155.211 608.61,152.672 604.78,154.039 598.725,159.606 592.67,165.173 593.055,167.516 601.845,164.006 L 601.85,164.0 Z" />
			<path style="fill:#3caf49;" d="M 356.06,249.73 C 353.762,251.053 351.8,252.187 350.012,253.23 L 362.201,258.561 C 364.286,255.879 366.527,253.255 368.935,250.719 364.495,248.199 360.035,247.449 356.065,249.729 L 356.06,249.73 Z" />
			<path style="fill:#070909;" d="M 349.9,328.06 C 349.563,327.566 349.249,327.057 348.941,326.544 L 238.481,423.264 C 244.39,430.821 250.898,437.311 257.886,442.847 L 354.197,333.067 C 352.627,331.577 351.177,329.927 349.907,328.067 L 349.9,328.06 Z" />
			<path style="fill:#070909;" d="M 413.36,198.39 C 413.298,198.553 413.216,198.715 413.096,198.877 413.096,198.878 413.095,198.879 413.095,198.879 412.631,199.672 412.078,200.45 411.397,201.169 407.194,205.606 401.823,210.509 397.387,218.681 396.014,221.21 396.165,224.864 397.474,229.198 401.87,226.84 406.303,224.819 410.72,223.119 L 415.631,189.893 C 415.304,190.15 414.99,190.397 414.654,190.662 415.214,190.222 415.464,194.422 413.354,198.392 L 413.36,198.39 Z" />
			<path style="fill:#070909;" d="M 440.5,216.63 L 500.538,122.866 C 490.552,120.784 479.86,119.409 468.555,119.027 L 426.925,218.33 C 431.555,217.38 436.105,216.81 440.495,216.63 L 440.5,216.63 Z" />
			<path style="fill:#070909;" d="M 415.36,174.55 C 415.092,172.995 415.371,171.587 416.492,170.618 417.165,170.105 417.913,169.611 418.702,169.153 L 425.612,122.406 C 412.435,124.916 398.698,128.889 384.497,134.648 L 390.76,193.405 C 398.88,186.995 407.16,180.615 415.36,174.545 L 415.36,174.55 Z" />
			<path style="fill:#070909;" d="M 467.99,222.04 L 558.397,144.99 C 549.318,139.386 538.868,134.417 526.898,130.225 L 450.903,217.011 C 457.213,217.741 462.993,219.411 467.993,222.041 L 467.99,222.04 Z" />
			<path style="fill:#070909;" d="M 480.67,233.15 C 481.533,234.415 482.282,235.735 482.955,237.089 L 597.285,184.792 C 593.085,177.145 587.765,169.867 581.19,163.099 L 477.47,229.181 C 478.62,230.411 479.69,231.731 480.66,233.151 L 480.67,233.15 Z" />
			<path style="fill:#3caf49;" d="M 344.07,231.83 L 294.427,194.123 C 287.295,201.209 279.61,209.611 271.931,219.082 L 329.602,244.304 C 333.802,240.644 338.672,236.434 344.072,231.834 L 344.07,231.83 Z" />
			<path style="fill:#070909;" d="M 348.18,283.38 L 224.02,303.93 C 221.436,311.948 219.384,320.118 217.986,328.382 L 345.456,292.331 C 346.146,289.371 347.056,286.381 348.176,283.381 L 348.18,283.38 Z" />
			<path style="fill:#070909;" d="M 356.22,267.13 L 326.849,261.897 C 325.337,263.157 323.866,264.384 322.485,265.542 322.84,265.956 323.152,266.338 323.406,266.681 323.645,267.044 323.843,267.379 324.022,267.7 325.532,270.413 324.971,271.675 323.548,271.877 323.545,271.89 323.544,271.899 323.541,271.913 317.167,274.581 313.456,274.732 310.551,271.182 307.92,267.966 308.476,263.229 311.301,259.127 L 250.8,248.346 C 243.828,259.281 237.368,270.976 231.952,283.204 L 350.032,278.792 C 351.752,274.852 353.822,270.952 356.212,267.112 L 356.22,267.13 Z" />
			<path style="fill:#070909;" d="M 344.58,314.94 C 343.671,310.272 343.528,305.243 344.114,300.011 L 215.994,357.516 C 216.439,369.437 218.51,381.401 222.599,393.232 L 344.579,314.932 344.58,314.94 Z" />
			<path style="fill:#070909;" d="M 357.63,218.32 C 357.722,217.651 357.926,216.935 358.242,216.19 358.279,216.104 358.312,216.019 358.352,215.932 357.353,213.944 356.429,211.881 355.423,209.255 354.402,209.116 353.449,208.725 352.657,208.05 349.987,205.771 350.146,201.198 353.014,197.838 355.882,194.477 360.372,193.599 363.043,195.878 365.022,197.567 365.443,200.516 364.363,203.298 L 367.781,207.155 C 367.94,207.094 368.098,207.034 368.255,206.981 370.407,206.256 372.299,206.326 373.409,207.326 373.909,206.918 374.421,206.505 374.924,206.096 L 352.137,150.569 C 341.751,156.588 331.173,163.602 320.433,171.729 L 357.627,218.315 357.637,218.325 357.63,218.32 Z" />
			<path style="fill:#070909;" d="M 474.81,288.69 L 594.05,309.657 C 599.603,297.328 603.88,284.617 606.663,271.64 L 482.143,274.779 C 480.263,279.419 477.803,284.089 474.813,288.689 L 474.81,288.69 Z" />
			<path style="fill:#070909;" d="M 485.83,262.33 L 610.22,243.74 C 610.581,233.56 609.858,223.427 607.807,213.574 L 486.307,248.414 C 486.877,252.844 486.697,257.524 485.827,262.334 L 485.83,262.33 Z" />
			<path style="fill:#070909;" d="M 362.55,338.66 L 286.39,459.39 C 297.998,464.121 310.311,467.109 322.987,468.644 L 376.09,342.204 C 371.15,341.714 366.6,340.544 362.55,338.664 L 362.55,338.66 Z" />
			<path style="fill:#070909;" d="M 450.82,314.68 L 540.908,384.466 C 552.516,372.951 563.08,360.59 572.269,347.558 L 464.819,301.598 C 460.679,306.168 455.989,310.568 450.819,314.678 L 450.82,314.68 Z" />
			<path style="fill:#070909;" d="M 389.36,342.06 L 369.466,468.47 C 387.417,466.405 405.261,462.275 422.102,456.874 L 409.322,337.474 C 402.432,339.804 395.712,341.354 389.352,342.064 L 389.36,342.06 Z" />
			<path style="fill:#070909;" d="M 423.0,331.9 L 463.792,440.1 C 473.387,435.393 482.18,430.427 489.889,425.435 496.244,421.32 502.466,416.972 508.53,412.415 L 439.673,322.622 C 434.173,326.142 428.583,329.242 423.003,331.892 L 423.0,331.9 Z" />
			<g>
				<path style="fill:#cc2128;" d="M 344.58,314.94 L 222.6,393.232 C 225.191,400.729 228.585,408.173 232.885,415.52 234.684,418.218 236.554,420.793 238.484,423.262 L 348.944,326.549 C 346.834,323.059 345.404,319.139 344.584,314.939 L 344.58,314.94 Z" />
				<path style="fill:#cc2128;" d="M 345.46,292.33 L 217.99,328.381 C 216.364,337.999 215.631,347.741 215.995,357.514 L 344.115,300.009 C 344.385,297.499 344.835,294.929 345.455,292.339 L 345.46,292.33 Z" />
				<path style="fill:#cc2128;" d="M 450.9,217.01 L 526.895,130.224 C 520.922,128.133 514.576,126.232 507.832,124.543 505.443,123.945 503.009,123.386 500.532,122.87 L 440.494,216.634 C 444.084,216.494 447.564,216.624 450.894,217.014 L 450.9,217.01 Z" />
				<path style="fill:#cc2128;" d="M 431.86,169.13 C 435.896,173.545 433.069,179.056 429.375,183.363 L 429.372,183.363 C 429.123,183.903 428.792,184.281 428.51,184.525 427.876,185.073 427.056,185.362 426.137,185.362 425.125,185.362 423.97,184.987 422.784,184.315 420.757,185.878 418.341,187.764 415.638,189.891 L 410.727,223.117 C 416.186,221.016 421.618,219.424 426.926,218.335 L 468.556,119.032 C 455.072,118.576 440.711,119.533 425.614,122.408 L 418.704,169.155 C 422.904,166.695 428.444,165.395 431.844,169.115 L 431.86,169.13 Z" />
				<path style="fill:#cc2128;" d="M 477.47,229.18 L 581.19,163.098 C 574.819,156.54 567.266,150.462 558.403,144.99 L 467.996,222.04 C 471.586,223.93 474.776,226.3 477.476,229.18 L 477.47,229.18 Z" />
				<path style="fill:#cc2128;" d="M 390.76,193.41 L 384.497,134.653 C 373.955,138.927 363.159,144.188 352.144,150.57 L 374.931,206.097 C 380.081,201.897 385.371,197.647 390.751,193.407 L 390.76,193.41 Z" />
				<path style="fill:#cc2128;" d="M 350.04,278.79 L 231.96,283.202 C 229.854,287.957 227.903,292.791 226.143,297.69 225.4,299.757 224.697,301.838 224.024,303.927 L 348.184,283.377 C 348.744,281.847 349.364,280.317 350.044,278.787 L 350.04,278.79 Z" />
				<path style="fill:#cc2128;" d="M 357.74,220.27 C 357.559,219.698 357.531,219.036 357.63,218.319 L 357.628,218.313 320.434,171.727 C 317.037,174.297 313.625,176.974 310.197,179.77 305.491,183.609 300.132,188.446 294.419,194.122 L 344.062,231.829 C 348.332,228.199 352.922,224.319 357.742,220.279 L 357.74,220.27 Z" />
				<path style="fill:#cc2128;" d="M 311.65,258.63 C 311.629,257.497 311.97,256.497 312.821,255.749 313.265,255.358 313.836,255.144 314.43,255.144 315.124,255.144 315.744,255.412 316.408,255.917 319.187,253.44 323.73,249.416 329.595,244.306 L 271.924,219.084 C 264.715,227.976 257.521,237.808 250.8,248.349 L 311.301,259.13 C 311.411,258.97 311.521,258.8 311.641,258.64 L 311.65,258.63 Z" />
				<path style="fill:#cc2128;" d="M 486.31,248.41 L 607.8,213.572 C 605.728,203.611 602.297,193.937 597.274,184.79 L 482.944,237.087 C 484.704,240.607 485.814,244.407 486.314,248.407 L 486.31,248.41 Z" />
				<path style="fill:#cc2128;" d="M 376.09,342.21 L 322.99,468.65 C 338.164,470.487 353.853,470.258 369.467,468.462 L 389.361,342.052 C 384.721,342.572 380.271,342.632 376.091,342.212 L 376.09,342.21 Z" />
				<path style="fill:#cc2128;" d="M 464.82,301.6 L 572.27,347.556 C 580.804,335.452 588.15,322.769 594.056,309.654 L 474.816,288.687 C 471.956,293.077 468.616,297.417 464.816,301.597 L 464.82,301.6 Z" />
				<path style="fill:#cc2128;" d="M 482.15,274.78 L 606.67,271.641 C 607.501,267.769 608.203,263.874 608.763,259.958 609.534,254.563 610.029,249.146 610.221,243.742 L 485.831,262.332 C 485.091,266.412 483.851,270.582 482.151,274.782 L 482.15,274.78 Z" />
				<path style="fill:#cc2128;" d="M 409.32,337.46 L 422.1,456.86 C 436.996,452.084 451.102,446.314 463.795,440.086 L 423.003,331.886 C 418.403,334.066 413.823,335.936 409.313,337.456 L 409.32,337.46 Z" />
				<path style="fill:#cc2128;" d="M 443.45,320.12 C 442.197,320.975 440.936,321.804 439.673,322.614 L 508.53,412.407 C 519.969,403.808 530.831,394.455 540.905,384.463 L 450.817,314.677 C 448.467,316.557 446.017,318.387 443.457,320.127 L 443.45,320.12 Z" />
				<path style="fill:#cc2128;" d="M 354.2,333.06 L 257.889,442.84 C 266.7,449.819 276.278,455.27 286.393,459.394 L 362.553,338.664 C 359.453,337.224 356.653,335.364 354.203,333.064 L 354.2,333.06 Z" />
				<path style="fill:#cc2128;" d="M 350.02,253.23 C 345.812,255.682 342.583,257.617 338.323,260.238 332.252,263.974 330.708,258.694 335.003,255.139 332.127,257.516 329.414,259.767 326.858,261.895 L 356.229,267.128 C 358.039,264.223 360.033,261.358 362.209,258.56 L 350.019,253.23 350.02,253.23 Z" />
			</g>
			<path style="stroke-linejoin:round;stroke:#000000;stroke-linecap:round;stroke-miterlimit:10.0;stroke-width:1.0;fill:none;" d="M 323.41,260.18 C 334.487,253.463 349.686,238.396 363.87,226.045" />
			<path style="stroke-linejoin:round;stroke:#000000;stroke-linecap:round;stroke-miterlimit:10.0;stroke-width:1.0;fill:none;" d="M 377.56,213.57 C 384.56,209.194 414.443,183.763 422.501,178.103" />
			<path style="stroke-linejoin:round;stroke:#000000;stroke-linecap:round;stroke-miterlimit:10.0;stroke-width:1.0;fill:none;" d="M 373.36,218.32 C 375.06,221.196 374.81,221.133 376.56,222.04 378.31,222.947 376.971,224.105 377.969,224.796 378.967,225.487 379.505,225.871 380.733,228.712 381.961,231.553 385.339,235.085 387.451,238.233 389.563,241.381 392.02,242.667 392.787,244.173" />
			<path style="stroke-linejoin:round;stroke:#000000;stroke-linecap:round;stroke-miterlimit:10.0;stroke-width:1.0;fill:none;" d="M 413.79,256.75 C 418.176,261.605 423.0,267.457 423.0,267.457" />
			<path style="stroke-linejoin:round;stroke:#000000;stroke-linecap:round;stroke-miterlimit:10.0;stroke-width:1.0;fill:none;" d="M 396.16,285.28 C 396.325,284.541 395.831,283.555 396.16,282.816" />
			<path style="stroke-linejoin:round;stroke:#000000;stroke-linecap:round;stroke-miterlimit:10.0;stroke-width:1.0;fill:none;" d="M 397.79,286.43 C 397.716,285.198 398.029,284.704 397.79,284.048" />
			<path style="stroke-linejoin:round;stroke:#000000;stroke-linecap:round;stroke-miterlimit:10.0;stroke-width:1.0;fill:none;" d="M 398.46,287.83 C 399.117,287.009 400.153,285.6 399.62,284.684 398.579,282.429 391.934,275.091 391.934,275.091" />
			<path style="stroke-linejoin:round;stroke:#000000;stroke-linecap:round;stroke-miterlimit:10.0;stroke-width:1.0;fill:none;" d="M 419.73,265.77 C 420.387,266.878 421.948,267.7 422.523,268.357" />
			<path style="stroke-linejoin:round;stroke:#000000;stroke-linecap:round;stroke-miterlimit:10.0;stroke-width:1.0;fill:none;" d="M 418.4,266.72 C 419.489,267.706 420.475,270.006 420.475,270.663" />
			<path style="stroke-linejoin:round;stroke:#000000;stroke-linecap:round;stroke-miterlimit:10.0;stroke-width:1.0;fill:none;" d="M 421.3,262.77 C 421.864,261.866 422.654,260.634 422.998,260.47" />
			<path style="stroke-linejoin:round;stroke:#000000;stroke-linecap:round;stroke-miterlimit:10.0;stroke-width:1.0;fill:none;" d="M 422.53,263.76 C 423.105,264.91 424.985,264.5 425.236,262.775" />
			<path style="fill:#000000;" d="M 393.43,266.72 C 395.055,268.575 402.763,268.357 403.062,260.477 403.118,259.013 406.493,258.123 405.493,264.412 404.493,270.701 394.243,270.042 393.433,266.712 L 393.43,266.72 Z" />
			<path style="stroke-linejoin:round;stroke:#000000;stroke-linecap:round;stroke-miterlimit:10.0;stroke-width:1.0;fill:none;" d="M 430.06,175.08 C 430.625,174.406 432.941,173.595 431.192,171.017" />
			<path style="stroke-linejoin:round;stroke:#000000;stroke-linecap:round;stroke-miterlimit:10.0;stroke-width:1.0;fill:none;" d="M 313.86,271.4 C 313.189,269.535 314.15,269.742 314.369,270.156 314.588,270.57 316.142,271.772 315.262,269.876" />
			<path style="stroke-linejoin:round;stroke:#000000;stroke-linecap:round;stroke-miterlimit:10.0;stroke-width:1.0;fill:none;" d="M 366.02,500.94 C 362.655,501.502 357.607,503.184 363.963,502.81" />
			<path style="stroke-linejoin:round;stroke:#000000;stroke-linecap:round;stroke-miterlimit:10.0;stroke-width:1.0;fill:none;" d="M 359.84,504.78 C 361.495,504.78 368.812,504.343 371.512,503.385" />
			<path style="stroke-linejoin:round;stroke:#000000;stroke-linecap:round;stroke-miterlimit:10.0;stroke-width:1.0;fill:none;" d="M 362.63,506.52 C 367.072,506.346 377.351,505.126 379.267,504.082" />
			<path style="stroke-linejoin:round;stroke:#000000;stroke-linecap:round;stroke-miterlimit:10.0;stroke-width:1.0;fill:none;" d="M 365.68,507.82 C 369.164,507.298 378.31,507.21 383.013,505.555" />
			<path style="stroke-linejoin:round;stroke:#000000;stroke-linecap:round;stroke-miterlimit:10.0;stroke-width:1.0;fill:none;" d="M 370.95,509.22 C 376.742,509.133 387.891,507.652 390.33,506.52" />
			<path style="stroke-linejoin:round;stroke:#000000;stroke-linecap:round;stroke-miterlimit:10.0;stroke-width:1.0;fill:none;" d="M 371.95,510.78 C 377.002,510.78 389.545,509.91 394.858,507.035" />
			<path style="stroke-linejoin:round;stroke:#000000;stroke-linecap:round;stroke-miterlimit:10.0;stroke-width:1.0;fill:none;" d="M 373.87,512.27 C 384.148,512.183 398.782,509.57 401.308,508.394" />
			<path style="stroke-linejoin:round;stroke:#000000;stroke-linecap:round;stroke-miterlimit:10.0;stroke-width:1.0;fill:none;" d="M 381.97,513.2 C 393.97,513.2 405.97,510.956 417.137,507.828" />
			<path style="stroke-linejoin:round;stroke:#000000;stroke-linecap:round;stroke-miterlimit:10.0;stroke-width:1.0;fill:none;" d="M 631.52,295.99 C 630.25,301.545 623.535,320.602 620.086,324.776" />
			<path style="stroke-linejoin:round;stroke:#000000;stroke-linecap:round;stroke-miterlimit:10.0;stroke-width:1.0;fill:none;" d="M 632.61,295.99 C 632.791,305.719 623.716,322.96 620.087,328.768" />
			<path style="stroke-linejoin:round;stroke:#000000;stroke-linecap:round;stroke-miterlimit:10.0;stroke-width:1.0;fill:none;" d="M 632.61,303.73 C 630.792,315.527 620.084,331.68 620.084,331.68" />
			<path style="stroke-linejoin:round;stroke:#000000;stroke-linecap:round;stroke-miterlimit:10.0;stroke-width:1.0;fill:none;" d="M 631.52,312.38 C 628.617,322.599 622.082,333.125 622.082,333.125" />
			<path style="stroke-linejoin:round;stroke:#000000;stroke-linecap:round;stroke-miterlimit:10.0;stroke-width:1.0;fill:none;" d="M 629.85,320.42 C 629.305,325.502 622.953,336.21 622.953,336.21" />
			<path style="stroke-linejoin:round;stroke:#000000;stroke-linecap:round;stroke-miterlimit:10.0;stroke-width:1.0;fill:none;" d="M 630.52,324.78 C 629.613,329.135 624.803,337.302 624.803,337.302" />
			<path style="stroke-linejoin:round;stroke:#000000;stroke-linecap:round;stroke-miterlimit:10.0;stroke-width:1.0;fill:none;" d="M 632.06,325.41 C 631.153,329.765 626.343,337.932 626.343,337.932" />
			<path style="fill:#ffffff;" d="M 358.55,201.28 C 360.157,203.323 362.038,204.98 363.221,207.348 363.653,208.214 364.947,207.453 364.516,206.591 363.275,204.106 361.297,202.363 359.61,200.219 359.02,199.459 357.96,200.529 358.55,201.279 L 358.55,201.28 Z" />
			<path style="fill:#ffffff;" d="M 380.68,207.28 C 383.626,205.375 386.125,203.314 388.589,200.834 391.918,197.483 396.534,195.592 400.211,192.608 406.268,187.691 413.205,183.636 418.744,178.104 419.429,177.42 418.369,176.359 417.683,177.043 412.558,182.162 406.204,186.079 400.491,190.5 397.178,193.064 393.423,194.997 390.144,197.542 386.599,200.293 383.744,203.515 379.924,205.985 379.124,206.515 379.874,207.805 380.684,207.285 L 380.68,207.28 Z" />
			<path style="fill:#ffffff;" d="M 357.32,221.83 C 346.873,231.619 335.714,240.665 324.896,250.038 324.164,250.672 325.229,251.729 325.957,251.099 336.775,241.727 347.934,232.681 358.381,222.891 359.091,222.231 358.031,221.171 357.321,221.831 L 357.32,221.83 Z" />
			<path style="fill:#ffffff;" d="M 371.43,220.48 C 374.862,226.966 378.985,232.98 382.923,239.158 385.128,242.616 385.577,246.52 389.054,249.015 389.842,249.58 390.589,248.278 389.811,247.72 386.764,245.534 385.06,239.676 382.913,236.374 379.358,230.906 375.78,225.496 372.725,219.724 372.275,218.874 370.985,219.624 371.435,220.484 L 371.43,220.48 Z" />
			<path style="fill:#ffffff;" d="M 411.59,262.5 C 413.778,264.049 414.837,266.068 415.988,268.384 416.554,269.523 417.529,270.368 418.061,271.572 418.824,273.296 419.946,273.465 421.735,273.324 422.4,273.272 423.338,273.019 423.893,272.59 425.058,271.687 426.622,271.741 427.683,270.944 429.245,269.771 430.718,267.668 431.314,265.817 431.493,265.263 430.624,265.027 430.447,265.578 429.66,268.021 427.245,270.149 424.944,270.729 422.94,271.234 420.359,274.211 418.839,271.117 417.2,267.783 415.139,263.913 412.044,261.721 411.574,261.391 411.124,262.171 411.594,262.511 L 411.59,262.5 Z" />
			<path style="fill:#ffffff;" d="M 431.4,277.68 C 432.996,275.099 434.695,272.542 436.653,270.222 437.981,268.647 435.405,272.789 435.098,273.331 434.671,274.085 434.378,274.782 434.462,275.646 434.847,279.563 439.626,271.21 439.653,271.157 440.696,269.132 440.544,269.993 439.67,271.54 439.06,272.622 438.327,273.673 437.853,274.826 437.562,275.534 437.014,277.002 438.179,277.323 439.406,277.66 440.176,275.966 440.607,275.16 441.208,274.037 441.643,272.796 442.104,271.613 442.318,271.05 442.534,270.487 442.75,269.925 442.916,269.517 443.082,269.11 443.247,268.702 443.696,268.159 443.52,267.977 442.718,268.159 442.538,268.909 438.944,277.154 441.293,276.994 443.392,276.851 444.527,274.258 444.667,277.475 444.701,278.286 445.771,278.46 446.343,278.124 447.059,277.705 447.602,276.913 448.092,276.272 448.556,275.666 451.821,272.193 450.777,273.827 449.984,275.067 448.162,276.765 448.712,278.393 449.068,279.45 450.675,279.086 451.348,278.657 452.834,277.71 451.586,278.275 452.791,279.541 452.93,279.687 453.18,279.763 453.374,279.695 454.55,279.284 455.147,278.303 455.927,277.341 456.609,276.5 459.232,271.543 457.875,274.923 457.349,276.234 455.813,278.671 457.051,279.966 457.923,280.879 458.983,279.18 459.21,278.6 459.573,277.678 460.386,273.217 459.901,276.462 459.742,277.535 459.229,279.063 459.479,280.155 460.585,284.984 465.54,270.77 463.09,279.559 462.844,280.443 462.672,282.057 464.017,282.057 465.493,282.057 466.492,278.927 466.933,277.983 468.433,274.775 469.675,271.452 471.168,268.24 471.579,267.355 472.259,265.963 472.246,265.826 472.528,268.789 470.524,272.668 469.452,275.322 468.217,278.379 465.14,282.839 465.148,286.31 465.151,287.252 466.364,287.113 466.814,286.626 470.994,282.102 471.947,275.208 475.906,270.461 476.911,269.256 475.982,272.378 475.856,272.816 475.264,274.873 474.358,276.839 473.436,278.764 471.748,282.285 469.243,287.36 465.405,288.896 464.695,289.18 465.005,290.341 465.723,290.053 470.8,288.021 473.888,281.147 475.794,276.452 475.868,276.27 479.056,266.71 475.861,268.942 471.308,272.124 469.578,280.04 466.804,284.66 465.417,286.972 468.167,281.269 468.076,281.478 469.135,279.042 470.211,276.62 471.206,274.157 471.913,272.407 474.794,266.505 473.021,264.638 472.878,264.488 472.636,264.422 472.438,264.484 470.2,265.179 469.014,270.102 468.238,271.935 467.251,274.261 466.293,276.6 465.178,278.869 463.399,282.49 464.695,278.471 465.17,276.722 465.652,274.946 464.372,274.321 463.162,275.601 461.748,277.096 460.216,281.738 461.055,276.779 461.202,275.91 461.584,274.674 460.85,273.996 460.658,273.818 460.355,273.752 460.123,273.902 459.674,274.192 459.469,274.431 459.26,274.965 458.833,276.056 457.195,280.134 458.363,276.889 458.736,275.853 460.55,273.204 459.443,272.166 459.301,272.032 459.055,271.931 458.86,272.012 457.087,272.744 453.574,279.041 453.297,277.556 453.156,276.801 452.094,275.575 451.275,276.394 450.899,276.77 449.519,278.002 450.413,276.48 451.062,275.372 452.178,274.342 452.568,273.1 452.922,271.97 452.419,271.331 451.231,271.48 449.339,271.716 447.627,274.943 446.585,276.241 445.61,277.454 446.75,274.203 445.178,273.771 444.743,273.651 444.14,273.801 443.788,274.077 440.915,276.328 442.318,272.975 442.857,271.438 443.179,270.52 444.676,267.972 443.753,267.038 443.58,266.862 443.238,266.786 443.026,266.944 441.862,267.811 441.427,270.02 440.943,271.291 440.417,272.666 439.068,274.427 438.744,275.781 439.106,274.265 440.392,272.695 441.153,271.347 441.648,270.47 442.641,268.866 441.713,267.937 441.079,267.303 440.155,268.059 439.792,268.583 439.002,269.723 438.399,270.964 437.771,272.197 437.22,273.275 435.243,275.504 436.632,273.05 437.117,272.194 439.05,269.506 438.0,268.456 436.288,266.744 430.99,276.055 430.359,277.074 429.939,277.674 430.979,278.274 431.389,277.624 L 431.4,277.68 Z" />
			<path style="fill:#ffffff;" d="M 479.69,267.09 C 477.996,275.819 474.51,284.498 468.793,291.368 468.547,291.663 468.969,292.09 469.217,291.792 474.996,284.849 478.556,276.076 480.269,267.249 480.359,266.869 479.779,266.709 479.699,267.089 L 479.69,267.09 Z" />
			<path style="fill:#ffffff;" d="M 481.37,269.42 C 481.042,274.405 478.262,279.774 475.853,284.042 475.663,284.379 476.181,284.682 476.371,284.345 478.833,279.983 481.636,274.498 481.97,269.421 482.0,269.041 481.4,269.041 481.37,269.421 L 481.37,269.42 Z" />
			<path style="fill:#ffffff;" d="M 401.7,254.86 C 401.7,256.743 400.173,258.27 398.29,258.27 396.407,258.27 394.88,256.743 394.88,254.86 394.88,252.977 396.407,251.45 398.29,251.45 400.173,251.45 401.7,252.977 401.7,254.86 Z" />
			<path style="fill:#ffffff;" d="M 401.336,250.17 C 401.336,250.6272 401.0064,250.998 400.6,250.998 400.1936,250.998 399.864,250.6272 399.864,250.17 399.864,249.7128 400.1936,249.342 400.6,249.342 401.0064,249.342 401.336,249.7128 401.336,250.17 Z" />
			<path style="fill:#ffffff;" d="M 369.283,211.35 C 369.283,212.0088 368.7488,212.543 368.09,212.543 367.4312,212.543 366.897,212.0088 366.897,211.35 366.897,210.6912 367.4312,210.157 368.09,210.157 368.7488,210.157 369.283,210.6912 369.283,211.35 Z" />
			<g>
				<path style="fill-opacity:0.8;fill:#ffffff;" d="M 545.3,413.7 C 554.143,405.051 562.438,395.891 570.374,386.448 578.282,376.979 585.809,367.195 592.864,357.083 599.949,346.991 606.553,336.564 612.665,325.852 618.746,315.123 624.333,304.101 629.233,292.743 625.056,304.388 619.913,315.7 614.03,326.607 608.168,337.528 601.595,348.065 594.501,358.229 587.376,368.372 579.74,378.158 571.555,387.46 563.395,396.78 554.675,405.62 545.305,413.71 L 545.3,413.7 Z" />
				<path style="fill-opacity:0.8;fill:#ffffff;" d="M 242.42,229.13 C 236.595,238.74 231.002,248.471 225.744,258.37 220.515,268.282 215.625,278.37 211.328,288.704 206.999,299.023 203.265,309.591 200.279,320.375 197.326,331.165 195.109,342.177 193.981,353.36 194.332,342.123 196.046,330.917 198.769,319.98 201.47,309.03 205.157,298.338 209.484,287.933 213.849,277.541 218.848,267.426 224.38,257.624 229.89,247.814 235.94,238.314 242.42,229.134 L 242.42,229.13 Z" />
			</g>
			<g>
				<path style="fill-opacity:0.8;fill:#ffffff;" d="M 385.69,145.86 C 388.684,144.414 391.76,143.136 394.869,141.951 397.974,140.755 401.137,139.709 404.323,138.745 407.516,137.804 410.735,136.946 413.99,136.251 415.618,135.907 417.249,135.58 418.885,135.278 420.529,135.014 422.168,134.737 423.82,134.542 L 418.987,135.757 C 417.377,136.156 415.771,136.566 414.171,136.999 410.973,137.867 407.779,138.746 404.609,139.703 401.432,140.638 398.279,141.654 395.125,142.673 391.965,143.703 388.835,144.793 385.685,145.863 L 385.69,145.86 Z" />
				<path style="fill-opacity:0.8;fill:#ffffff;" d="M 327.11,180.09 C 329.31,178.152 331.607,176.328 333.938,174.553 336.262,172.768 338.659,171.08 341.081,169.43 343.516,167.8 345.978,166.208 348.505,164.722 L 352.314,162.529 C 353.609,161.841 354.892,161.133 356.21,160.491 L 341.639,170.259 334.384,175.175 C 331.974,176.805 329.564,178.475 327.114,180.085 L 327.11,180.09 Z" />
				<path style="fill-opacity:0.8;fill:#ffffff;" d="M 245.75,282.69 C 246.818,279.824 248.048,277.019 249.346,274.25 250.634,271.475 252.047,268.76 253.507,266.072 254.989,263.396 256.522,260.747 258.164,258.167 L 260.663,254.321 C 261.538,253.067 262.395,251.8 263.313,250.576 L 258.825,258.561 254.384,266.553 C 252.906,269.218 251.478,271.909 250.031,274.593 L 245.741,282.713 245.75,282.69 Z" />
				<path style="fill-opacity:0.8;fill:#ffffff;" d="M 232.5,324.28 C 232.788,320.357 233.541,316.492 234.505,312.69 235.499,308.895 236.71,305.152 238.324,301.566 237.46,305.401 236.434,309.16 235.472,312.94 234.482,316.71 233.562,320.49 232.502,324.28 L 232.5,324.28 Z" />
				<path style="fill-opacity:0.8;fill:#ffffff;" d="M 237.97,383.36 C 236.691,380.876 235.628,378.282 234.704,375.64 233.768,373.001 233.029,370.294 232.413,367.563 231.82,364.826 231.351,362.06 231.076,359.275 230.94,357.882 230.83,356.488 230.755,355.092 230.713,353.695 230.666,352.299 230.71,350.902 230.892,352.288 231.037,353.672 231.243,355.049 231.417,356.429 231.612,357.804 231.839,359.174 232.291,361.913 232.78,364.643 233.389,367.347 233.974,370.056 234.68,372.738 235.433,375.409 236.213,378.079 237.083,380.719 237.983,383.359 L 237.97,383.36 Z" />
				<path style="fill-opacity:0.8;fill:#ffffff;" d="M 273.51,425.03 C 269.901,423.114 266.551,420.74 263.413,418.127 260.293,415.49 257.371,412.6 254.892,409.35 257.948,412.059 260.945,414.769 264.055,417.362 267.155,419.982 270.345,422.462 273.515,425.032 L 273.51,425.03 Z" />
				<path style="fill-opacity:0.8;fill:#ffffff;" d="M 332.47,446.08 C 329.662,445.905 326.866,445.554 324.087,445.116 321.304,444.689 318.546,444.114 315.806,443.467 313.072,442.796 310.354,442.05 307.684,441.155 306.35,440.704 305.022,440.239 303.703,439.753 302.395,439.23 301.084,438.722 299.803,438.138 L 303.857,439.287 C 305.204,439.679 306.552,440.059 307.906,440.418 310.614,441.136 313.318,441.851 316.041,442.495 318.758,443.163 321.492,443.76 324.228,444.363 L 332.468,446.073 332.47,446.08 Z" />
				<path style="fill-opacity:0.8;fill:#ffffff;" d="M 420.08,437.99 C 416.303,439.381 412.452,440.566 408.568,441.629 404.683,442.693 400.748,443.565 396.802,444.373 392.84,445.102 388.864,445.765 384.863,446.229 382.862,446.455 380.858,446.655 378.852,446.82 376.843,446.951 374.835,447.088 372.822,447.131 374.817,446.862 376.812,446.629 378.8,446.332 380.791,446.069 382.778,445.784 384.759,445.467 388.723,444.847 392.682,444.196 396.612,443.393 400.557,442.669 404.471,441.788 408.381,440.886 412.291,439.986 416.181,438.996 420.081,437.996 L 420.08,437.99 Z" />
				<path style="fill-opacity:0.8;fill:#ffffff;" d="M 496.66,396.92 C 493.688,399.498 490.595,401.935 487.446,404.295 484.299,406.657 481.052,408.886 477.794,411.091 474.493,413.23 471.15,415.328 467.722,417.259 466.003,418.219 464.273,419.157 462.531,420.072 460.771,420.953 459.015,421.841 457.223,422.653 L 462.293,419.643 C 463.982,418.643 465.665,417.632 467.331,416.596 470.67,414.533 473.99,412.457 477.242,410.257 480.538,408.128 483.764,405.895 487.0,403.672 490.22,401.442 493.42,399.172 496.65,396.912 L 496.66,396.92 Z" />
				<path style="fill-opacity:0.8;fill:#ffffff;" d="M 552.24,338.99 C 550.358,342.042 548.314,344.994 546.196,347.887 544.086,350.789 541.851,353.598 539.559,356.358 537.248,359.102 534.878,361.798 532.4,364.391 531.159,365.686 529.908,366.97 528.642,368.241 527.349,369.484 526.07,370.739 524.736,371.938 L 531.831,363.875 C 534.169,361.167 536.508,358.466 538.793,355.717 541.095,352.984 543.341,350.203 545.589,347.422 547.839,344.632 550.029,341.812 552.249,338.992 L 552.24,338.99 Z" />
				<path style="fill-opacity:0.8;fill:#ffffff;" d="M 583.26,272.23 C 582.767,275.155 582.087,278.049 581.318,280.914 580.558,283.784 579.65,286.613 578.673,289.415 577.673,292.21 576.603,294.981 575.398,297.693 574.793,299.048 574.176,300.398 573.541,301.737 572.872,303.061 572.22,304.393 571.498,305.69 L 574.686,297.402 C 575.718,294.632 576.757,291.869 577.731,289.082 578.726,286.302 579.653,283.499 580.584,280.695 581.504,277.895 582.364,275.075 583.254,272.245 L 583.26,272.23 Z" />
				<path style="fill-opacity:0.8;fill:#ffffff;" d="M 586.1,219.8 C 586.67,222.025 587.059,224.295 587.361,226.571 587.674,228.849 587.837,231.144 587.934,233.44 588.006,235.737 588.011,238.037 587.877,240.331 587.808,241.477 587.727,242.623 587.627,243.766 587.491,244.908 587.375,246.049 587.185,247.183 L 587.108,240.317 C 587.061,238.034 587.03,235.755 586.935,233.477 586.864,231.199 586.727,228.924 586.598,226.646 586.468,224.366 586.268,222.096 586.108,219.806 L 586.1,219.8 Z" />
				<path style="fill-opacity:0.8;fill:#ffffff;" d="M 564.47,173.74 C 567.422,176.463 569.992,179.591 572.25,182.915 574.488,186.253 576.436,189.8 577.844,193.564 575.727,190.152 573.658,186.762 571.422,183.474 569.212,180.164 566.842,176.984 564.472,173.734 L 564.47,173.74 Z" />
				<path style="fill-opacity:0.8;fill:#ffffff;" d="M 516.02,142.64 C 518.586,143.366 521.105,144.257 523.59,145.226 526.081,146.185 528.518,147.281 530.92,148.445 533.313,149.63 535.672,150.886 537.949,152.281 539.087,152.98 540.214,153.695 541.327,154.429 542.422,155.195 543.52,155.95 544.572,156.772 L 541.072,154.847 C 539.912,154.2 538.747,153.563 537.57,152.95 535.217,151.721 532.865,150.499 530.48,149.342 528.104,148.164 525.697,147.052 523.29,145.93 L 516.01,142.63 516.02,142.64 Z" />
				<path style="fill-opacity:0.8;fill:#ffffff;" d="M 463.21,131.76 C 465.668,131.665 468.129,131.734 470.583,131.873 473.039,132.0 475.486,132.261 477.926,132.575 480.362,132.912 482.791,133.305 485.195,133.827 486.396,134.092 487.594,134.364 488.789,134.653 489.976,134.979 491.166,135.282 492.338,135.66 L 485.06,134.585 C 482.636,134.244 480.219,133.879 477.794,133.566 475.372,133.229 472.944,132.945 470.516,132.636 L 463.226,131.766 463.21,131.76 Z" />
			</g>
			<g>
				<path style="stroke:#000000;stroke-width:1.0;stroke-miterlimit:10.0;fill:none;" d="M 423.82,134.54 C 434.414,132.577 445.021,131.592 455.627,131.592 458.159,131.592 460.69,131.65 463.218,131.764" />
				<path style="stroke:#000000;stroke-width:1.0;stroke-miterlimit:10.0;fill:none;" d="M 356.21,160.49 C 365.999,154.766 375.827,149.887 385.684,145.858" />
				<path style="stroke:#000000;stroke-width:1.0;stroke-miterlimit:10.0;fill:none;" d="M 303.23,200.81 C 308.316,195.698 312.895,191.522 316.622,188.431 320.11,185.539 323.606,182.756 327.108,180.082" />
				<path style="stroke:#000000;stroke-width:1.0;stroke-miterlimit:10.0;fill:none;" d="M 282.69,223.79 C 289.885,214.889 296.949,207.138 303.236,200.818" />
				<path style="stroke:#000000;stroke-width:1.0;stroke-miterlimit:10.0;fill:none;" d="M 263.31,250.57 C 269.557,240.838 276.176,231.84 282.688,223.783" />
				<path style="stroke:#000000;stroke-width:1.0;stroke-miterlimit:10.0;fill:none;" d="M 238.32,301.56 C 238.649,300.575 238.989,299.584 239.341,298.59 241.251,293.188 243.403,287.879 245.747,282.686" />
				<path style="stroke:#000000;stroke-width:1.0;stroke-miterlimit:10.0;fill:none;" d="M 230.71,350.9 C 230.298,342.516 230.858,333.634 232.495,324.27" />
				<path style="stroke:#000000;stroke-width:1.0;stroke-miterlimit:10.0;fill:none;" d="M 254.89,409.35 C 247.828,401.746 242.091,393.067 237.968,383.36" />
				<path style="stroke:#000000;stroke-width:1.0;stroke-miterlimit:10.0;fill:none;" d="M 299.8,438.14 C 290.298,434.677 281.467,430.297 273.511,425.036" />
				<path style="stroke:#000000;stroke-width:1.0;stroke-miterlimit:10.0;fill:none;" d="M 372.82,447.13 C 358.945,448.206 345.375,447.836 332.465,446.08" />
				<path style="stroke:#000000;stroke-width:1.0;stroke-miterlimit:10.0;fill:none;" d="M 457.22,422.66 C 445.079,428.994 432.616,434.091 420.078,437.992" />
				<path style="stroke:#000000;stroke-width:1.0;stroke-miterlimit:10.0;fill:none;" d="M 524.74,371.94 C 516.119,380.703 506.733,389.068 496.66,396.925" />
				<path style="stroke:#000000;stroke-width:1.0;stroke-miterlimit:10.0;fill:none;" d="M 571.5,305.69 C 566.255,317.027 559.798,328.181 552.241,338.994" />
				<path style="stroke:#000000;stroke-width:1.0;stroke-miterlimit:10.0;fill:none;" d="M 587.18,247.18 C 586.946,250.506 586.587,253.89 586.104,257.332 585.407,262.293 584.456,267.263 583.26,272.227" />
				<path style="stroke:#000000;stroke-width:1.0;stroke-miterlimit:10.0;fill:none;" d="M 577.85,193.57 C 581.826,201.667 584.579,210.423 586.104,219.798" />
				<path style="stroke:#000000;stroke-width:1.0;stroke-miterlimit:10.0;fill:none;" d="M 544.57,156.77 C 552.204,161.789 558.843,167.45 564.468,173.741" />
				<path style="stroke:#000000;stroke-width:1.0;stroke-miterlimit:10.0;fill:none;" d="M 492.34,135.66 C 493.867,136.003 495.391,136.368 496.908,136.754 503.642,138.467 510.014,140.431 516.019,142.641" />
			</g>
			<g>
				<path style="stroke:#000000;stroke-width:1.0;stroke-miterlimit:10.0;fill:none;" d="M 632.86,178.1 C 670.697,259.657 595.438,367.74 545.307,413.69 530.119,427.613 510.493,442.808 487.661,456.39 487.849,457.863 487.417,459.027 486.034,459.625 484.375,460.344 482.849,460.458 481.492,459.973 473.961,464.244 466.125,468.331 457.989,472.117 364.108,515.796 275.029,496.992 232.309,459.69 219.033,448.097 208.142,434.498 200.541,418.795 228.34,484.495 363.571,582.985 530.791,460.236 601.701,408.206 686.861,289.326 632.861,178.116 L 632.86,178.1 Z" />
				<path style="stroke:#000000;stroke-width:1.0;stroke-miterlimit:10.0;fill:none;" d="M 632.86,178.1 C 625.411,162.043 613.579,147.014 596.307,133.69 491.307,52.69 326.307,103.69 237.307,230.69 184.001,312.129 178.867,374.02 200.539,418.79 208.14,434.492 219.03,448.092 232.307,459.685 275.027,496.987 364.107,515.79 457.987,472.112 466.123,468.327 473.959,464.24 481.49,459.968 478.773,458.997 476.742,455.583 475.747,449.501 474.694,443.063 474.753,438.055 479.231,443.031 482.465,446.625 487.169,452.554 487.659,456.385 510.49,442.803 530.116,427.608 545.305,413.685 595.435,367.745 670.685,259.665 632.855,178.105 L 632.86,178.1 Z M 338.93,147.32 C 339.233,151.027 339.535,156.397 338.93,157.002 338.325,157.607 335.148,153.628 333.332,150.285 328.982,142.265 338.472,141.695 338.932,147.325 L 338.93,147.32 Z M 238.61,450.08 C 236.981,456.408 229.885,452.773 233.625,447.735 237.365,442.697 240.432,440.396 241.103,440.78 242.163,441.38 239.653,446.02 238.613,450.08 L 238.61,450.08 Z M 608.76,259.95 C 599.335,325.942 550.556,386.14 489.89,425.42 427.061,466.105 292.63,505.136 232.88,415.51 210.203,376.769 212.617,335.315 226.137,297.68 245.157,244.744 286.154,199.373 310.199,179.76 387.741,116.502 457.609,111.961 507.829,124.533 595.869,146.583 616.689,204.433 608.759,259.953 L 608.76,259.95 Z M 601.85,164.0 C 593.062,167.516 592.67,165.172 598.725,159.606 604.78,154.04 608.61,152.672 610.308,155.211 611.818,158.711 610.648,160.471 601.858,163.991 L 601.85,164.0 Z" />
				<path style="stroke:#000000;stroke-width:1.0;stroke-miterlimit:10.0;fill:none;" d="M 434.87,253.65 C 439.655,259.061 432.533,273.175 418.964,285.177 405.394,297.179 390.514,302.523 385.73,297.113 382.226,293.152 385.111,284.525 392.23,275.477 391.158,274.103 390.012,272.642 388.833,271.15 387.989,270.71 387.213,270.151 386.548,269.441 385.569,268.396 384.911,267.144 384.537,265.775 383.345,264.303 382.168,262.867 381.046,261.523 377.308,257.046 373.129,253.099 368.938,250.723 345.209,275.713 336.842,308.933 349.896,328.066 365.73,351.273 407.064,344.954 443.451,320.125 479.839,295.294 496.501,256.356 480.667,233.151 466.46,212.329 430.915,211.262 397.477,229.198 399.839,237.02 405.983,247.065 413.792,256.757 423.172,251.357 431.522,249.847 434.882,253.647 L 434.87,253.65 Z" />
				<path style="stroke:#000000;stroke-width:1.0;stroke-miterlimit:10.0;fill:none;" d="M 413.1,198.87 C 413.1,198.871 413.099,198.872 413.099,198.872 415.501,194.767 415.243,190.194 414.658,190.655 413.278,191.742 411.82,192.895 410.303,194.098 410.303,194.108 414.803,196.588 413.103,198.878 L 413.1,198.87 Z" />
				<path style="stroke:#000000;stroke-width:1.0;stroke-miterlimit:10.0;fill:none;" d="M 429.34,179.4 C 428.804,177.751 427.724,175.934 426.297,174.283 423.897,171.506 421.046,169.781 418.858,169.781 417.94,169.781 417.119,170.07 416.485,170.618 415.363,171.587 415.085,172.995 415.353,174.55 416.011,174.062 416.665,173.587 417.322,173.104 417.389,172.704 417.529,172.36 417.793,172.132 418.119,171.85 418.57,171.747 419.103,171.796 420.637,171.937 422.857,173.362 424.785,175.592 426.304,177.349 427.282,179.203 427.598,180.667 427.822,181.707 427.721,182.557 427.196,183.011 426.621,183.509 425.657,183.451 424.535,182.967 423.984,183.387 423.402,183.833 422.778,184.314 423.964,184.986 425.119,185.361 426.131,185.361 427.05,185.361 427.87,185.071 428.504,184.524 428.786,184.28 429.117,183.902 429.365,183.362 429.765,182.512 429.945,181.242 429.345,179.402 L 429.34,179.4 Z" />
				<path style="stroke:#000000;stroke-width:1.0;stroke-miterlimit:10.0;fill:none;" d="M 427.2,183.01 C 427.725,182.556 427.826,181.706 427.602,180.666 426.774,181.272 425.747,182.043 424.539,182.966 425.659,183.446 426.619,183.506 427.199,183.006 L 427.2,183.01 Z" />
				<path style="stroke:#000000;stroke-width:1.0;stroke-miterlimit:10.0;fill:none;" d="M 417.8,172.13 C 417.535,172.359 417.396,172.702 417.329,173.102 417.923,172.664 418.517,172.227 419.11,171.794 418.57,171.754 418.12,171.854 417.8,172.134 L 417.8,172.13 Z" />
				<path style="stroke:#000000;stroke-width:1.0;stroke-miterlimit:10.0;fill:none;" d="M 431.86,169.13 C 427.824,164.715 420.761,167.364 416.493,170.62 417.127,170.072 417.947,169.783 418.866,169.783 421.054,169.783 423.905,171.508 426.305,174.285 427.732,175.936 428.812,177.753 429.348,179.402 429.944,181.236 429.765,182.507 429.371,183.364 429.371,183.364 429.373,183.364 429.375,183.363 433.075,179.053 435.905,173.543 431.875,169.133 L 431.86,169.13 Z" />
				<path style="stroke:#000000;stroke-width:1.0;stroke-miterlimit:10.0;fill:none;" d="M 384.54,260.02 C 380.255,253.337 370.919,238.649 365.927,229.807 355.062,238.641 344.302,247.451 334.993,255.144 333.642,256.552 335.045,258.609 338.313,260.243 344.384,256.507 348.353,254.171 356.058,249.735 360.024,247.451 364.486,248.203 368.933,250.723 373.124,253.099 377.303,257.046 381.041,261.523 382.163,262.867 383.34,264.303 384.532,265.775 384.042,263.995 384.062,262.015 384.532,260.015 L 384.54,260.02 Z" />
				<path style="stroke:#000000;stroke-width:1.0;stroke-miterlimit:10.0;fill:none;" d="M 335.0,255.14 C 330.706,258.695 332.25,263.975 338.32,260.239 335.05,258.599 333.65,256.549 335.0,255.139 L 335.0,255.14 Z" />
				<path style="stroke:#000000;stroke-width:1.0;stroke-miterlimit:10.0;fill:none;" d="M 378.69,219.46 L 373.356,213.44 C 372.521,215.072 371.213,216.781 369.509,218.325 366.943,220.649 364.092,222.054 361.811,222.319 362.663,223.847 363.611,225.552 364.702,227.579 365.073,228.267 365.486,229.014 365.933,229.806 370.926,238.649 380.261,253.336 384.546,260.019 385.259,257.035 386.995,253.995 389.675,251.486 393.749,247.671 398.904,246.093 403.063,246.964 L 378.693,219.464 378.69,219.46 Z" />
				<path style="stroke:#000000;stroke-width:1.0;stroke-miterlimit:10.0;fill:none;" d="M 324.03,267.7 C 324.16,268.025 324.163,268.275 323.989,268.429 323.527,268.836 321.968,268.488 320.207,267.461 319.073,266.8 317.856,265.86 316.791,264.65 314.726,262.302 313.837,259.636 313.862,258.196 313.87,257.742 313.967,257.407 314.149,257.247 314.329,257.089 314.575,257.117 314.879,257.284 315.308,256.9 315.82,256.442 316.414,255.913 315.75,255.408 315.13,255.14 314.436,255.14 313.842,255.14 313.271,255.355 312.827,255.745 311.976,256.494 311.635,257.493 311.656,258.626 311.747,263.383 318.307,270.518 321.173,271.528 322.071,271.844 322.901,271.968 323.554,271.876 324.974,271.656 325.534,270.396 324.024,267.686 L 324.03,267.7 Z" />
				<path style="stroke:#000000;stroke-width:1.0;stroke-miterlimit:10.0;fill:none;" d="M 424.79,175.59 C 422.862,173.36 420.643,171.935 419.108,171.794 418.515,172.228 417.921,172.665 417.327,173.102 416.67,173.585 416.016,174.06 415.358,174.548 401.208,185.03 386.792,196.41 373.415,207.321 373.484,207.383 373.558,207.438 373.621,207.507 374.782,208.788 374.588,211.027 373.356,213.435 L 378.69,219.455 C 390.302,210.063 401.408,201.151 410.302,194.1 411.82,192.897 413.278,191.744 414.657,190.657 417.768,188.205 420.508,186.064 422.78,184.313 423.404,183.832 423.986,183.386 424.537,182.966 425.745,182.044 426.772,181.273 427.6,180.666 427.28,179.196 426.31,177.346 424.79,175.586 L 424.79,175.59 Z" />
				<path style="stroke:#000000;stroke-width:1.0;stroke-miterlimit:10.0;fill:none;" d="M 310.56,271.18 C 313.465,274.73 317.176,274.579 323.55,271.911 323.553,271.897 323.554,271.888 323.557,271.875 322.903,271.968 322.074,271.844 321.176,271.527 318.311,270.517 311.75,263.382 311.659,258.625 308.519,262.845 307.819,267.835 310.559,271.185 L 310.56,271.18 Z" />
				<path style="stroke:#000000;stroke-width:1.0;stroke-miterlimit:10.0;fill:none;" d="M 364.7,227.58 C 363.609,225.553 362.661,223.848 361.809,222.32 360.34,222.491 359.105,222.194 358.342,221.351 358.064,221.044 357.872,220.678 357.744,220.273 338.266,236.567 322.752,250.265 316.411,255.917 315.817,256.446 315.305,256.904 314.876,257.288 314.456,257.664 314.112,257.973 313.858,258.2 313.833,259.639 314.721,262.306 316.787,264.654 317.851,265.863 319.069,266.803 320.203,267.465 320.941,266.844 321.703,266.205 322.488,265.546 326.202,262.434 330.418,258.929 334.997,255.145 344.306,247.452 355.066,238.643 365.931,229.808 365.471,229.028 365.061,228.278 364.691,227.598 L 364.7,227.58 Z" />
				<path style="stroke:#000000;stroke-width:1.0;stroke-miterlimit:10.0;fill:none;" d="M 314.15,257.25 C 313.968,257.41 313.871,257.745 313.863,258.199 314.116,257.972 314.46,257.663 314.881,257.287 314.571,257.117 314.331,257.087 314.151,257.247 L 314.15,257.25 Z" />
				<path style="stroke:#000000;stroke-width:1.0;stroke-miterlimit:10.0;fill:none;" d="M 507.84,124.54 C 457.619,111.967 387.75,116.508 310.21,179.767 286.165,199.382 245.168,244.753 226.148,297.687 212.627,335.318 210.213,376.772 232.891,415.517 292.64,505.143 427.071,466.112 489.901,425.427 550.566,386.144 599.341,325.945 608.771,259.957 616.691,204.427 595.871,146.577 507.841,124.537 L 507.84,124.54 Z M 443.45,320.12 C 407.063,344.949 365.729,351.268 349.895,328.061 336.84,308.928 345.207,275.708 368.937,250.718 364.49,248.197 360.028,247.446 356.062,249.73 348.357,254.166 344.388,256.502 338.317,260.238 332.246,263.974 330.702,258.694 334.997,255.139 330.418,258.923 326.202,262.428 322.488,265.54 322.843,265.954 323.155,266.336 323.409,266.679 323.648,267.042 323.846,267.377 324.025,267.698 325.535,270.411 324.974,271.673 323.551,271.875 323.548,271.888 323.547,271.897 323.544,271.911 317.17,274.579 313.459,274.73 310.554,271.18 307.816,267.833 308.522,262.838 311.654,258.626 311.633,257.493 311.974,256.493 312.825,255.745 313.269,255.354 313.84,255.14 314.434,255.14 315.128,255.14 315.748,255.408 316.412,255.913 322.753,250.262 338.266,236.563 357.745,220.269 357.396,219.163 357.591,217.731 358.247,216.188 358.284,216.102 358.317,216.017 358.357,215.93 357.358,213.942 356.434,211.879 355.428,209.253 354.407,209.114 353.454,208.723 352.662,208.048 349.992,205.769 350.151,201.196 353.019,197.836 355.887,194.475 360.377,193.597 363.048,195.876 365.027,197.565 365.448,200.514 364.368,203.296 L 367.786,207.153 C 367.945,207.092 368.103,207.032 368.26,206.979 370.412,206.254 372.304,206.324 373.414,207.324 386.791,196.412 401.206,185.032 415.357,174.551 415.089,172.996 415.368,171.588 416.489,170.619 420.757,167.363 427.82,164.714 431.856,169.129 435.892,173.544 433.065,179.055 429.371,183.362 L 429.368,183.362 C 429.119,183.902 428.788,184.28 428.506,184.524 427.872,185.072 427.052,185.361 426.133,185.361 425.121,185.361 423.966,184.986 422.78,184.314 420.508,186.065 417.768,188.206 414.657,190.658 415.241,190.198 415.5,194.77 413.098,198.875 412.634,199.668 412.081,200.446 411.4,201.165 407.197,205.602 401.826,210.505 397.39,218.677 396.017,221.206 396.168,224.86 397.477,229.194 430.915,211.257 466.46,212.324 480.667,233.147 496.497,256.337 479.837,295.277 443.447,320.107 L 443.45,320.12 Z" />
				<path style="stroke:#000000;stroke-width:1.0;stroke-miterlimit:10.0;fill:none;" d="M 324.03,267.7 C 323.851,267.379 323.653,267.044 323.414,266.681 L 323.414,266.68 C 323.16,266.338 322.848,265.955 322.493,265.541 321.707,266.2 320.946,266.839 320.208,267.46 321.969,268.486 323.528,268.835 323.99,268.428 324.17,268.268 324.17,268.018 324.04,267.698 L 324.03,267.7 Z" />
				<path style="stroke:#000000;stroke-width:1.0;stroke-miterlimit:10.0;fill:none;" d="M 363.05,195.88 C 360.379,193.601 355.888,194.479 353.021,197.84 350.153,201.201 349.994,205.773 352.664,208.052 353.456,208.727 354.408,209.118 355.43,209.257 355.13,208.474 354.822,207.635 354.503,206.738 354.335,206.634 354.195,206.499 354.002,206.334 353.068,205.537 352.802,204.146 353.123,202.678 353.346,201.657 353.845,200.599 354.636,199.672 355.871,198.223 357.531,197.355 359.086,197.334 359.105,197.334 359.124,197.33 359.143,197.33 359.933,197.33 360.596,197.554 361.115,197.997 361.854,198.628 362.169,199.635 362.116,200.752 L 364.372,203.298 C 365.452,200.498 365.032,197.548 363.052,195.868 L 363.05,195.88 Z" />
				<path style="stroke:#000000;stroke-width:1.0;stroke-miterlimit:10.0;fill:none;" d="M 361.11,197.99 C 360.591,197.547 359.928,197.323 359.138,197.323 359.119,197.323 359.1,197.326 359.081,197.327 L 362.11,200.745 C 362.16,199.635 361.85,198.625 361.11,197.995 L 361.11,197.99 Z" />
				<path style="stroke:#000000;stroke-width:1.0;stroke-miterlimit:10.0;fill:none;" d="M 364.37,203.3 L 362.114,200.754 359.085,197.336 C 357.53,197.357 355.87,198.225 354.635,199.674 353.844,200.601 353.345,201.658 353.122,202.68 353.611,204.176 354.067,205.514 354.502,206.74 354.821,207.637 355.129,208.476 355.429,209.259 356.435,211.885 357.36,213.948 358.358,215.936 359.168,214.154 360.573,212.247 362.456,210.541 364.191,208.97 366.055,207.824 367.788,207.159 L 364.368,203.299 364.37,203.3 Z" />
				<path style="stroke:#000000;stroke-width:1.0;stroke-miterlimit:10.0;fill:none;" d="M 354.0,206.33 C 354.194,206.495 354.333,206.63 354.501,206.734 354.065,205.509 353.609,204.17 353.121,202.674 352.801,204.144 353.061,205.534 354.001,206.334 L 354.0,206.33 Z" />
				<path style="stroke:#000000;stroke-width:1.0;stroke-miterlimit:10.0;fill:none;" d="M 371.33,208.02 C 370.64,207.258 369.534,206.904 368.255,206.978 368.098,207.031 367.94,207.091 367.781,207.152 366.049,207.817 364.184,208.963 362.449,210.534 360.566,212.24 359.161,214.147 358.351,215.929 358.311,216.016 358.278,216.101 358.241,216.187 358.151,217.322 358.453,218.463 359.06,219.132 360.768,221.018 364.899,220.059 368.287,216.99 371.667,213.93 373.027,209.92 371.317,208.03 L 371.33,208.02 Z" />
				<path style="stroke:#000000;stroke-width:1.0;stroke-miterlimit:10.0;fill:none;" d="M 373.62,207.51 C 373.557,207.441 373.483,207.385 373.414,207.324 372.304,206.324 370.412,206.254 368.26,206.979 369.538,206.905 370.644,207.259 371.335,208.021 373.043,209.906 371.681,213.922 368.293,216.992 364.905,220.061 360.773,221.02 359.066,219.134 358.46,218.465 358.157,217.323 358.247,216.189 357.591,217.732 357.396,219.164 357.745,220.27 357.873,220.675 358.065,221.041 358.343,221.348 359.106,222.19 360.341,222.488 361.81,222.317 364.091,222.052 366.942,220.647 369.508,218.323 371.212,216.779 372.52,215.071 373.355,213.438 374.575,211.028 374.765,208.788 373.605,207.508 L 373.62,207.51 Z" />
				<path style="stroke:#000000;stroke-width:1.0;stroke-miterlimit:10.0;fill:none;" d="M 407.79,249.55 C 406.525,248.199 404.887,247.347 403.059,246.965 398.901,246.094 393.746,247.672 389.671,251.487 386.991,253.996 385.255,257.036 384.542,260.02 384.063,262.024 384.049,263.999 384.535,265.775 384.909,267.143 385.567,268.395 386.546,269.441 387.211,270.151 387.987,270.71 388.831,271.15 390.623,272.085 392.754,272.43 394.991,272.185 395.365,272.144 395.742,272.085 396.121,272.012 395.8,272.019 395.483,272.012 395.168,271.989 393.043,271.834 391.074,271.002 389.622,269.451 386.113,265.702 386.927,259.239 391.44,255.015 395.951,250.789 402.455,250.403 405.963,254.15 407.543,255.837 408.239,258.075 408.124,260.41 408.045,262.005 407.587,263.644 406.763,265.187 408.192,263.328 409.191,261.309 409.721,259.303 410.701,255.643 410.121,252.023 407.801,249.553 L 407.79,249.55 Z" />
				<path style="stroke:#000000;stroke-width:1.0;stroke-miterlimit:10.0;fill:none;" d="M 434.87,253.65 C 431.509,249.849 423.162,251.362 413.79,256.757 405.981,247.065 399.837,237.02 397.475,229.198 396.166,224.864 396.015,221.211 397.388,218.681 401.824,210.509 407.195,205.605 411.398,201.169 412.079,200.451 412.631,199.673 413.096,198.879 413.096,198.879 413.097,198.878 413.097,198.877 414.796,196.585 410.3,194.106 410.299,194.106 401.404,201.157 390.299,210.069 378.687,219.461 L 403.059,246.965 C 404.888,247.348 406.526,248.199 407.79,249.55 410.11,252.028 410.689,255.639 409.721,259.302 409.191,261.307 408.192,263.327 406.763,265.186 406.143,265.993 405.447,266.771 404.666,267.502 402.077,269.926 399.05,271.446 396.121,272.011 395.743,272.084 395.365,272.143 394.991,272.184 392.754,272.429 390.623,272.083 388.831,271.149 390.01,272.641 391.157,274.102 392.228,275.476 385.109,284.524 382.224,293.151 385.728,297.112 390.512,302.522 405.392,297.178 418.962,285.176 432.542,273.176 439.662,259.066 434.872,253.656 L 434.87,253.65 Z" />
				<path style="stroke:#000000;stroke-width:1.0;stroke-miterlimit:10.0;fill:none;" d="M 405.97,254.15 C 402.462,250.402 395.958,250.789 391.447,255.015 386.933,259.239 386.12,265.703 389.629,269.451 391.082,271.002 393.05,271.834 395.175,271.989 395.49,272.012 395.807,272.02 396.128,272.012 399.057,271.447 402.084,269.927 404.673,267.503 405.454,266.772 406.15,265.993 406.77,265.187 407.595,263.644 408.053,262.005 408.131,260.41 408.231,258.07 407.541,255.83 405.961,254.15 L 405.97,254.15 Z" />
				<path style="stroke:#000000;stroke-width:1.0;stroke-miterlimit:10.0;fill:none;" d="M 233.62,447.73 C 229.881,452.768 236.976,456.403 238.605,450.075 239.649,446.019 242.157,441.381 241.098,440.775 240.438,440.395 237.368,442.695 233.628,447.725 L 233.62,447.73 Z" />
				<path style="stroke:#000000;stroke-width:1.0;stroke-miterlimit:10.0;fill:none;" d="M 487.66,456.4 C 487.17,452.57 482.467,446.64 479.232,443.046 474.753,438.069 474.695,443.078 475.748,449.516 476.743,455.598 478.774,459.012 481.491,459.983 482.848,460.468 484.374,460.354 486.033,459.635 487.423,459.025 487.853,457.865 487.663,456.395 L 487.66,456.4 Z" />
				<path style="stroke:#000000;stroke-width:1.0;stroke-miterlimit:10.0;fill:none;" d="M 338.93,157.0 C 339.535,156.395 339.233,151.024 338.93,147.318 338.471,141.695 328.978,142.264 333.332,150.283 335.152,153.623 338.322,157.603 338.932,157.003 L 338.93,157.0 Z" />
				<path style="stroke:#000000;stroke-width:1.0;stroke-miterlimit:10.0;fill:none;" d="M 601.85,164.0 C 610.638,160.484 611.811,158.727 610.308,155.211 608.61,152.672 604.78,154.039 598.725,159.606 592.67,165.173 593.055,167.516 601.845,164.006 L 601.85,164.0 Z" />
			</g>
		</g>
	</g>
</g>
</svg>