<?xml version="1.0" encoding="UTF-8" standalone="no"?>
<svg
   enable-background="new 0 0 100.7 22"
   viewBox="0 0 100.71983 22.1"
   version="1.1"
   id="svg20"
   sodipodi:docname="55af0944aac26a98767c9e4509d286b6.svg"
   width="100.71983"
   height="22.1"
   xmlns:inkscape="http://www.inkscape.org/namespaces/inkscape"
   xmlns:sodipodi="http://sodipodi.sourceforge.net/DTD/sodipodi-0.dtd"
   xmlns="http://www.w3.org/2000/svg"
   xmlns:svg="http://www.w3.org/2000/svg">
  <defs
     id="defs24" />
  <sodipodi:namedview
     id="namedview22"
     pagecolor="#ffffff"
     bordercolor="#666666"
     borderopacity="1.0"
     inkscape:pageshadow="2"
     inkscape:pageopacity="0.0"
     inkscape:pagecheckerboard="0" />
  <path
     d="m 12.119824,6.2 c 5.2,-1.5 9.3,2.3 9.6,8.2 0.8,-5.3 -1.2,-9.3 -3.5,-11.2 -1.1,-0.1 -2.4,-0.2 -3.5,-0.3 -0.6,0.7 -2,2.6 -2.6,3.3"
     fill="#a41e22"
     id="path2" />
  <path
     d="m 21.119824,7.6 c -2.4,-4.7 -6.7,-2.6 -9,-1.1 -4.7999999,3.2 -7.2999999,-3.8 -1.6,-5.6 3.4,-1.1 9.4,1.9 10.6,6.7"
     fill="#ed1c24"
     id="path4" />
  <path
     d="m 14.319824,14.3 c -1.2,5.2 -6.4999999,6.9 -11.8999999,4.3 4.3,3.2 8.7999999,3.5 11.6999999,2.4 0.6,-0.9 1.3,-2 1.9,-2.9 -0.4,-0.8 -1.4,-2.9 -1.7,-3.8"
     fill="#659a41"
     id="path6" />
  <path
     d="m 8.7198241,21.4 c 5.3999999,0.2 5.5999999,-4.6 5.3999999,-7.2 -0.5,-5.7 6.9,-4.5 5.7,1.3 -0.7,3.5 -6.3,7.2 -11.0999999,5.9"
     fill="#a7cf38"
     id="path8" />
  <path
     d="m 5.9198241,12.3 c -3.9,-3.8 -2.5,-9.2 2.6,-12.3 -5,1.9 -7.69999996,5.5 -8.29999996,8.5 0.4,1 0.99999996,2.1 1.49999996,3.1 0.9,0.2 3.3,0.5 4.2,0.7"
     fill="#136d9a"
     id="path10" />
  <path
     d="m 2.8198241,3.8 c -2.99999996,4.3 1,7.1 3.3,8.3 5.0999999,2.6 0.2,8.2 -4.2,4.1 -2.59999996,-2.4 -2.79999996,-9 0.9,-12.4"
     fill="#2aace3"
     id="path12" />
  <g
     fill="#ffffff"
     id="g18"
     transform="translate(0.01982414)">
    <path
       d="m 56.8,15.5 h 2.8 0.1 0.2 c 0.7,0 1.1,0.1 1.2,0.4 0.2,0.3 0.2,0.6 0.2,1.1 0,0.7 -0.2,1.1 -0.5,1.2 -0.4,0.1 -0.9,0.2 -1.7,0.2 h -2.4 z m 0,6.4 v -2.8 h 2.6 0.2 c 0,0 0.1,0 0.2,0 0.4,0 0.7,0 1.1,-0.1 0.4,-0.1 0.7,-0.2 1,-0.4 0.2,-0.1 0.3,-0.3 0.4,-0.5 0.1,-0.2 0.1,-0.4 0.2,-0.6 0,-0.1 0,-0.2 0,-0.3 0,-0.1 0,-0.2 0,-0.3 0,-0.1 0,-0.1 0,-0.2 0,-0.1 0,-0.2 0,-0.2 0,-0.3 -0.1,-0.5 -0.2,-0.8 C 62.2,15.4 62,15.2 61.8,15.1 61.6,15 61.4,14.9 61.2,14.8 61,14.7 60.8,14.7 60.6,14.7 c -0.1,0 -0.2,0 -0.3,0 h -4.4 v 7.1 z M 54,19.8 c 0,0.6 -0.2,1.1 -0.5,1.2 -0.3,0.2 -0.9,0.3 -1.6,0.3 h -1 C 50.2,21.3 49.6,21.2 49.4,21 49.1,20.8 49,20.4 49,19.8 v -5 h -1 v 5 c 0,1 0.3,1.6 0.9,1.9 0.6,0.2 1.5,0.3 2.6,0.3 H 52 c 0,0 0.3,0 0.5,0 1,0 1.7,-0.2 2,-0.5 0.3,-0.3 0.5,-0.9 0.5,-1.6 v -5 H 54 Z M 41.3,17.2 c 0,-0.8 0.2,-1.3 0.4,-1.4 0.3,-0.2 0.8,-0.3 1.6,-0.3 h 0.3 c 1,0 1.6,0.1 2,0.2 0.4,0.2 0.6,0.7 0.6,1.5 v 0.6 0.6 0.6 0.6 c 0,0.9 -0.2,1.4 -0.7,1.5 -0.4,0.2 -1.1,0.3 -2.1,0.3 -0.9,0 -1.5,-0.1 -1.7,-0.3 -0.2,-0.2 -0.4,-0.7 -0.4,-1.4 v -1.1 z m -1,2 v 0.7 c 0.1,0.9 0.4,1.5 0.9,1.7 0.5,0.3 1.3,0.4 2.3,0.4 h 0.2 0.2 0.1 0.1 0.1 c 1.1,0 1.9,-0.2 2.3,-0.5 0.4,-0.3 0.6,-1 0.7,-1.8 0,-0.4 0,-0.8 0,-1.3 v -1.3 c 0,-1.1 -0.3,-1.8 -0.9,-2 -0.6,-0.2 -1.5,-0.4 -2.7,-0.4 h -0.4 c -1.4,0 -2.3,0.3 -2.5,0.9 -0.2,0.6 -0.4,1.4 -0.4,2.4 v 0.4 z m -6.6,-3.7 h 3.2 c 0.7,0 1.2,0.1 1.3,0.4 0.2,0.3 0.2,0.6 0.2,1.2 0,0.5 -0.2,0.9 -0.5,1.1 -0.3,0.2 -0.8,0.3 -1.5,0.3 h -2.9 z m 0,6.4 V 19 h 3 c 0.6,0 1,0.1 1.3,0.3 0.3,0.2 0.4,0.5 0.4,1 v 1.6 h 1 v -1.8 c 0,-0.4 -0.1,-0.7 -0.3,-1 -0.2,-0.2 -0.6,-0.4 -1.1,-0.4 0.8,-0.1 1.2,-0.3 1.4,-0.7 0.2,-0.4 0.2,-0.7 0.2,-1.2 0,-0.8 -0.2,-1.3 -0.6,-1.6 -0.4,-0.3 -1.1,-0.5 -2,-0.5 h -4.2 v 7.1 z M 28.1,19.1 H 31 v 0.6 c 0,0.7 -0.1,1.1 -0.4,1.3 -0.3,0.2 -0.8,0.3 -1.7,0.3 H 28.4 28 c -0.1,0 -0.2,0 -0.4,0 -0.1,0 -0.2,0 -0.4,0 -0.1,0 -0.2,0 -0.4,0 -0.6,-0.1 -1,-0.3 -1.1,-0.7 -0.1,-0.4 -0.2,-0.8 -0.2,-1.2 v -1 -0.9 c 0,-0.8 0.2,-1.4 0.4,-1.6 0.2,-0.2 0.8,-0.3 1.8,-0.3 h 0.9 c 0,0 0.6,0 0.9,0 0.6,0 1,0.2 1.1,0.4 0.1,0.2 0.2,0.6 0.2,1 h 1 v -0.3 c 0,-0.6 -0.2,-1 -0.5,-1.3 -0.3,-0.3 -0.8,-0.5 -1.6,-0.5 -0.2,0 -0.4,0 -0.5,0 -0.2,0 -0.4,0 -0.5,0 -0.2,0 -0.4,0 -0.5,0 h -0.5 c -1.2,0 -2,0.2 -2.4,0.6 -0.4,0.4 -0.7,1.1 -0.7,2 v 0.5 0.5 0.5 0.5 c 0,1.1 0.3,1.8 0.8,2.1 0.5,0.3 1.5,0.5 2.9,0.5 h 0.9 c 0.3,0 0.6,0 0.9,-0.1 0.8,-0.1 1.3,-0.3 1.5,-0.8 0.2,-0.4 0.3,-0.9 0.3,-1.5 v -0.5 -0.4 c 0,-0.1 0,-0.3 0,-0.4 h -3.8 z"
       id="path14" />
    <path
       d="m 91.9,1.7 h 4.3 c 0.8,0 1.5,0.1 2,0.3 0.5,0.2 0.9,0.7 1,1.4 0.1,0.4 0.1,0.8 0.1,1.2 v 1.2 0.5 0.5 0.5 c 0,0.3 -0.1,0.7 -0.2,1 -0.1,0.2 -0.2,0.4 -0.4,0.7 -0.2,0.2 -0.5,0.4 -0.8,0.4 -0.3,0.1 -0.6,0.1 -1,0.2 -0.2,0 -0.3,0 -0.5,0 h -0.5 -4 z m 4.7,8.8 c 1.9,0 3.1,-0.5 3.5,-1.4 0.4,-1 0.6,-2 0.6,-3.3 v -1 C 100.7,3.4 100.4,2.4 99.8,1.7 99.2,1 98,0.6 96.2,0.6 h -5.7 v 9.9 z M 88,0.7 v 9 l -6.9,-9 h -2.2 v 9.9 h 1.3 v -9 l 6.9,8.9 h 2.2 V 0.7 Z m -11.7,9.8 h 1.4 V 0.7 h -1.4 z m -2.4,-9.8 -3.5,9 -3.3,-9 h -2 l -3.3,9 -3.4,-9 H 57 l 3.8,9.9 h 2.1 l 3.3,-8.9 3.2,8.9 h 2.1 L 75.4,0.7 Z M 54.7,0.7 51,5.3 47.3,0.7 h -1.6 l 4.5,5.7 v 4.1 h 1.4 V 6.4 l 4.7,-5.7 z m -19.6,0 v 9.9 h 1.4 V 6 h 1.2 l 5.6,4.6 h 1.9 L 38.9,5.5 44.5,0.7 H 42.7 L 37.7,5 H 36.5 V 0.7 Z M 33.8,3.3 C 33.8,2 33.4,1.3 32.5,1 31.7,0.8 30.6,0.6 29.3,0.6 H 29 c -1.3,0 -2.3,0.2 -3.1,0.4 -0.8,0.2 -1.1,1 -1.1,2.2 0,1.3 0.5,2.1 1.4,2.3 1,0.3 2.1,0.4 3.4,0.4 h 0.6 0.6 c 0.8,0 1.3,0.2 1.6,0.4 0.2,0.2 0.4,0.6 0.4,1.3 0,0.8 -0.2,1.4 -0.6,1.5 -0.4,0.2 -1.1,0.3 -2.1,0.3 H 28.9 C 27.8,9.4 27,9.3 26.7,9 26.4,8.7 26.2,8.1 26.2,7.2 h -1.3 v 0.1 0.1 0.1 0.1 c 0,1.2 0.4,2 1.3,2.3 0.8,0.3 1.9,0.4 3.2,0.4 h 0.6 0.6 0.6 0.6 C 32.9,10.2 33.6,9.9 33.9,9.4 34,9 34.1,8.4 34.1,7.6 34.1,6.3 33.7,5.5 32.8,5.3 31.9,5.1 30.9,5 29.7,5 29.4,5 29.2,5 28.9,5 28.6,5 28.4,5 28.1,5 27.3,5 26.8,4.8 26.6,4.5 26.4,4.2 26.3,3.8 26.3,3.3 c 0,-0.1 0,-0.1 0,-0.2 0,-0.1 0,-0.2 0,-0.2 0,-0.2 0.1,-0.3 0.2,-0.5 0.1,-0.2 0.2,-0.3 0.4,-0.4 0.2,-0.1 0.4,-0.1 0.6,-0.2 0.2,0 0.5,-0.1 0.7,-0.1 h 0.6 0.5 0.7 c 1,0 1.6,0.1 1.9,0.4 0.3,0.2 0.5,0.7 0.5,1.5 h 1.4 z"
       id="path16" />
  </g>
</svg>
