<svg xmlns="http://www.w3.org/2000/svg" viewBox="0 0 30 30">
    <g fill="#FFF">
        <path d="M29.813 14.559c-3.772-.22-7.925 1.226-10.772 3.711l-3.392-3.392L25.94 4.853a14.421 14.421 0 0 1 3.873 9.706zM24.996 3.907L14.88 14.11l-3.18-3.18C14.277 8.157 16 3.957 15.826.142c3.418.15 6.67 1.428 9.17 3.764zm-11.03 25.889c-3.364-.187-6.911-1.547-9.375-3.845l10.291-10.292 3.366 3.366c-2.635 2.652-4.322 6.987-4.282 10.771zm.133-14.906L3.896 25.096a14.36 14.36 0 0 1-3.854-9.17c1.921.089 4.198-.563 6.004-1.226a14.475 14.475 0 0 0 4.871-2.989l3.182 3.18z"/>
        <path d="M10.963 10.18c2.663-2.873 3.944-6.443 3.73-10.152-3.966 0-7.129 1.29-9.948 3.936l6.218 6.217zM3.962 4.74C1.3 7.616-.197 10.955.026 14.664c3.71.215 7.28-1.04 10.154-3.704L3.962 4.74zm21.875 20.289c2.524-2.729 4.057-5.87 3.973-9.396-3.61-.259-7.121.915-9.979 3.39l6.006 6.006zm-6.787-5.222c-2.748 2.773-3.86 6.11-3.896 10.083 3.761.267 7.024-1.352 9.93-4.05l-6.034-6.033z"/>
    </g>
</svg>
