<svg id="Слой_1" data-name="Слой 1" xmlns="http://www.w3.org/2000/svg" viewBox="0 0 35 35"><defs><style>.cls-1{fill:#fff;}</style></defs><title>icons</title><path class="cls-1" d="M33.51,10.44c.68-.64-15,15-17,17a.29.29,0,0,1-.41,0c-1.13-1.14-6.61-6.63-7.84-7.85a.29.29,0,0,1,0-.41l17.06-17a2,2,0,0,1,2.78,0l5.45,5.47A2,2,0,0,1,33.51,10.44Z"/><path class="cls-1" d="M12.5,8.46a3.24,3.24,0,0,1-4.57,0l-.19-.21A3.23,3.23,0,0,1,12.3,3.7a2,2,0,0,1,.21.19A3.24,3.24,0,0,1,12.5,8.46Z"/><rect class="cls-1" x="27.65" y="7.61" width="0.62" height="0.79" transform="translate(-1.12 8.26) rotate(-16.48)"/><path class="cls-1" d="M7.67,20.61c0,.73,0,2.34-.11,4.36a.69.69,0,0,1-.24.51L3,29.18a1.6,1.6,0,0,0-.54,1.16,1.73,1.73,0,0,0,.51,1.22L4.41,33a1.6,1.6,0,0,0,1.12.48h0A1.43,1.43,0,0,0,6.63,33l3.93-4.42a.54.54,0,0,1,.36-.16s3.25,0,4.42-.07c.09,0,.05,0,.05,0l-1-1a.14.14,0,0,0-.1,0h0l-3.48.05a1.46,1.46,0,0,0-1.09.5L5.83,32.3a.5.5,0,0,1-.34.15.49.49,0,0,1-.35-.15L3.67,30.83a.61.61,0,0,1-.18-.43A.56.56,0,0,1,3.68,30l4.39-3.75a1.48,1.48,0,0,0,.54-1.12c0-1.55.09-2.67.1-3.43a.13.13,0,0,0,0-.09Z"/></svg>