<svg id="Слой_1" data-name="Слой 1" xmlns="http://www.w3.org/2000/svg" viewBox="0 0 35 35"><defs><style>.cls-1{fill:#fff;}</style></defs><title>icons</title><path class="cls-1" d="M31.62,26.13c1.23-1.64,1.4-4.11.48-7a24,24,0,0,0-6-9.29,22.31,22.31,0,0,0-9.51-5.74c-3.06-.86-6.05-.7-7.29.66h0a4.21,4.21,0,0,0-.42.46c-.83.91-2.42,2.67-2.73,3a.14.14,0,0,0,0,.09,13.11,13.11,0,0,0,.31,2.92c.2,1-.65,1.36-.95.41a10.62,10.62,0,0,1-.28-2.43A7.26,7.26,0,0,0,4,11.16c-.21.56-2.1,6.87,5.75,15.22l.1.1h0l.1.1c8.46,7.79,14.65,6,15.22,5.75a7.55,7.55,0,0,0,1.75-1.26c-.6,0-1.16,0-2-.15a12.07,12.07,0,0,1-4.27-1.26.93.93,0,0,1-.21-.14.65.65,0,0,1-.22-.77.63.63,0,0,1,.91-.21A12.9,12.9,0,0,0,25,29.76a8.74,8.74,0,0,0,3.16.12,45.27,45.27,0,0,0,3.5-3.71S31.64,26.13,31.62,26.13ZM13.07,4.72c3.23,0,8.1,1.82,12.21,5.93A22.79,22.79,0,0,1,31,19.46c.89,2.8.66,5.06-.63,6.36a3.43,3.43,0,0,1-.9.64c-3.22,1.67-9.35-.79-14.28-5.71a24.5,24.5,0,0,1-5-7.08A10.28,10.28,0,0,1,9.07,7.59h0a3.63,3.63,0,0,1,1-2A4.34,4.34,0,0,1,13.07,4.72Z"/></svg>